<svg width="40" height="40" viewBox="0 0 40 40" fill="none" xmlns="http://www.w3.org/2000/svg">
<path d="M38.1381 24.4909L26.2366 20.02L38.2416 15.5492C38.8626 15.3505 39.2766 14.6551 39.1731 14.059C38.9661 12.7674 38.3451 11.5752 37.6208 10.4823C36.9998 9.29007 36.1718 8.29654 35.137 7.40237C34.6195 7.00496 33.8951 7.00496 33.3776 7.40237L23.339 15.1518L25.4088 2.93154C25.6158 2.23608 25.2018 1.63997 24.5808 1.44126C23.339 0.944501 21.89 0.745799 20.5446 0.845151C19.1993 0.745799 17.7503 0.944501 16.5085 1.44126C15.8875 1.63997 15.4736 2.33542 15.6806 2.93154L17.7503 15.1518L7.7117 7.40237C7.19424 6.90562 6.4698 6.90562 5.95234 7.40237C4.91742 8.19718 4.08949 9.29007 3.46854 10.4823C2.6406 11.5752 2.12315 12.7674 1.81267 14.059C1.70919 14.7544 2.12315 15.3505 2.7441 15.5492L14.5421 20.02L2.53712 24.4909C1.91617 24.6896 1.5022 25.3851 1.60569 25.9811C1.81267 27.2728 2.33014 28.465 3.15807 29.5579C3.77902 30.7501 4.60695 31.7435 5.64187 32.6378C6.15932 33.0352 6.88377 33.0352 7.40122 32.6378L17.44 24.8883L15.3701 37.1086C15.1631 37.804 15.5771 38.4002 16.198 38.6982C17.5435 39.0957 18.8888 39.2944 20.2341 39.195C21.5796 39.2944 23.0285 39.0957 24.2703 38.6982C24.8913 38.4995 25.3053 37.804 25.0983 37.1086L23.0285 24.8883L33.0671 32.6378C33.5846 33.0352 34.309 33.0352 34.93 32.6378C35.965 31.8429 36.7928 30.8494 37.4138 29.6573C38.2416 28.5643 38.7591 27.3722 39.0696 26.0805C39.1731 25.2858 38.8626 24.6896 38.1381 24.4909Z" fill="#24544B"/>
</svg>
