<svg width="170" height="41" viewBox="0 0 170 41" fill="none" xmlns="http://www.w3.org/2000/svg">
<g clip-path="url(#clip0_186_3940)">
<path d="M51.8604 28.2577H63.8124V24.6577H56.1084V11.0977H51.8604V28.2577Z" fill="#24544B"/>
<path d="M70.8928 25.8578C69.1888 25.8578 68.3008 24.3698 68.3008 22.1378C68.3008 19.9058 69.1888 18.3938 70.8928 18.3938C72.5968 18.3938 73.5088 19.9058 73.5088 22.1378C73.5088 24.3698 72.5968 25.8578 70.8928 25.8578ZM70.9168 28.6418C74.8768 28.6418 77.4688 25.8338 77.4688 22.1378C77.4688 18.4418 74.8768 15.6338 70.9168 15.6338C66.9808 15.6338 64.3408 18.4418 64.3408 22.1378C64.3408 25.8338 66.9808 28.6418 70.9168 28.6418Z" fill="#24544B"/>
<path d="M84.3236 32.5064C86.1476 32.5064 87.7556 32.0984 88.8356 31.1384C89.8196 30.2504 90.4676 28.9064 90.4676 27.0584V15.9704H86.7236V17.2904H86.6756C85.9556 16.2584 84.8516 15.6104 83.2196 15.6104C80.1716 15.6104 78.0596 18.1544 78.0596 21.7544C78.0596 25.5224 80.6276 27.5864 83.3876 27.5864C84.8756 27.5864 85.8116 26.9864 86.5316 26.1704H86.6276V27.3944C86.6276 28.8824 85.9316 29.7464 84.2756 29.7464C82.9796 29.7464 82.3316 29.1944 82.1156 28.5464H78.3236C78.7076 31.1144 80.9396 32.5064 84.3236 32.5064ZM84.2996 24.6824C82.8356 24.6824 81.8756 23.4824 81.8756 21.6344C81.8756 19.7624 82.8356 18.5624 84.2996 18.5624C85.9316 18.5624 86.7956 19.9544 86.7956 21.6104C86.7956 23.3384 86.0036 24.6824 84.2996 24.6824Z" fill="#24544B"/>
<path d="M98.1663 25.8578C96.4623 25.8578 95.5743 24.3698 95.5743 22.1378C95.5743 19.9058 96.4623 18.3938 98.1663 18.3938C99.8703 18.3938 100.782 19.9058 100.782 22.1378C100.782 24.3698 99.8703 25.8578 98.1663 25.8578ZM98.1903 28.6418C102.15 28.6418 104.742 25.8338 104.742 22.1378C104.742 18.4418 102.15 15.6338 98.1903 15.6338C94.2543 15.6338 91.6143 18.4418 91.6143 22.1378C91.6143 25.8338 94.2543 28.6418 98.1903 28.6418Z" fill="#24544B"/>
<path d="M105.884 28.2577H109.796V15.9697H105.884V28.2577ZM105.884 14.2657H109.796V11.0977H105.884V14.2657Z" fill="#24544B"/>
<path d="M111.494 32.3144H115.406V26.9864H115.454C116.222 28.0184 117.35 28.6424 118.934 28.6424C122.15 28.6424 124.286 26.0984 124.286 22.1144C124.286 18.4184 122.294 15.6104 119.03 15.6104C117.35 15.6104 116.15 16.3544 115.31 17.4584H115.238V15.9704H111.494V32.3144ZM117.926 25.6184C116.246 25.6184 115.286 24.2504 115.286 22.2584C115.286 20.2664 116.15 18.7544 117.854 18.7544C119.534 18.7544 120.326 20.1464 120.326 22.2584C120.326 24.3464 119.414 25.6184 117.926 25.6184Z" fill="#24544B"/>
<path d="M130.655 28.6424C133.871 28.6424 136.247 27.2504 136.247 24.5624C136.247 21.4184 133.703 20.8664 131.543 20.5064C129.983 20.2184 128.591 20.0984 128.591 19.2344C128.591 18.4664 129.335 18.1064 130.295 18.1064C131.375 18.1064 132.119 18.4424 132.263 19.5464H135.863C135.671 17.1224 133.799 15.6104 130.319 15.6104C127.415 15.6104 125.015 16.9544 125.015 19.5464C125.015 22.4264 127.295 23.0024 129.431 23.3624C131.063 23.6504 132.551 23.7704 132.551 24.8744C132.551 25.6664 131.807 26.0984 130.631 26.0984C129.335 26.0984 128.519 25.4984 128.375 24.2744H124.679C124.799 26.9864 127.055 28.6424 130.655 28.6424Z" fill="#24544B"/>
<path d="M141.561 28.6177C143.265 28.6177 144.345 27.9457 145.233 26.7457H145.305V28.2577H149.049V15.9697H145.137V22.8337C145.137 24.2977 144.321 25.3057 142.977 25.3057C141.729 25.3057 141.129 24.5617 141.129 23.2177V15.9697H137.241V24.0337C137.241 26.7697 138.729 28.6177 141.561 28.6177Z" fill="#24544B"/>
<path d="M150.75 28.2584H154.662V21.3704C154.662 19.9064 155.382 18.8744 156.606 18.8744C157.782 18.8744 158.334 19.6424 158.334 20.9624V28.2584H162.246V21.3704C162.246 19.9064 162.942 18.8744 164.19 18.8744C165.366 18.8744 165.918 19.6424 165.918 20.9624V28.2584H169.83V20.2664C169.83 17.5064 168.438 15.6104 165.654 15.6104C164.07 15.6104 162.75 16.2824 161.79 17.7704H161.742C161.118 16.4504 159.894 15.6104 158.286 15.6104C156.51 15.6104 155.334 16.4504 154.566 17.7224H154.494V15.9704H150.75V28.2584Z" fill="#24544B"/>
<path fill-rule="evenodd" clip-rule="evenodd" d="M20.6836 40.2578C31.7293 40.2578 40.6836 31.3035 40.6836 20.2578C40.6836 9.21212 31.7293 0.257812 20.6836 0.257812C9.63788 0.257812 0.683594 9.21212 0.683594 20.2578C0.683594 31.3035 9.63788 40.2578 20.6836 40.2578ZM26.9229 9.57465C27.2266 8.49586 26.1797 7.85794 25.2236 8.53911L11.8767 18.0474C10.8398 18.7861 11.0029 20.2578 12.1217 20.2578H15.6363V20.2306H22.4861L16.9048 22.1999L14.4443 30.941C14.1406 32.0198 15.1874 32.6577 16.1436 31.9765L29.4905 22.4683C30.5274 21.7296 30.3642 20.2578 29.2455 20.2578H23.9157L26.9229 9.57465Z" fill="#1C4942"/>
</g>
<defs>
<clipPath id="clip0_186_3940">
<rect width="170" height="40" fill="white" transform="translate(0 0.120117)"/>
</clipPath>
</defs>
</svg>
