<svg width="167" height="41" viewBox="0 0 167 41" fill="none" xmlns="http://www.w3.org/2000/svg">
<g clip-path="url(#clip0_186_3892)">
<path d="M48.6309 28.9139H60.5829V25.3139H52.8789V11.7539H48.6309V28.9139Z" fill="#24544B"/>
<path d="M67.6643 26.514C65.9603 26.514 65.0723 25.026 65.0723 22.794C65.0723 20.562 65.9603 19.05 67.6643 19.05C69.3683 19.05 70.2803 20.562 70.2803 22.794C70.2803 25.026 69.3683 26.514 67.6643 26.514ZM67.6883 29.298C71.6483 29.298 74.2403 26.49 74.2403 22.794C74.2403 19.098 71.6483 16.29 67.6883 16.29C63.7523 16.29 61.1123 19.098 61.1123 22.794C61.1123 26.49 63.7523 29.298 67.6883 29.298Z" fill="#24544B"/>
<path d="M81.0941 33.1616C82.9181 33.1616 84.5261 32.7536 85.6061 31.7936C86.5901 30.9056 87.2381 29.5616 87.2381 27.7136V16.6256H83.4941V17.9456H83.4461C82.7261 16.9136 81.6221 16.2656 79.9901 16.2656C76.9421 16.2656 74.8301 18.8096 74.8301 22.4096C74.8301 26.1776 77.3981 28.2416 80.1581 28.2416C81.6461 28.2416 82.5821 27.6416 83.3021 26.8256H83.3981V28.0496C83.3981 29.5376 82.7021 30.4016 81.0461 30.4016C79.7501 30.4016 79.1021 29.8496 78.8861 29.2016H75.0941C75.4781 31.7696 77.7101 33.1616 81.0941 33.1616ZM81.0701 25.3376C79.6061 25.3376 78.6461 24.1376 78.6461 22.2896C78.6461 20.4176 79.6061 19.2176 81.0701 19.2176C82.7021 19.2176 83.5661 20.6096 83.5661 22.2656C83.5661 23.9936 82.7741 25.3376 81.0701 25.3376Z" fill="#24544B"/>
<path d="M94.9368 26.514C93.2328 26.514 92.3448 25.026 92.3448 22.794C92.3448 20.562 93.2328 19.05 94.9368 19.05C96.6408 19.05 97.5528 20.562 97.5528 22.794C97.5528 25.026 96.6408 26.514 94.9368 26.514ZM94.9608 29.298C98.9208 29.298 101.513 26.49 101.513 22.794C101.513 19.098 98.9208 16.29 94.9608 16.29C91.0248 16.29 88.3848 19.098 88.3848 22.794C88.3848 26.49 91.0248 29.298 94.9608 29.298Z" fill="#24544B"/>
<path d="M102.655 28.9139H106.567V16.6259H102.655V28.9139ZM102.655 14.9219H106.567V11.7539H102.655V14.9219Z" fill="#24544B"/>
<path d="M108.264 32.9696H112.176V27.6416H112.224C112.992 28.6736 114.12 29.2976 115.704 29.2976C118.92 29.2976 121.056 26.7536 121.056 22.7696C121.056 19.0736 119.064 16.2656 115.8 16.2656C114.12 16.2656 112.92 17.0096 112.08 18.1136H112.008V16.6256H108.264V32.9696ZM114.696 26.2736C113.016 26.2736 112.056 24.9056 112.056 22.9136C112.056 20.9216 112.92 19.4096 114.624 19.4096C116.304 19.4096 117.096 20.8016 117.096 22.9136C117.096 25.0016 116.184 26.2736 114.696 26.2736Z" fill="#24544B"/>
<path d="M127.426 29.2976C130.642 29.2976 133.018 27.9056 133.018 25.2176C133.018 22.0736 130.474 21.5216 128.314 21.1616C126.754 20.8736 125.362 20.7536 125.362 19.8896C125.362 19.1216 126.106 18.7616 127.066 18.7616C128.146 18.7616 128.89 19.0976 129.034 20.2016H132.634C132.442 17.7776 130.57 16.2656 127.09 16.2656C124.186 16.2656 121.786 17.6096 121.786 20.2016C121.786 23.0816 124.066 23.6576 126.202 24.0176C127.834 24.3056 129.322 24.4256 129.322 25.5296C129.322 26.3216 128.578 26.7536 127.402 26.7536C126.106 26.7536 125.29 26.1536 125.146 24.9296H121.45C121.57 27.6416 123.826 29.2976 127.426 29.2976Z" fill="#24544B"/>
<path d="M138.331 29.274C140.035 29.274 141.115 28.602 142.003 27.402H142.075V28.914H145.819V16.626H141.907V23.49C141.907 24.954 141.091 25.962 139.747 25.962C138.499 25.962 137.899 25.218 137.899 23.874V16.626H134.011V24.69C134.011 27.426 135.499 29.274 138.331 29.274Z" fill="#24544B"/>
<path d="M147.521 28.9136H151.433V22.0256C151.433 20.5616 152.153 19.5296 153.377 19.5296C154.553 19.5296 155.105 20.2976 155.105 21.6176V28.9136H159.017V22.0256C159.017 20.5616 159.713 19.5296 160.961 19.5296C162.137 19.5296 162.689 20.2976 162.689 21.6176V28.9136H166.601V20.9216C166.601 18.1616 165.209 16.2656 162.425 16.2656C160.841 16.2656 159.521 16.9376 158.561 18.4256H158.513C157.889 17.1056 156.665 16.2656 155.057 16.2656C153.281 16.2656 152.105 17.1056 151.337 18.3776H151.265V16.6256H147.521V28.9136Z" fill="#24544B"/>
<path fill-rule="evenodd" clip-rule="evenodd" d="M8.65429 4.01193C7.22363 5.01229 5.92993 6.19504 4.80688 7.52646C9.39618 7.10039 15.2267 7.79611 21.9959 11.1807C29.2245 14.7949 35.0453 14.9171 39.0963 14.1357C38.7287 13.0228 38.2659 11.9532 37.7178 10.9364C33.0805 11.4255 27.1355 10.7781 20.2071 7.31404C15.8075 5.11424 11.9293 4.20807 8.65429 4.01193ZM35.0089 7.08071C31.3468 2.98906 26.0249 0.414062 20.1015 0.414062C18.362 0.414062 16.6742 0.636169 15.0652 1.05354C17.2444 1.64815 19.5594 2.51805 21.9959 3.73633C27.0685 6.27259 31.4479 7.08922 35.0089 7.08071ZM39.9624 18.0421C35.0684 19.0085 28.3103 18.81 20.2071 14.7584C12.6315 10.9706 6.60199 11.0183 2.53546 11.922C2.32556 11.9686 2.1206 12.0176 1.92059 12.0686C1.38818 13.2265 0.963196 14.4441 0.658264 15.7085C0.983948 15.6215 1.32049 15.5388 1.66772 15.4616C6.60113 14.3653 13.5716 14.4129 21.9959 18.6251C29.5716 22.4129 35.6011 22.3652 39.6677 21.4615C39.807 21.4306 39.9443 21.3986 40.0793 21.3656C40.0941 21.0503 40.1015 20.733 40.1015 20.414C40.1015 19.6115 40.0543 18.82 39.9624 18.0421ZM39.4263 25.5863C34.5798 26.4336 28.0185 26.1084 20.2071 22.2028C12.6315 18.415 6.60199 18.4627 2.53546 19.3664C1.63281 19.5669 0.820801 19.8112 0.104493 20.0691C0.10254 20.1838 0.101562 20.2988 0.101562 20.414C0.101562 31.4597 9.05585 40.414 20.1015 40.414C29.3586 40.414 37.1468 34.1249 39.4263 25.5863Z" fill="#1C4942"/>
</g>
<defs>
<clipPath id="clip0_186_3892">
<rect width="167" height="40" fill="white" transform="translate(0 0.120117)"/>
</clipPath>
</defs>
</svg>
