<svg width="66" height="60" viewBox="0 0 66 60" fill="none" xmlns="http://www.w3.org/2000/svg">
<path d="M65.1187 23.7699C64.0362 22.5555 62.3191 21.7771 53.3144 25.5443C50.041 26.9137 45.7628 28.9572 42.2953 31.0744C41.8144 29.7058 41.3925 28.5799 41.1243 27.878C36.1897 14.9893 34.1929 14.9893 33.0001 14.9893C31.8067 14.9893 29.8099 14.9893 24.876 27.878C24.6072 28.5799 24.1853 29.7058 23.7049 31.0744C20.2368 28.9572 15.9593 26.9137 12.6859 25.5443C3.68119 21.7771 1.96462 22.5555 0.881526 23.7699C0.0377113 24.7166 -1.37387 26.3003 3.25988 39.329C4.26221 42.1461 7.76826 51.6044 10.815 55.0227C13.2609 57.7667 16.5234 59.1584 19.792 59.1584C22.0812 59.1584 24.3727 58.4727 26.3894 57.0939C28.3151 58.4206 30.579 59.1875 33.0001 59.1875C35.4207 59.1875 37.6851 58.4206 39.6108 57.0939C41.6281 58.4734 43.9191 59.1598 46.2088 59.1598C49.4768 59.1598 52.7388 57.7681 55.1852 55.0233C58.232 51.6051 61.7386 42.1468 62.7404 39.3297C67.3741 26.3003 65.9619 24.716 65.1187 23.7699ZM14.2174 51.2041C11.3129 47.9454 6.2301 34.0762 5.04575 28.4541C8.82061 29.4732 16.9375 32.9739 22.036 36.2083C21.1041 39.3676 20.3272 42.6844 20.3272 44.968C20.3272 48.017 21.1903 50.843 22.6519 53.1604C19.8179 54.3972 16.4638 53.7243 14.2174 51.2041ZM25.1394 44.9687C25.1394 40.3562 30.2957 26.4958 32.9995 21.5925C35.7033 26.4958 40.8597 40.3555 40.8597 44.9687C40.8597 49.8313 37.3337 53.7872 32.9995 53.7872C28.6653 53.7872 25.1394 49.8313 25.1394 44.9687ZM51.7816 51.2041C49.5341 53.725 46.1811 54.3978 43.3471 53.161C44.8093 50.8436 45.6724 48.0177 45.6724 44.968C45.6724 42.6844 44.8955 39.3669 43.9637 36.2083C49.0621 32.9739 57.1796 29.4732 60.9539 28.4541C59.7689 34.0762 54.6862 47.9454 51.7816 51.2041Z" fill="#F7F0F2"/>
<path d="M32.9976 8.80251C35.118 8.80251 36.8369 6.87394 36.8369 4.49501C36.8369 2.11608 35.118 0.1875 32.9976 0.1875C30.8772 0.1875 29.1582 2.11608 29.1582 4.49501C29.1582 6.87327 30.8772 8.80251 32.9976 8.80251Z" fill="#F7F0F2"/>
<path d="M50.1987 21.2768C52.3191 21.2768 54.0381 19.3482 54.0381 16.9692C54.0381 14.5903 52.3191 12.6617 50.1987 12.6617C48.0784 12.6617 46.3594 14.5903 46.3594 16.9692C46.3594 19.3482 48.0784 21.2768 50.1987 21.2768Z" fill="#F7F0F2"/>
<path d="M15.8022 21.2768C17.9226 21.2768 19.6416 19.3482 19.6416 16.9692C19.6416 14.5903 17.9226 12.6617 15.8022 12.6617C13.6819 12.6617 11.9629 14.5903 11.9629 16.9692C11.9629 19.3482 13.6819 21.2768 15.8022 21.2768Z" fill="#F7F0F2"/>
</svg>
