<svg width="30" height="30" viewBox="0 0 30 30" fill="none" xmlns="http://www.w3.org/2000/svg">
<path d="M24.6441 11.1042C24.6441 15.9549 15.0013 27.6627 15.0013 27.6627C15.0013 27.6627 5.3584 15.9549 5.3584 11.1042C5.3584 8.7793 6.37434 6.54957 8.18273 4.90558C9.99111 3.2616 12.4438 2.33801 15.0013 2.33801C17.5587 2.33801 20.0114 3.2616 21.8198 4.90558C23.6282 6.54957 24.6441 8.7793 24.6441 11.1042V11.1042Z" stroke="#1B4B36" stroke-width="2" stroke-linecap="round" stroke-linejoin="round"/>
<path d="M15.0004 14.026C16.7756 14.026 18.2147 12.7178 18.2147 11.104C18.2147 9.49014 16.7756 8.18188 15.0004 8.18188C13.2252 8.18188 11.7861 9.49014 11.7861 11.104C11.7861 12.7178 13.2252 14.026 15.0004 14.026Z" stroke="#1B4B36" stroke-width="2" stroke-linecap="round" stroke-linejoin="round"/>
</svg>
