<svg width="31" height="30" viewBox="0 0 31 30" fill="none" xmlns="http://www.w3.org/2000/svg">
<path d="M27.6725 6.42852C27.5624 6.27358 27.4118 6.1546 27.2385 6.08566L14.8385 1.22137C14.7212 1.16828 14.5946 1.14087 14.4665 1.14087C14.3385 1.14087 14.2119 1.16828 14.0945 1.22137L1.69454 6.17137C1.53071 6.21636 1.38109 6.30501 1.26054 6.42852C1.11618 6.60959 1.03595 6.83646 1.0332 7.07137V22.7571C1.03588 22.9711 1.10031 23.1793 1.21818 23.355C1.33605 23.5307 1.50196 23.6658 1.69454 23.7428L14.0945 28.6928H14.4665H14.8385L27.2385 23.7428C27.4311 23.6658 27.597 23.5307 27.7149 23.355C27.8328 23.1793 27.8972 22.9711 27.8999 22.7571V7.15709C27.9174 6.89294 27.8359 6.63198 27.6725 6.42852V6.42852Z" stroke="#24544B" stroke-width="2" stroke-linecap="round" stroke-linejoin="round"/>
<path d="M14.4668 28.843V11.7859" stroke="#24544B" stroke-width="2" stroke-linecap="round" stroke-linejoin="round"/>
<path d="M14.4668 11.7859V28.843" stroke="#24544B" stroke-width="2" stroke-linecap="round" stroke-linejoin="round"/>
<path d="M1.26074 6.5144L14.4667 11.7858L27.6727 6.5144" stroke="#24544B" stroke-width="2" stroke-linecap="round" stroke-linejoin="round"/>
</svg>
