<svg width="30" height="30" viewBox="0 0 30 30" fill="none" xmlns="http://www.w3.org/2000/svg">
<g clip-path="url(#clip0_359_4494)">
<path d="M14.9985 -0.0292969C15.0565 -0.0302032 15.0565 -0.0302032 15.1157 -0.0311279C15.2977 0.0172259 15.3595 0.0789677 15.4672 0.234375C15.4956 0.415972 15.4893 0.593151 15.4819 0.776367C15.4808 0.825613 15.4798 0.87486 15.4787 0.925598C15.4759 1.04678 15.4717 1.16793 15.4672 1.28906C15.5223 1.29209 15.5223 1.29209 15.5784 1.29517C18.8975 1.48935 22.1124 2.71944 24.4907 5.09766C24.5246 5.51206 24.5246 5.51206 24.3991 5.71289C24.2027 5.83375 24.074 5.82121 23.8461 5.80078C23.696 5.71014 23.696 5.71014 23.5532 5.58105C23.4976 5.53287 23.4421 5.48468 23.3849 5.43503C23.3553 5.40884 23.3257 5.38265 23.2952 5.35566C22.6639 4.80128 21.996 4.3438 21.268 3.92578C21.2132 3.89363 21.2132 3.89363 21.1574 3.86084C19.5286 2.90904 17.5901 2.38397 15.711 2.29546C15.5844 2.28516 15.5844 2.28516 15.4672 2.22656C15.4672 3.17402 15.4672 4.12148 15.4672 5.09766C15.7573 5.11699 16.0473 5.13633 16.3461 5.15625C16.5813 5.19394 16.8099 5.23396 17.0419 5.28442C17.1023 5.2974 17.1626 5.31037 17.2247 5.32373C19.7592 5.88997 22.0081 7.49603 23.404 9.68431C24.3131 11.1947 24.7837 12.7751 24.9008 14.5312C25.8483 14.5312 26.7957 14.5312 27.7719 14.5312C27.7526 14.4926 27.7332 14.4539 27.7133 14.4141C27.7032 14.3352 27.6959 14.256 27.6902 14.1767C27.5006 11.787 26.7575 9.30109 25.2103 7.42149C25.1832 7.38817 25.1562 7.35485 25.1283 7.32051C25.076 7.25667 25.0226 7.19364 24.9681 7.13166C24.8253 6.95806 24.7662 6.82798 24.7614 6.60736C24.7836 6.38672 24.7836 6.38672 24.8752 6.24023C25.0761 6.1166 25.1963 6.11573 25.4282 6.15234C25.5522 6.24775 25.6256 6.32492 25.7211 6.44531C25.7694 6.50015 25.7694 6.50015 25.8186 6.55609C27.7021 8.77281 28.525 11.6846 28.7094 14.5312C28.7828 14.5285 28.8562 14.5258 28.9319 14.523C29.0286 14.5208 29.1254 14.5187 29.2221 14.5166C29.2704 14.5146 29.3188 14.5127 29.3686 14.5107C29.7261 14.5049 29.7261 14.5049 29.9131 14.6347C30.0019 14.7708 30.0317 14.8392 30.0314 15C30.0327 15.0387 30.034 15.0773 30.0353 15.1172C29.9747 15.3099 29.8778 15.3679 29.7055 15.4688C29.5321 15.496 29.3641 15.491 29.1891 15.4834C29.143 15.4823 29.0968 15.4813 29.0492 15.4802C28.9359 15.4774 28.8226 15.4732 28.7094 15.4688C28.7074 15.5055 28.7054 15.5422 28.7033 15.58C28.5544 18.1259 27.8329 20.7118 26.3071 22.793C26.2671 22.8488 26.2272 22.9046 26.186 22.9621C25.4095 24.0247 24.4951 25.0533 23.436 25.8398C23.4004 25.8663 23.3648 25.8928 23.3281 25.92C21.0019 27.6361 18.3537 28.5668 15.4672 28.7109C15.4699 28.7794 15.4727 28.8479 15.4755 28.9185C15.4777 29.0092 15.4798 29.1 15.4819 29.1907C15.4838 29.2357 15.4858 29.2808 15.4878 29.3272C15.4918 29.5586 15.4833 29.6796 15.3638 29.8837C15.2262 30.0059 15.1787 30.0389 14.9985 30.033C14.9598 30.033 14.9211 30.0331 14.8813 30.0332C14.7005 29.982 14.6375 29.9208 14.5297 29.7656C14.5014 29.584 14.5076 29.4068 14.5151 29.2236C14.5161 29.1744 14.5172 29.1251 14.5183 29.0744C14.521 28.9532 14.5252 28.8321 14.5297 28.7109C14.493 28.7089 14.4563 28.7069 14.4185 28.7048C11.8565 28.5549 9.26822 27.8298 7.18613 26.2782C7.0771 26.1999 6.97633 26.1293 6.85394 26.0742C6.68955 26.0988 6.68955 26.0988 6.56097 26.1914C5.97354 26.4537 5.44339 26.5149 4.82536 26.307C4.21481 26.0574 3.82944 25.6583 3.56948 25.0575C3.37448 24.5112 3.41863 23.9715 3.63128 23.4375C3.66512 23.3831 3.69896 23.3287 3.73382 23.2727C3.8196 23.1501 3.8196 23.1501 3.79814 23.0134C3.73456 22.8062 3.62095 22.6516 3.49578 22.478C2.06203 20.3996 1.43997 17.9583 1.28753 15.4688C1.21903 15.4715 1.15052 15.4742 1.07994 15.477C0.989225 15.4792 0.898511 15.4813 0.807796 15.4834C0.762742 15.4854 0.717688 15.4873 0.671268 15.4893C0.439892 15.4933 0.318908 15.4848 0.114742 15.3653C-0.00744839 15.2277 -0.0404735 15.1802 -0.0344887 15C-0.0345643 14.9613 -0.0346398 14.9227 -0.0347176 14.8828C0.0164945 14.702 0.0776581 14.639 0.232845 14.5312C0.414441 14.5029 0.591622 14.5092 0.774837 14.5166C0.824084 14.5177 0.87333 14.5187 0.924068 14.5198C1.04525 14.5226 1.1664 14.5268 1.28753 14.5312C1.29056 14.4762 1.29056 14.4762 1.29364 14.42C1.40765 12.4713 1.85829 10.6708 2.69378 8.90625C2.71317 8.86522 2.73255 8.82419 2.75252 8.78191C3.10891 8.04199 3.57144 7.31428 4.08245 6.67161C4.17245 6.5666 4.17245 6.5666 4.1513 6.43066C4.10157 6.26137 4.10157 6.26137 4.00848 6.0791C3.82982 5.61388 3.84578 4.95701 4.00848 4.48608C4.24182 4.00291 4.66049 3.55869 5.15472 3.33984C5.7388 3.14399 6.35134 3.13536 6.91528 3.39432C7.02972 3.45703 7.02972 3.45703 7.2055 3.57422C7.43418 3.55566 7.57636 3.47659 7.76214 3.34717C9.79936 2.01724 12.1264 1.43622 14.5297 1.28906C14.527 1.21565 14.5243 1.14223 14.5215 1.06659C14.5193 0.96985 14.5171 0.873109 14.5151 0.776367C14.5131 0.728027 14.5111 0.679688 14.5091 0.629883C14.5034 0.272406 14.5034 0.272406 14.6332 0.085144C14.7702 -0.00395328 14.837 -0.0318206 14.9985 -0.0292969ZM8.46161 4.00269C8.41934 4.02662 8.37707 4.05056 8.33352 4.07523C8.17501 4.16911 8.04537 4.25019 7.93678 4.40094C7.89918 4.5489 7.94837 4.64881 7.99492 4.79027C8.12187 5.331 8.03907 5.86782 7.7745 6.34804C7.48518 6.81296 7.15778 7.11089 6.63284 7.28371C6.0519 7.40819 5.47377 7.36007 4.92035 7.14844C3.27918 9.36867 2.4088 11.7748 2.22503 14.5312C3.17249 14.5312 4.11995 14.5312 5.09613 14.5312C5.12876 14.3028 5.16139 14.0744 5.195 13.8391C5.38908 12.5497 5.72272 11.2721 6.38519 10.1367C6.57253 10.043 6.76779 10.0491 6.97113 10.0781C7.09198 10.1697 7.09198 10.1697 7.14691 10.3125C7.12372 10.6214 7.04117 10.8472 6.90155 11.1218C6.57315 11.7964 6.34986 12.4985 6.1911 13.2312C6.17708 13.2951 6.17708 13.2951 6.16279 13.3603C6.08314 13.7545 6.06514 14.1216 6.03363 14.5312C7.3098 14.5312 8.58597 14.5312 9.90081 14.5312C9.95882 14.2799 10.0168 14.0285 10.0766 13.7695C10.2962 12.9917 10.6116 12.3407 11.1313 11.7188C11.1618 11.6797 11.1923 11.6407 11.2238 11.6004C11.9666 10.6863 13.138 10.1471 14.2878 9.98817C14.4629 9.98075 14.4629 9.98075 14.5297 9.90234C14.5352 9.7819 14.5366 9.66127 14.5364 9.5407C14.5364 9.48411 14.5364 9.48411 14.5364 9.42637C14.5364 9.30114 14.5359 9.17591 14.5354 9.05067C14.5353 8.96406 14.5352 8.87744 14.5352 8.79082C14.535 8.56242 14.5344 8.33403 14.5337 8.10564C14.5331 7.87275 14.5329 7.63985 14.5326 7.40696C14.532 6.94969 14.531 6.49242 14.5297 6.03516C14.3544 6.05243 14.1791 6.07002 14.0037 6.0878C13.9303 6.09499 13.9303 6.09499 13.8553 6.10232C11.626 6.33055 9.61129 7.51289 8.14941 9.18159C7.99961 9.34499 7.95696 9.37191 7.73651 9.38599C7.55706 9.375 7.55706 9.375 7.38128 9.25781C7.32546 9.04648 7.29172 8.91074 7.38998 8.71056C7.52026 8.52338 7.6658 8.35519 7.82074 8.18848C7.85182 8.155 7.8829 8.12152 7.91492 8.08702C8.20261 7.78274 8.51339 7.51977 8.84613 7.26562C8.90013 7.22242 8.95414 7.17922 9.00978 7.1347C9.47392 6.77141 9.96537 6.48243 10.4868 6.21094C10.5229 6.19205 10.5591 6.17315 10.5964 6.15369C11.8406 5.51455 13.1504 5.2947 14.5297 5.09766C14.5297 4.1502 14.5297 3.20273 14.5297 2.22656C12.4039 2.22656 10.2874 2.95781 8.46161 4.00269ZM5.04119 4.63623C4.81816 4.94713 4.83254 5.25478 4.86175 5.625C4.98091 5.96366 5.1919 6.17383 5.48431 6.37573C5.80709 6.4893 6.1411 6.52031 6.46415 6.38969C6.79258 6.19509 7.04448 5.94199 7.14691 5.56641C7.19528 5.18455 7.13664 4.88614 6.91253 4.57031C6.64568 4.28226 6.37326 4.15699 5.98602 4.13452C5.57685 4.14365 5.30505 4.33468 5.04119 4.63623ZM15.4672 6.03516C15.4659 6.53836 15.4648 7.04157 15.4642 7.54478C15.4639 7.77841 15.4635 8.01205 15.4628 8.24568C15.4622 8.47097 15.4618 8.69626 15.4617 8.92155C15.4616 9.00769 15.4613 9.09382 15.461 9.17996C15.4606 9.30021 15.4605 9.42045 15.4606 9.5407C15.4604 9.60927 15.4603 9.67784 15.4602 9.74848C15.4497 9.89799 15.4497 9.89799 15.5258 9.96094C15.6236 9.97823 15.7215 9.99523 15.8196 10.0106C17.0912 10.2151 18.2143 10.8539 19.0195 11.8689C19.5065 12.5481 19.7961 13.2514 19.9789 14.0625C20.0176 14.2172 20.0563 14.3719 20.0961 14.5312C21.3723 14.5312 22.6485 14.5312 23.9633 14.5312C23.7139 12.1614 22.9315 10.2326 21.2094 8.55469C21.1794 8.52206 21.1494 8.48943 21.1185 8.45581C19.8173 7.07376 17.8563 6.27003 15.9932 6.0878C15.9423 6.08264 15.8914 6.07748 15.839 6.07216C15.7151 6.05963 15.5912 6.04736 15.4672 6.03516ZM11.9516 12.1289C11.3602 12.7858 10.8969 13.6339 10.8969 14.5312C12.0957 14.5312 13.2946 14.5312 14.5297 14.5312C14.5297 13.3324 14.5297 12.1336 14.5297 10.8984C13.5425 10.8984 12.6413 11.4556 11.9516 12.1289ZM15.4672 10.8984C15.4672 12.0973 15.4672 13.2961 15.4672 14.5312C16.666 14.5312 17.8649 14.5312 19.1 14.5312C18.9911 13.4421 18.5256 12.5447 17.7064 11.806C17.0639 11.2967 16.2983 10.8984 15.4672 10.8984ZM2.22503 15.4688C2.40567 17.6364 2.91379 20.8582 4.68597 22.4414C4.72215 22.4287 4.75833 22.416 4.7956 22.403C5.36898 22.2144 5.91862 22.1923 6.4756 22.4524C7.07019 22.7834 7.40253 23.2282 7.60101 23.8733C7.65095 24.3852 7.5825 24.8184 7.43988 25.3125C9.63025 26.8309 11.8666 27.5515 14.5297 27.7734C14.5297 26.826 14.5297 25.8785 14.5297 24.9023C14.3013 24.8697 14.0729 24.8371 13.8376 24.8035C11.0052 24.3749 8.6561 23.0263 6.92924 20.7209C5.79374 19.1555 5.34755 17.3544 5.09613 15.4688C4.14867 15.4688 3.2012 15.4688 2.22503 15.4688ZM6.03363 15.4688C6.28308 17.8386 7.06545 19.7674 8.78753 21.4453C8.81752 21.4779 8.8475 21.5106 8.8784 21.5442C10.1796 22.9262 12.1406 23.73 14.0037 23.9122C14.0546 23.9174 14.1055 23.9225 14.1579 23.9278C14.2818 23.9404 14.4058 23.9526 14.5297 23.9648C14.5311 23.4616 14.5321 22.9584 14.5328 22.4552C14.5331 22.2216 14.5335 21.988 14.5341 21.7543C14.5348 21.529 14.5351 21.3037 14.5353 21.0785C14.5354 20.9923 14.5356 20.9062 14.5359 20.82C14.5363 20.6998 14.5364 20.5796 14.5364 20.4593C14.5365 20.3907 14.5366 20.3222 14.5368 20.2515C14.5472 20.102 14.5472 20.102 14.4711 20.0391C14.3733 20.0218 14.2755 20.0048 14.1773 19.9894C12.9057 19.7849 11.7826 19.1461 10.9775 18.1311C10.4905 17.4519 10.2009 16.7486 10.018 15.9375C9.95999 15.7055 9.95999 15.7055 9.90081 15.4688C8.62464 15.4688 7.34847 15.4688 6.03363 15.4688ZM10.8969 15.4688C11.0058 16.5579 11.4714 17.4553 12.2906 18.194C12.933 18.7033 13.6987 19.1016 14.5297 19.1016C14.5297 17.9027 14.5297 16.7039 14.5297 15.4688C13.3309 15.4688 12.1321 15.4688 10.8969 15.4688ZM15.4672 15.4688C15.4672 16.6676 15.4672 17.8664 15.4672 19.1016C16.5563 18.9926 17.4537 18.5271 18.1925 17.7079C18.7018 17.0654 19.1 16.2998 19.1 15.4688C17.9012 15.4688 16.7024 15.4688 15.4672 15.4688ZM20.0375 15.5273C20.0202 15.6251 20.0032 15.723 19.9878 15.8211C19.7834 17.0927 19.1446 18.2158 18.1296 19.021C17.398 19.5455 16.6033 19.8882 15.7091 20.0118C15.534 20.0192 15.534 20.0192 15.4672 20.0977C15.4617 20.2181 15.4603 20.3387 15.4606 20.4593C15.4606 20.497 15.4606 20.5348 15.4605 20.5736C15.4606 20.6989 15.461 20.8241 15.4615 20.9493C15.4616 21.0359 15.4617 21.1226 15.4618 21.2092C15.462 21.4376 15.4625 21.666 15.4632 21.8944C15.4638 22.1273 15.4641 22.3601 15.4644 22.593C15.465 23.0503 15.466 23.5076 15.4672 23.9648C15.6424 23.9477 15.8176 23.9301 15.9927 23.9124C16.0417 23.9077 16.0906 23.9029 16.141 23.898C17.9106 23.7172 19.5107 22.936 20.8578 21.7969C20.8416 21.7578 20.8254 21.7188 20.8086 21.6785C20.5571 21.0386 20.4824 20.4493 20.7299 19.7955C20.979 19.2536 21.3607 18.9209 21.8979 18.6768C22.3302 18.577 22.7658 18.5437 23.2016 18.6328C23.6491 17.6616 23.9633 16.5441 23.9633 15.4688C23.4601 15.4674 22.9569 15.4664 22.4537 15.4657C22.2201 15.4654 21.9864 15.465 21.7528 15.4643C21.5275 15.4637 21.3022 15.4633 21.0769 15.4632C20.9908 15.4631 20.9046 15.4629 20.8185 15.4626C20.6983 15.4621 20.578 15.4621 20.4578 15.4621C20.3892 15.462 20.3206 15.4618 20.25 15.4617C20.1005 15.4512 20.1005 15.4512 20.0375 15.5273ZM24.9008 15.4688C24.8694 15.7044 24.838 15.9401 24.8056 16.1829C24.6612 17.1955 24.3844 18.1471 24.0219 19.1016C24.0446 19.1251 24.0672 19.1485 24.0906 19.1727C24.5291 19.6514 24.6871 20.1506 24.6786 20.7916C24.6407 21.3695 24.3939 21.8723 23.9571 22.2572C23.4508 22.6201 22.8818 22.7529 22.2641 22.6758C22.0896 22.6204 21.9253 22.5571 21.7587 22.4812C21.6235 22.4289 21.6235 22.4289 21.5054 22.4764C21.3455 22.5857 21.1956 22.7046 21.0446 22.8259C19.3972 24.1144 17.5087 24.6301 15.4672 24.9023C15.4672 25.8498 15.4672 26.7973 15.4672 27.7734C16.5085 27.6955 16.5085 27.6955 17.5326 27.5354C17.5922 27.5231 17.6517 27.5108 17.7131 27.4981C19.6172 27.0819 21.4 26.2549 22.9086 25.0195C22.9387 24.9954 22.9687 24.9713 22.9997 24.9465C23.8142 24.2925 24.5603 23.5583 25.1796 22.7158C25.2509 22.6192 25.3239 22.5241 25.3973 22.429C26.9424 20.3906 27.5539 17.9761 27.7719 15.4688C26.8244 15.4688 25.877 15.4688 24.9008 15.4688ZM21.7404 19.845C21.5328 20.1783 21.4101 20.4652 21.4658 20.863C21.5481 21.1875 21.718 21.4065 21.9711 21.6211C22.2543 21.7859 22.5254 21.8574 22.85 21.7969C23.2373 21.669 23.4831 21.5042 23.6797 21.1446C23.8097 20.8557 23.8437 20.5716 23.7495 20.2682C23.6136 19.9655 23.4232 19.7485 23.143 19.5703C22.6173 19.3743 22.1543 19.4663 21.7404 19.845ZM4.69329 23.5437C4.46089 23.8361 4.37911 24.0595 4.40033 24.4336C4.44736 24.7942 4.59346 24.9896 4.85443 25.2393C5.18404 25.4766 5.43943 25.5126 5.83473 25.461C6.19445 25.3806 6.41125 25.1331 6.61956 24.8438C6.77406 24.5348 6.75191 24.2363 6.67816 23.9062C6.50793 23.5721 6.26122 23.3357 5.91644 23.1848C5.4274 23.0727 5.03371 23.1736 4.69329 23.5437Z" fill="white"/>
</g>
<defs>
<clipPath id="clip0_359_4494">
<rect width="30" height="30" fill="white"/>
</clipPath>
</defs>
</svg>
