<svg width="30" height="30" viewBox="0 0 30 30" fill="none" xmlns="http://www.w3.org/2000/svg">
<g clip-path="url(#clip0_359_4507)">
<path d="M7.49933 2.28512C8.02528 2.73275 8.51128 3.22811 9.00011 3.71541C9.05461 3.76966 9.05461 3.76966 9.11022 3.82502C9.30195 4.01587 9.49351 4.20689 9.68493 4.39806C9.881 4.5938 10.0776 4.78899 10.2743 4.98406C10.4273 5.13593 10.5799 5.2882 10.7323 5.44057C10.8046 5.51269 10.8771 5.58465 10.9496 5.65646C11.7649 6.46357 12.3708 7.24317 12.4212 8.43747C12.3539 9.8163 11.3017 10.7401 10.3851 11.6528C10.3043 11.7339 10.3043 11.7339 10.2219 11.8167C10.1697 11.8688 10.1175 11.9209 10.0637 11.9746C10.0171 12.0212 9.9704 12.0678 9.92233 12.1158C9.78449 12.2461 9.64124 12.3641 9.49152 12.4804C9.52573 12.775 9.65983 13.0027 9.80279 13.2568C9.82858 13.3029 9.85436 13.349 9.88093 13.3964C10.2894 14.1114 10.7785 14.7802 11.3079 15.4101C11.3445 15.4541 11.3445 15.4541 11.3819 15.4989C12.0939 16.3518 12.8445 17.2045 13.6894 17.9285C13.7939 18.018 13.8973 18.1087 14.0003 18.2C14.7822 18.8888 15.6172 19.5213 16.5228 20.039C16.5565 20.0588 16.5902 20.0785 16.6249 20.0988C16.7283 20.1592 16.8323 20.2183 16.9366 20.2771C16.9977 20.3116 17.0588 20.3461 17.1217 20.3817C17.3027 20.4568 17.3416 20.4576 17.5189 20.3906C17.625 20.3086 17.625 20.3086 17.7244 20.2022C17.7636 20.1625 17.8027 20.1227 17.8431 20.0818C17.9058 20.0169 17.9058 20.0169 17.9698 19.9507C18.0136 19.9062 18.0574 19.8618 18.1025 19.8159C18.2897 19.6259 18.4759 19.4348 18.6621 19.2437C18.7984 19.1042 18.9352 18.9653 19.0721 18.8264C19.1337 18.7626 19.1337 18.7626 19.1966 18.6975C19.5826 18.3059 20.0095 17.9637 20.5255 17.7612C20.582 17.7384 20.6386 17.7156 20.6969 17.6921C21.4403 17.4376 22.2281 17.5562 22.9241 17.8894C23.1843 18.0438 23.4041 18.2238 23.6229 18.4311C23.6597 18.4658 23.6965 18.5004 23.7344 18.5361C24.3361 19.107 24.9209 19.6957 25.5073 20.2822C25.6838 20.4588 25.8607 20.6349 26.0378 20.8109C26.1761 20.9485 26.3141 21.0864 26.452 21.2244C26.5171 21.2895 26.5823 21.3544 26.6476 21.4192C27.4595 22.226 28.1712 23.0255 28.2012 24.2175C28.1799 25.4823 27.4179 26.3281 26.5652 27.1863C26.5131 27.2389 26.461 27.2915 26.4074 27.3457C26.298 27.4559 26.1885 27.5659 26.0789 27.6758C25.9678 27.7871 25.8573 27.8989 25.7472 28.0111C24.5683 29.2111 24.5683 29.2111 23.9056 29.5312C23.8451 29.5605 23.7847 29.5898 23.7224 29.6199C21.9821 30.4239 19.8526 29.9854 18.1048 29.414C18.054 29.3974 18.0031 29.3808 17.9507 29.3637C14.4825 28.2096 11.2226 26.0904 8.55402 23.6133C8.48879 23.5534 8.42356 23.4936 8.35832 23.4338C6.86551 22.0592 6.86551 22.0592 6.27435 21.3043C6.13591 21.1328 5.98743 20.9724 5.83673 20.8117C5.48718 20.4358 5.17355 20.0369 4.86261 19.6289C4.82937 19.5857 4.79612 19.5424 4.76187 19.4979C3.40937 17.7381 2.25183 15.8569 1.34698 13.8281C1.31919 13.7673 1.29139 13.7065 1.26276 13.6438C0.280871 11.4373 -0.53337 8.77807 0.306946 6.40133C0.668758 5.52157 1.30597 4.89921 1.96989 4.24143C2.14956 4.06293 2.32621 3.88519 2.48956 3.69137C3.79409 2.15822 5.57414 0.940689 7.49933 2.28512ZM4.68683 4.04294C4.34233 4.3697 4.00627 4.70521 3.66942 5.03983C3.56166 5.14662 3.45359 5.25309 3.34521 5.35924C3.18729 5.51393 3.03037 5.66958 2.87363 5.82547C2.82564 5.87212 2.77766 5.91877 2.72823 5.96684C2.00939 6.68832 1.74116 7.54768 1.74269 8.55013C1.75729 9.50125 1.99549 10.4079 2.28448 11.3086C2.30182 11.3633 2.31915 11.4181 2.33701 11.4746C2.96986 13.4401 3.98058 15.3007 5.15558 16.9922C5.18048 17.0281 5.20537 17.0641 5.23102 17.1012C5.79417 17.9114 6.39566 18.6979 7.03058 19.4531C7.0689 19.4989 7.0689 19.4989 7.108 19.5456C7.91452 20.5071 8.76784 21.471 9.72726 22.2834C9.87288 22.4083 10.0133 22.5385 10.1544 22.6684C10.4713 22.9565 10.7959 23.231 11.1321 23.4961C11.173 23.5285 11.2139 23.561 11.2561 23.5944C14.185 25.9089 18.2956 28.5678 22.2064 28.2422C22.9913 28.128 23.6897 27.6507 24.1901 27.0497C24.3903 26.8185 24.6039 26.6036 24.8216 26.3891C24.8569 26.3542 24.8923 26.3193 24.9287 26.2834C25.0765 26.1377 25.2245 25.9922 25.373 25.8473C25.4826 25.7402 25.5916 25.6326 25.7005 25.5249C25.7336 25.4929 25.7666 25.4609 25.8007 25.4279C26.1284 25.1023 26.4034 24.748 26.4434 24.2761C26.4217 23.422 25.3661 22.6603 24.7989 22.0882C24.7647 22.0537 24.7304 22.0191 24.6952 21.9835C24.5146 21.8014 24.3338 21.6195 24.1529 21.4377C24.0046 21.2886 23.8567 21.1391 23.7092 20.9892C23.529 20.8062 23.3482 20.6238 23.1667 20.442C23.0984 20.3733 23.0304 20.3044 22.9626 20.2352C22.375 19.6062 22.375 19.6062 21.5912 19.3267C21.0115 19.3519 20.6469 19.76 20.268 20.1521C20.1652 20.2566 20.0624 20.361 19.9595 20.4654C19.7993 20.6293 19.6393 20.7934 19.4794 20.9576C19.3241 21.1169 19.168 21.2754 19.0119 21.4338C18.9414 21.5069 18.9414 21.5069 18.8696 21.5815C18.5279 21.9275 18.1601 22.2462 17.6816 22.375C17.0804 22.3767 16.6276 22.1376 16.1126 21.8554C16.0452 21.8192 16.0452 21.8192 15.9765 21.7823C14.7338 21.1092 13.6004 20.2456 12.5622 19.2888C12.4436 19.1806 12.3233 19.0756 12.2017 18.9708C11.9406 18.7429 11.6951 18.5013 11.4507 18.2556C11.4088 18.2139 11.3668 18.1721 11.3236 18.1291C11.0523 17.8574 10.7963 17.5763 10.5462 17.2851C10.492 17.2237 10.4376 17.1624 10.3832 17.1011C7.60663 13.9416 7.60663 13.9416 7.58539 12.2344C7.66666 11.8059 7.90782 11.51 8.2171 11.217C8.26412 11.1708 8.26412 11.1708 8.31209 11.1237C8.48203 10.9584 8.6569 10.8005 8.83646 10.6457C9.11795 10.4012 9.38167 10.1401 9.64532 9.87668C9.69336 9.82936 9.7414 9.78204 9.79089 9.73328C10.42 9.12815 10.42 9.12815 10.6634 8.32028C10.5798 7.5546 9.66861 6.90498 9.15208 6.38691C9.11422 6.34889 9.07636 6.31086 9.03734 6.27167C8.83764 6.0711 8.63777 5.87068 8.43776 5.67041C8.23188 5.46421 8.02655 5.25746 7.82133 5.05059C7.66253 4.8907 7.50334 4.7312 7.34404 4.57181C7.26814 4.49573 7.19238 4.41951 7.11677 4.34313C7.01123 4.23658 6.90514 4.13061 6.79891 4.02475C6.76813 3.99343 6.73734 3.96211 6.70563 3.92984C5.99709 3.22919 5.33689 3.43734 4.68683 4.04294Z" fill="white"/>
</g>
<defs>
<clipPath id="clip0_359_4507">
<rect width="30" height="30" fill="white"/>
</clipPath>
</defs>
</svg>
