<svg width="50" height="50" viewBox="0 0 50 50" fill="none" xmlns="http://www.w3.org/2000/svg">
<path d="M16.0718 46.4287C23.9616 46.4287 30.3576 40.0328 30.3576 32.143C30.3576 24.2532 23.9616 17.8573 16.0718 17.8573C8.18206 17.8573 1.78613 24.2532 1.78613 32.143C1.78613 40.0328 8.18206 46.4287 16.0718 46.4287Z" stroke="#24544B" stroke-width="2" stroke-linecap="round" stroke-linejoin="round"/>
<path d="M33.9293 46.4286C41.8191 46.4286 48.215 40.0327 48.215 32.1429C48.215 24.2531 41.8191 17.8572 33.9293 17.8572C26.0395 17.8572 19.6436 24.2531 19.6436 32.1429C19.6436 40.0327 26.0395 46.4286 33.9293 46.4286Z" stroke="#24544B" stroke-width="2" stroke-linecap="round" stroke-linejoin="round"/>
<path d="M25.0006 32.143C32.8903 32.143 39.2863 25.747 39.2863 17.8572C39.2863 9.96746 32.8903 3.57153 25.0006 3.57153C17.1108 3.57153 10.7148 9.96746 10.7148 17.8572C10.7148 25.747 17.1108 32.143 25.0006 32.143Z" stroke="#24544B" stroke-width="2" stroke-linecap="round" stroke-linejoin="round"/>
</svg>
