<svg width="30" height="30" viewBox="0 0 30 30" fill="none" xmlns="http://www.w3.org/2000/svg">
<g clip-path="url(#clip0_187_5538)">
<path d="M27.8567 13.9285H19.2853C18.6936 13.9285 18.2139 14.4082 18.2139 14.9999V27.857C18.2139 28.4488 18.6936 28.9285 19.2853 28.9285H27.8567C28.4485 28.9285 28.9282 28.4488 28.9282 27.857V14.9999C28.9282 14.4082 28.4485 13.9285 27.8567 13.9285Z" stroke="#24544B" stroke-width="2" stroke-linecap="round" stroke-linejoin="round"/>
<path d="M27.8567 1.07153H19.2853C18.6936 1.07153 18.2139 1.55123 18.2139 2.14296V6.4501C18.2139 7.04184 18.6936 7.52153 19.2853 7.52153H27.8567C28.4485 7.52153 28.9282 7.04184 28.9282 6.4501V2.14296C28.9282 1.55123 28.4485 1.07153 27.8567 1.07153Z" stroke="#24544B" stroke-width="2" stroke-linecap="round" stroke-linejoin="round"/>
<path d="M10.7141 1.07153H2.14272C1.55098 1.07153 1.07129 1.55123 1.07129 2.14296V15.0001C1.07129 15.5918 1.55098 16.0715 2.14272 16.0715H10.7141C11.3059 16.0715 11.7856 15.5918 11.7856 15.0001V2.14296C11.7856 1.55123 11.3059 1.07153 10.7141 1.07153Z" stroke="#24544B" stroke-width="2" stroke-linecap="round" stroke-linejoin="round"/>
<path d="M10.7141 22.4788H2.14272C1.55098 22.4788 1.07129 22.9585 1.07129 23.5502V27.8573C1.07129 28.4491 1.55098 28.9288 2.14272 28.9288H10.7141C11.3059 28.9288 11.7856 28.4491 11.7856 27.8573V23.5502C11.7856 22.9585 11.3059 22.4788 10.7141 22.4788Z" stroke="#24544B" stroke-width="2" stroke-linecap="round" stroke-linejoin="round"/>
</g>
<defs>
<clipPath id="clip0_187_5538">
<rect width="30" height="30" fill="white"/>
</clipPath>
</defs>
</svg>
