<svg width="30" height="30" viewBox="0 0 30 30" fill="none" xmlns="http://www.w3.org/2000/svg">
<path d="M14.8541 26.0926C15.0038 26.0917 15.1534 26.0926 15.3031 26.0937C16.1784 26.0949 17.0429 25.9913 17.8884 25.7604C17.9572 25.7419 17.9572 25.7419 18.0273 25.7231C19.8961 25.2026 21.5077 24.2085 22.9039 22.8895C22.9501 22.8468 22.9964 22.8041 23.044 22.76C24.9046 20.9906 26.1167 18.2886 26.1922 15.7372C26.1952 15.5403 26.1955 15.3436 26.194 15.1468C26.1931 14.9983 26.194 14.85 26.1952 14.7016C26.1982 12.3392 25.3319 10.0119 23.8542 8.16712C23.8278 8.13413 23.8014 8.10113 23.7742 8.06714C22.2723 6.2114 20.2827 4.90278 17.9701 4.262C17.9218 4.24844 17.8736 4.23488 17.8239 4.22091C16.8983 3.97773 15.9732 3.89421 15.0187 3.9013C14.967 3.90148 14.9154 3.90166 14.8622 3.90184C14.0376 3.90605 13.2519 3.96181 12.4497 4.16262C12.3986 4.17462 12.3476 4.18661 12.295 4.19897C10.7705 4.56205 9.3337 5.24654 8.11358 6.22376C8.083 6.2481 8.05242 6.27244 8.02091 6.29752C5.67407 8.17628 4.16399 10.8336 3.83687 13.8205C3.81258 14.1634 3.81102 14.5063 3.81364 14.8499C3.8146 14.9983 3.81364 15.1466 3.81251 15.2951C3.80943 17.6575 4.67578 19.9847 6.15342 21.8295C6.17983 21.8625 6.20623 21.8955 6.23344 21.9295C8.09468 24.2292 10.7138 25.6678 13.6629 26.0531C14.0589 26.0957 14.4562 26.0956 14.8541 26.0926ZM9.18276 22.7129C9.13046 22.6741 9.07816 22.6353 9.02428 22.5953C7.22302 21.1999 6.06634 19.2976 5.50004 17.1184C5.4893 17.0783 5.47856 17.0382 5.46749 16.9968C5.12616 15.6573 5.19102 13.9679 5.55943 12.6427C5.57506 12.5864 5.59069 12.53 5.6068 12.4719C5.94591 11.2932 6.4723 10.2032 7.2226 9.22713C7.26172 9.17529 7.30085 9.12344 7.34116 9.07002C8.92775 7.05695 11.2525 5.75112 13.8066 5.414C16.2972 5.12814 18.8233 5.77144 20.8249 7.28377C20.8772 7.32257 20.9295 7.36136 20.9834 7.40132C22.6041 8.65687 23.7681 10.3597 24.3443 12.3152C24.3582 12.3621 24.3721 12.409 24.3865 12.4574C24.6207 13.2952 24.7193 14.1133 24.7118 14.9799C24.7116 15.026 24.7114 15.0721 24.7111 15.1195C24.706 15.8839 24.654 16.6137 24.4482 17.3539C24.4326 17.4103 24.417 17.4667 24.4009 17.5247C24.0617 18.7035 23.5354 19.7934 22.7851 20.7695C22.7459 20.8214 22.7068 20.8732 22.6665 20.9266C21.7761 22.0564 20.6825 22.9435 19.3993 23.5962C19.3448 23.6243 19.3448 23.6243 19.2892 23.653C16.0772 25.2897 12.0409 24.8724 9.18276 22.7129Z" fill="#1C4942"/>
<path d="M15.2381 21.8312C15.5796 21.6521 15.7175 21.4339 15.8894 21.0971C15.9153 21.0479 15.9412 20.9987 15.9678 20.948C16.1451 20.5977 16.264 20.2492 16.3707 19.8729C16.5715 19.2226 16.7974 18.5337 17.3765 18.1211C18.3645 17.6863 19.572 17.6425 20.6387 17.5886C21.3239 17.5488 21.3239 17.5488 21.5938 17.2967C21.7189 17.1106 21.7315 17.0518 21.7349 16.8366C21.7366 16.7876 21.7382 16.7387 21.74 16.6882C21.6708 16.2914 21.3416 16.0412 21.0555 15.784C20.9666 15.7006 20.8777 15.6172 20.7889 15.5337C20.6147 15.3712 20.4387 15.2118 20.2582 15.0563C19.3196 14.3326 19.3196 14.3326 18.784 13.3531C18.8021 13.0947 18.8897 12.8595 18.9764 12.6166C19.1048 12.1949 19.163 11.7563 19.2346 11.3222C19.262 11.16 19.2914 10.9983 19.3214 10.8366C19.3398 10.7347 19.3582 10.6327 19.3766 10.5308C19.3854 10.4847 19.3942 10.4385 19.4034 10.391C19.4579 10.0791 19.477 9.77391 19.396 9.46436C19.2423 9.27678 19.1117 9.13239 18.8653 9.09233C18.3801 9.06504 18.0452 9.24988 17.6289 9.47908C17.5587 9.51659 17.4885 9.55399 17.4182 9.59129C17.24 9.68621 17.0626 9.78253 16.8855 9.87933C16.724 9.96737 16.5619 10.0543 16.3999 10.1414C16.1795 10.2599 15.9596 10.3792 15.74 10.4993C15.6939 10.5241 15.6479 10.5488 15.6004 10.5744C15.4938 10.6323 15.3887 10.6928 15.2838 10.7537C15.037 10.8514 14.8474 10.7955 14.6069 10.6942C14.5549 10.6669 14.5028 10.6396 14.4492 10.6116C14.39 10.5808 14.3308 10.55 14.2698 10.5184C14.2071 10.4851 14.1445 10.4519 14.0799 10.4176C14.0148 10.3836 13.9498 10.3496 13.8828 10.3146C13.3323 10.0258 12.7853 9.73045 12.2397 9.43261C12.1502 9.38427 12.0607 9.33595 11.9712 9.28769C11.9065 9.25254 11.8418 9.21739 11.7751 9.18118C11.5217 9.07027 11.2924 9.07168 11.0208 9.11102C10.8114 9.21111 10.7007 9.27606 10.5948 9.48198C10.4433 9.97186 10.6405 10.5977 10.7299 11.0912C10.7543 11.23 10.7788 11.3689 10.8032 11.5078C10.8416 11.724 10.8802 11.9402 10.919 12.1564C10.9566 12.3668 10.9936 12.5774 11.0306 12.7879C11.0424 12.8528 11.0542 12.9176 11.0664 12.9844C11.0769 13.0446 11.0874 13.1048 11.0982 13.1668C11.1077 13.2196 11.1171 13.2724 11.1269 13.3268C11.1453 13.5317 11.1254 13.6482 10.9951 13.8105C10.9405 13.8643 10.9405 13.8643 10.8847 13.9192C10.8435 13.9603 10.8022 14.0014 10.7597 14.0438C10.7147 14.0876 10.6697 14.1315 10.6234 14.1767C10.5771 14.2224 10.5309 14.2682 10.4832 14.3153C10.3851 14.4122 10.2868 14.5088 10.1882 14.6053C10.0387 14.7518 9.8897 14.8989 9.74085 15.0461C9.64525 15.1403 9.54962 15.2345 9.45395 15.3287C9.40982 15.3722 9.36568 15.4157 9.32021 15.4605C9.07556 15.6999 8.82579 15.9295 8.56423 16.1506C8.3852 16.3085 8.30153 16.4324 8.27015 16.6698C8.25778 16.9215 8.26258 17.076 8.39243 17.2967C8.61816 17.4956 8.81547 17.5503 9.11215 17.5943C9.18233 17.6049 9.25252 17.6155 9.32483 17.6264C9.40044 17.6374 9.47605 17.6484 9.55395 17.6597C9.63267 17.6714 9.71138 17.6831 9.79009 17.6948C9.95492 17.7193 10.1198 17.7436 10.2847 17.7676C10.4954 17.7983 10.706 17.8296 10.9166 17.861C11.0791 17.8853 11.2417 17.9093 11.4043 17.9332C11.5195 17.9502 11.6347 17.9673 11.7499 17.9845C11.8205 17.9947 11.8911 18.0049 11.9637 18.0155C12.0256 18.0245 12.0874 18.0336 12.151 18.0429C12.3302 18.0625 12.5039 18.0656 12.684 18.0623C12.7065 18.1355 12.7291 18.2088 12.7523 18.2843C12.8693 18.6312 13.0297 18.953 13.194 19.2798C13.242 19.3759 13.242 19.3759 13.291 19.4739C13.3584 19.6085 13.426 19.7429 13.4938 19.8773C13.5973 20.0829 13.6996 20.2891 13.8019 20.4952C13.8677 20.6263 13.9336 20.7573 13.9996 20.8883C14.03 20.9498 14.0604 21.0113 14.0917 21.0747C14.3417 21.5658 14.6265 21.9451 15.2381 21.8312ZM14.9411 19.3578C14.9269 19.3288 14.9127 19.2998 14.898 19.27C14.7495 18.9677 14.6 18.6659 14.4499 18.3643C14.394 18.2518 14.3385 18.1392 14.2831 18.0264C14.2034 17.8641 14.1228 17.7023 14.042 17.5405C14.0176 17.4902 13.9931 17.4399 13.9679 17.3881C13.8331 17.1205 13.7198 16.9295 13.4562 16.7667C13.2777 16.7133 13.2777 16.7133 13.0664 16.6783C13.0272 16.6716 12.9881 16.6649 12.9478 16.658C12.6592 16.6101 12.3695 16.5708 12.0798 16.5309C12.0051 16.5206 11.9304 16.5102 11.8535 16.4996C11.7029 16.4791 11.5523 16.459 11.4016 16.4396C11.3319 16.4302 11.2622 16.4209 11.1904 16.4113C11.1277 16.4031 11.065 16.395 11.0004 16.3866C10.83 16.3621 10.83 16.3621 10.6644 16.2367C10.6889 16.2127 10.7133 16.1888 10.7384 16.1641C10.9922 15.9151 11.2455 15.6657 11.4986 15.4161C11.5932 15.3229 11.6879 15.2299 11.7826 15.1369C11.9187 15.0035 12.0544 14.8696 12.19 14.7357C12.2326 14.6941 12.2751 14.6525 12.319 14.6096C12.3779 14.5513 12.3779 14.5513 12.4379 14.4918C12.4726 14.4576 12.5073 14.4235 12.543 14.3883C12.7278 14.1731 12.6982 13.9121 12.684 13.6455C12.6647 13.4827 12.6363 13.3222 12.606 13.1611C12.5981 13.1168 12.5902 13.0726 12.5821 13.027C12.557 12.8871 12.5315 12.7474 12.5058 12.6076C12.4802 12.4674 12.4547 12.3272 12.4295 12.1869C12.414 12.1001 12.3981 12.0133 12.3819 11.9266C12.3397 11.6917 12.3197 11.4695 12.3276 11.231C12.585 11.3098 12.8163 11.4089 13.055 11.5324C13.159 11.586 13.159 11.586 13.2651 11.6407C13.3186 11.6686 13.3186 11.6686 13.3732 11.697C13.4815 11.7534 13.59 11.8093 13.6985 11.8653C13.7679 11.9012 13.8373 11.9371 13.9089 11.9741C14.009 12.0257 14.009 12.0257 14.1112 12.0784C14.2496 12.1528 14.3781 12.2311 14.5089 12.3173C14.7853 12.4473 14.9973 12.4671 15.2975 12.4088C15.5759 12.301 15.8349 12.1624 16.0957 12.0187C16.164 11.9823 16.2324 11.946 16.3028 11.9085C16.5674 11.7673 16.8305 11.6235 17.093 11.4784C17.1517 11.4461 17.2104 11.4138 17.2709 11.3806C17.3229 11.3517 17.3749 11.3228 17.4285 11.2931C17.5489 11.2223 17.5489 11.2223 17.6735 11.231C17.6359 11.8408 17.532 12.4316 17.4198 13.0316C17.2486 13.9745 17.2486 13.9745 17.3812 14.2497C17.537 14.4701 17.7224 14.6507 17.9155 14.8392C17.9561 14.8793 17.9967 14.9194 18.0386 14.9607C18.1678 15.0882 18.2974 15.2152 18.4271 15.3423C18.515 15.4289 18.6029 15.5155 18.6908 15.6021C18.9058 15.8139 19.1211 16.0254 19.3366 16.2367C19.1679 16.3482 19.1103 16.3725 18.9203 16.3975C18.8727 16.4039 18.8251 16.4104 18.7761 16.4171C18.7249 16.4237 18.6736 16.4303 18.6208 16.437C18.5121 16.4519 18.4033 16.4669 18.2945 16.4818C18.1233 16.5047 17.952 16.5274 17.7807 16.55C17.6152 16.5719 17.4498 16.5946 17.2844 16.6174C17.2335 16.6238 17.1826 16.6303 17.1302 16.6369C16.4931 16.7253 16.4931 16.7253 16.2879 16.9837C16.2088 17.105 16.1382 17.2281 16.0697 17.3556C16.0485 17.3949 16.0272 17.4342 16.0054 17.4747C15.9419 17.5956 15.8806 17.7173 15.8198 17.8396C15.7978 17.8833 15.7758 17.9271 15.7532 17.9722C15.684 18.1101 15.6151 18.2481 15.5463 18.3861C15.499 18.4805 15.4517 18.5748 15.4044 18.6691C15.2893 18.8985 15.1745 19.1281 15.0599 19.3578C15.0207 19.3578 14.9815 19.3578 14.9411 19.3578Z" fill="#1C4942"/>
<path d="M19.7392 29.149C21.7326 28.4736 23.5151 27.4326 25.0694 26.0261C25.1692 25.9361 25.2697 25.847 25.3711 25.7588C25.6824 25.487 25.9605 25.2075 26.2263 24.8923C26.2744 24.838 26.3225 24.7837 26.372 24.7278C27.0474 23.9619 27.6221 23.1268 28.1271 22.2422C28.1489 22.2046 28.1707 22.1671 28.1931 22.1284C29.0551 20.6317 29.538 18.9818 29.8496 17.2955C29.8576 17.2534 29.8656 17.2112 29.8738 17.1678C29.9746 16.6133 29.985 16.054 29.9944 15.492C29.9965 15.42 29.9985 15.348 30.0006 15.2737C30.0033 14.6997 30.0033 14.6997 29.8257 14.4821C29.5842 14.2769 29.4212 14.2681 29.1099 14.2721C28.8552 14.3058 28.7687 14.3926 28.6023 14.5866C28.4827 14.9112 28.4677 15.2069 28.4612 15.5472C28.3675 18.1729 27.4602 20.7848 25.8699 22.89C25.844 22.9248 25.8181 22.9595 25.7914 22.9954C23.6651 25.8311 20.5054 27.6342 17.007 28.217C16.5034 28.2885 16.0056 28.3226 15.4973 28.3383C15.0985 28.3545 14.723 28.3698 14.406 28.6318C14.2568 28.837 14.2454 29.0372 14.2575 29.2848C14.306 29.5167 14.4106 29.6203 14.5842 29.7801C15.8374 30.4013 18.4978 29.5501 19.7392 29.149Z" fill="#1C4942"/>
<path d="M1.04254 15.7075C1.21422 15.6303 1.27105 15.562 1.39894 15.413C1.51854 15.0884 1.53357 14.7927 1.54001 14.4524C1.5796 13.3203 1.77467 12.1962 2.11172 11.1141C2.12569 11.0685 2.13967 11.0229 2.15407 10.976C2.92223 8.5184 4.46276 6.22883 6.50723 4.63622C6.56649 4.58893 6.62575 4.54164 6.68681 4.49291C8.87965 2.76006 11.7035 1.71234 14.5127 1.65212C14.9066 1.64214 15.2866 1.62063 15.5989 1.36785C15.7444 1.16284 15.7557 0.960261 15.7437 0.71477C15.6952 0.482904 15.5906 0.379305 15.417 0.219499C14.1614 -0.402934 11.4917 0.450763 10.25 0.856631C8.79803 1.35222 7.45099 2.03165 6.21023 2.92842C6.17571 2.95332 6.14119 2.97822 6.10562 3.00388C5.67692 3.31573 5.27822 3.6514 4.8907 4.01213C4.74291 4.14879 4.59226 4.28068 4.43941 4.41171C4.19471 4.62697 3.98478 4.85915 3.77488 5.10734C3.72672 5.16169 3.67856 5.21605 3.62894 5.27205C2.98159 6.00628 2.42178 6.80437 1.935 7.65144C1.87622 7.75373 1.81637 7.8554 1.75649 7.95705C0.923761 9.42696 0.456217 11.0554 0.151563 12.7041C0.14359 12.7462 0.135618 12.7884 0.127403 12.8318C0.0265803 13.3863 0.0162074 13.9456 0.00677857 14.5076C0.00472558 14.5796 0.00267258 14.6517 0.000557371 14.7259C-0.00213298 15.2999 -0.00213299 15.2999 0.175462 15.5175C0.447305 15.7485 0.693471 15.7537 1.04254 15.7075Z" fill="#1C4942"/>
</svg>
