<svg width="30" height="30" viewBox="0 0 30 30" fill="none" xmlns="http://www.w3.org/2000/svg">
<g clip-path="url(#clip0_298_353)">
<path d="M9.55021 -0.0118967C9.59336 -0.0123103 9.63652 -0.012724 9.68097 -0.0131501C11.4873 -0.0265345 11.4873 -0.0265345 12.3048 0.175786C12.3531 0.187428 12.4014 0.199069 12.4511 0.211063C15.1914 0.889671 17.6166 2.58557 19.0907 5.00977C19.8531 6.31168 20.4236 7.80934 20.4626 9.33129C20.4478 9.95543 20.4478 9.95543 20.7286 10.4718C20.9269 10.5761 20.9269 10.5761 21.1362 10.6492C21.4863 10.7831 21.6644 11.0464 21.83 11.371C21.9373 11.6268 21.9377 11.8634 21.9341 12.1376C21.9342 12.1897 21.9342 12.2417 21.9342 12.2954C21.9341 12.4663 21.9327 12.6371 21.9313 12.808C21.931 12.927 21.9308 13.0459 21.9306 13.1649C21.9299 13.4771 21.9282 13.7893 21.9262 14.1015C21.9244 14.4204 21.9236 14.7393 21.9228 15.0583C21.9209 15.6834 21.9179 16.3085 21.9142 16.9336C21.9466 16.9334 21.9789 16.9333 22.0123 16.9331C22.8022 16.9292 23.5921 16.9263 24.382 16.9245C24.764 16.9236 25.146 16.9223 25.528 16.9203C25.8969 16.9184 26.2658 16.9174 26.6347 16.9169C26.7752 16.9166 26.9157 16.916 27.0562 16.915C27.2535 16.9137 27.4508 16.9136 27.6481 16.9136C27.7345 16.9127 27.7345 16.9127 27.8227 16.9117C28.4267 16.9144 28.95 17.0656 29.4142 17.4609C29.8869 17.9484 30.027 18.4144 30.0208 19.0838C29.9903 19.6064 29.8297 20.1171 29.6987 20.6213C29.6675 20.7441 29.6364 20.8669 29.6054 20.9897C29.5405 21.2455 29.475 21.5012 29.409 21.7567C29.3245 22.0838 29.2412 22.4112 29.1584 22.7387C29.0943 22.9916 29.0298 23.2444 28.9652 23.4972C28.9343 23.6179 28.9036 23.7386 28.8729 23.8594C28.83 24.0279 28.7865 24.1962 28.7429 24.3645C28.7304 24.414 28.7179 24.4635 28.705 24.5145C28.6221 24.8313 28.5383 25.1337 28.3009 25.3711C27.895 25.4104 27.895 25.4104 27.6857 25.2795C27.5323 25.0303 27.584 24.7621 27.6459 24.4865C27.6682 24.397 27.691 24.3077 27.7142 24.2186C27.7266 24.1694 27.739 24.1203 27.7518 24.0697C27.7926 23.9083 27.8341 23.7471 27.8756 23.5858C27.9043 23.4731 27.9329 23.3604 27.9615 23.2477C28.0367 22.9514 28.1126 22.6553 28.1885 22.3592C28.2503 22.118 28.3116 21.8766 28.373 21.6353C28.5 21.1357 28.6272 20.6362 28.7552 20.1369C28.7668 20.0914 28.7785 20.0458 28.7904 19.9989C28.8419 19.7987 28.8948 19.5993 28.9524 19.4008C29.0482 19.063 29.0534 18.7628 28.9088 18.4387C28.7693 18.1904 28.5827 18.0399 28.308 17.9537C28.1675 17.9266 28.0377 17.9222 27.8946 17.922C27.8365 17.9218 27.7783 17.9215 27.7184 17.9213C27.6549 17.9213 27.5915 17.9213 27.5261 17.9214C27.459 17.9212 27.3919 17.921 27.3228 17.9208C27.1771 17.9203 27.0314 17.92 26.8856 17.9198C26.6552 17.9194 26.4247 17.9185 26.1943 17.9174C26.1153 17.917 26.0363 17.9166 25.9574 17.9163C25.9179 17.9161 25.8783 17.9159 25.8376 17.9157C25.3012 17.9132 24.7648 17.9113 24.2285 17.9106C23.8278 17.9101 23.4271 17.9083 23.0264 17.9058C22.8735 17.9051 22.7206 17.9048 22.5677 17.9049C22.3542 17.9051 22.1407 17.9038 21.9272 17.9022C21.8638 17.9025 21.8003 17.9029 21.735 17.9033C21.3188 17.8981 21.3188 17.8981 21.1132 17.7852C20.9952 17.5603 21.0028 17.3562 21.0051 17.1056C21.0045 17.0251 21.0045 17.0251 21.0039 16.943C21.0028 16.7655 21.0032 16.5881 21.0037 16.4106C21.0031 16.2871 21.0024 16.1636 21.0016 16.0402C20.9997 15.7148 20.9991 15.3895 20.9988 15.0642C20.9983 14.5441 20.9963 14.024 20.9934 13.5039C20.9927 13.3224 20.9928 13.1409 20.9929 12.9595C20.9925 12.8477 20.9921 12.7359 20.9916 12.6241C20.9919 12.5739 20.9921 12.5237 20.9924 12.472C20.9902 12.1549 20.9848 11.8158 20.7773 11.5581C20.5088 11.36 20.3267 11.3029 19.9941 11.2837C19.7578 11.3288 19.5808 11.4467 19.4402 11.643C19.3685 11.7675 19.304 11.8938 19.2408 12.0227C19.216 12.0717 19.1911 12.1206 19.1656 12.171C19.0844 12.3322 19.0049 12.494 18.9259 12.6563C18.8867 12.7367 18.8867 12.7367 18.8467 12.8187C18.7037 13.1133 18.5624 13.4088 18.4217 13.7045C18.1945 14.1816 17.9632 14.6567 17.732 15.1318C17.6464 15.3079 17.5608 15.484 17.4752 15.6601C17.4542 15.7034 17.4332 15.7466 17.4115 15.7912C17.2077 16.2107 17.0046 16.6307 16.8019 17.0508C16.773 17.1106 16.7441 17.1705 16.7144 17.2321C16.6536 17.3582 16.5936 17.4846 16.5344 17.6114C16.4384 17.812 16.3317 18.0047 16.2222 18.1982C15.6826 19.1842 15.5257 20.0023 15.5346 21.1326C15.5355 21.2981 15.5339 21.4635 15.5325 21.6289C15.529 22.0195 15.5294 22.4099 15.5325 22.8004C15.5355 23.2 15.532 23.5992 15.5255 23.9988C15.52 24.3459 15.5184 24.6929 15.5199 25.04C15.5208 25.2456 15.5203 25.451 15.516 25.6566C15.4769 26.6024 15.4769 26.6024 15.8598 27.4327C16.0976 27.6771 16.3589 27.876 16.6407 28.0664C16.7183 28.1223 16.7957 28.1784 16.873 28.2347C17.2876 28.5334 17.7377 28.7314 18.2228 28.8867C18.2654 28.9004 18.308 28.9141 18.3519 28.9282C19.0058 29.1129 19.7111 29.0712 20.3841 29.0703C20.4864 29.0703 20.5887 29.0704 20.691 29.0705C20.9055 29.0705 21.12 29.0704 21.3345 29.0701C21.5503 29.0699 21.7661 29.0699 21.9819 29.0701C22.7016 29.071 23.4211 29.0689 24.1407 29.0625C24.1881 29.0621 24.2354 29.0617 24.2842 29.0614C24.5515 29.0591 24.8187 29.0555 25.0859 29.0498C25.2037 29.0475 25.3214 29.0462 25.4392 29.045C25.8355 29.0345 26.1076 29.015 26.4259 28.7695C26.672 28.4387 26.7467 28.0714 26.8397 27.6746C26.868 27.5546 26.8967 27.4347 26.926 27.315C26.9383 27.2624 26.9506 27.2097 26.9633 27.1555C27.0157 27.0001 27.0794 26.8998 27.1876 26.7773C27.3439 26.7116 27.4883 26.7001 27.6564 26.7188C27.8321 26.8359 27.8321 26.8359 27.9493 27.0117C27.9855 27.3851 27.8893 27.7251 27.7955 28.0847C27.7817 28.1422 27.7679 28.1998 27.7536 28.259C27.5929 28.8818 27.3128 29.3946 26.7775 29.7656C26.3401 30.0014 25.9365 30.0338 25.447 30.0303C25.3747 30.0307 25.3025 30.0312 25.2281 30.0316C25.0316 30.0324 24.8351 30.0322 24.6386 30.0315C24.4315 30.0309 24.2243 30.0314 24.0172 30.0318C23.669 30.0322 23.3208 30.0317 22.9727 30.0306C22.5727 30.0293 22.1728 30.0297 21.7729 30.031C21.4274 30.0321 21.0819 30.0322 20.7363 30.0316C20.5309 30.0312 20.3256 30.0312 20.1202 30.0319C19.0802 30.0354 18.0756 30.0299 17.1241 29.5532C17.0834 29.5334 17.0427 29.5136 17.0008 29.4933C16.3786 29.1782 15.8608 28.7132 15.3517 28.2422C15.3233 28.2733 15.2949 28.3044 15.2656 28.3365C14.8044 28.8226 14.4243 28.9891 13.7557 29.0098C13.5243 29.0126 13.2929 29.0136 13.0615 29.0138C12.9755 29.0139 12.8896 29.0141 12.8037 29.0143C12.6241 29.0147 12.4445 29.0148 12.265 29.0148C12.0363 29.0148 11.8077 29.0156 11.5791 29.0166C11.4017 29.0172 11.2244 29.0173 11.047 29.0173C10.9628 29.0174 10.8785 29.0176 10.7943 29.0181C10.066 29.0217 9.42042 29.0172 8.86402 28.4999C8.44927 28.0536 8.41153 27.5854 8.41228 27C8.41139 26.8945 8.41139 26.8945 8.41047 26.7868C8.40901 26.5952 8.40831 26.4036 8.40796 26.212C8.40741 26.0113 8.40587 25.8105 8.40444 25.6098C8.40189 25.2303 8.40022 24.8507 8.39886 24.4712C8.39727 24.0389 8.3947 23.6065 8.39205 23.1742C8.38661 22.2854 8.38241 21.3966 8.37902 20.5078C8.33026 20.496 8.33026 20.496 8.28051 20.484C8.12987 20.4474 7.97933 20.4104 7.82879 20.3735C7.75213 20.3549 7.75213 20.3549 7.67392 20.336C5.64101 19.8344 3.65664 18.6415 2.34387 16.9922C2.29968 16.9378 2.25549 16.8834 2.20997 16.8274C0.433752 14.6063 -0.220914 11.8816 0.0271242 9.06945C0.157135 7.90254 0.506464 6.80475 0.99621 5.74219C1.02075 5.68699 1.02075 5.68699 1.04579 5.63067C1.5231 4.55927 2.30312 3.54819 3.16418 2.75391C3.20285 2.71645 3.24152 2.67898 3.28137 2.64039C3.46497 2.54285 3.60517 2.55269 3.80871 2.57813C3.98239 2.69696 4.03273 2.78273 4.10168 2.98096C4.10168 3.23169 4.02708 3.32389 3.8673 3.51563C3.80605 3.56929 3.7437 3.62171 3.68054 3.6731C2.36372 4.75738 1.54896 6.58131 1.17199 8.20313C1.1624 8.24188 1.15281 8.28063 1.14292 8.32055C0.84485 9.55964 0.873427 11.0694 1.17199 12.3047C1.18363 12.3535 1.19527 12.4024 1.20727 12.4527C1.80602 14.8867 3.27092 17.0169 5.40798 18.344C6.36081 18.9129 7.36436 19.247 8.43762 19.5117C8.4358 19.4172 8.4358 19.4172 8.43395 19.3208C8.44177 18.8527 8.63758 18.5587 8.9542 18.2217C9.35483 17.8577 9.79257 17.806 10.3203 17.8031C10.3606 17.8028 10.4009 17.8025 10.4423 17.8022C10.5746 17.8013 10.7068 17.8009 10.839 17.8006C10.8845 17.8004 10.93 17.8003 10.9769 17.8001C11.2177 17.7992 11.4585 17.7987 11.6992 17.7984C11.9465 17.7981 12.1938 17.7967 12.4411 17.795C12.6326 17.7939 12.824 17.7936 13.0154 17.7935C13.1065 17.7934 13.1976 17.7929 13.2887 17.7921C13.9722 17.7867 14.5285 17.8515 15.1173 18.2227C15.4859 17.4918 15.8503 16.7594 16.2017 16.0201C16.449 15.5005 16.7003 14.9828 16.952 14.4653C17.2003 13.955 17.4485 13.4446 17.695 12.9334C17.7227 12.8759 17.7227 12.8759 17.751 12.8172C17.8372 12.6383 17.9234 12.4595 18.0094 12.2805C18.0997 12.0931 18.1904 11.9059 18.2814 11.7188C18.3124 11.6542 18.3435 11.5897 18.3755 11.5233C18.4212 11.4296 18.4212 11.4296 18.4679 11.334C18.4949 11.2784 18.5219 11.2227 18.5497 11.1654C18.7758 10.7584 19.0946 10.5541 19.5118 10.3711C19.5988 8.13456 18.7077 5.8512 17.201 4.20777C17.0934 4.09328 16.9843 3.98025 16.8751 3.86719C16.8246 3.81296 16.7741 3.75873 16.722 3.70286C14.9953 1.89688 12.5288 1.03597 10.0782 0.937505C8.69296 0.910478 7.25623 1.28389 6.05202 1.96353C5.80175 2.10012 5.61585 2.1374 5.33215 2.10938C5.18933 2.02149 5.18933 2.02149 5.09777 1.87501C5.06208 1.71067 5.04706 1.56754 5.09777 1.40626C6.14071 0.409671 8.16155 -0.00298621 9.55021 -0.0118967ZM9.50329 19.0137C9.35727 19.1981 9.36743 19.3849 9.36649 19.6098C9.36607 19.679 9.36565 19.7483 9.36522 19.8196C9.36506 19.8957 9.36491 19.9718 9.36474 20.0501C9.36438 20.131 9.36399 20.2118 9.36358 20.2927C9.36235 20.5583 9.36174 20.8238 9.36115 21.0894C9.36092 21.1809 9.36068 21.2723 9.36043 21.3638C9.35931 21.7935 9.35848 22.2231 9.35799 22.6528C9.35742 23.1487 9.35588 23.6445 9.35351 24.1404C9.35174 24.5237 9.35087 24.9071 9.35068 25.2905C9.35054 25.5194 9.35002 25.7483 9.34855 25.9772C9.34718 26.1926 9.34693 26.408 9.34754 26.6235C9.34758 26.74 9.34646 26.8565 9.3453 26.973C9.34528 27.48 9.34528 27.48 9.60949 27.8906C9.99707 28.1461 10.4553 28.0919 10.904 28.0898C10.9905 28.0899 11.0769 28.09 11.1634 28.0903C11.344 28.0905 11.5247 28.0902 11.7053 28.0893C11.936 28.0883 12.1667 28.0889 12.3974 28.09C12.5758 28.0906 12.7541 28.0904 12.9325 28.0899C13.0175 28.0898 13.1025 28.09 13.1876 28.0904C13.7981 28.1026 13.7981 28.1026 14.3556 27.8906C14.5981 27.6353 14.6558 27.4441 14.6568 27.0984C14.6571 27.0311 14.6575 26.9638 14.6578 26.8945C14.6579 26.8206 14.6579 26.7467 14.658 26.6706C14.6583 26.5921 14.6586 26.5135 14.6589 26.435C14.6596 26.2216 14.66 26.0081 14.6603 25.7947C14.6605 25.6613 14.6607 25.5279 14.661 25.3945C14.6618 24.9771 14.6623 24.5597 14.6626 24.1423C14.6628 23.6607 14.6638 23.179 14.6655 22.6973C14.6668 22.3249 14.6674 21.9525 14.6675 21.5801C14.6675 21.3577 14.6679 21.1353 14.6689 20.913C14.6699 20.7037 14.67 20.4945 14.6695 20.2852C14.6694 20.1721 14.6702 20.0589 14.6711 19.9458C14.6729 19.4685 14.6729 19.4685 14.4728 19.043C14.1925 18.7837 13.9935 18.7427 13.6185 18.7406C13.5796 18.7403 13.5407 18.74 13.5007 18.7397C13.372 18.7388 13.2434 18.7384 13.1148 18.7381C13.0253 18.7378 12.9357 18.7374 12.8462 18.7371C12.6584 18.7365 12.4705 18.7361 12.2827 18.7359C12.0426 18.7356 11.8024 18.7342 11.5622 18.7325C11.3772 18.7314 11.1922 18.7311 11.0071 18.731C10.9186 18.7309 10.8301 18.7304 10.7416 18.7296C10.6175 18.7286 10.4934 18.7287 10.3693 18.7291C10.2988 18.7289 10.2283 18.7287 10.1556 18.7285C9.89624 18.7572 9.70384 18.8477 9.50329 19.0137Z" fill="#1C4942"/>
<path d="M10.8921 3.85164C11.2852 4.0879 11.4367 4.36243 11.6381 4.76442C11.6834 4.85277 11.6834 4.85277 11.7296 4.94289C11.8892 5.25627 12.043 5.57199 12.1924 5.89029C12.2355 5.98197 12.2355 5.98197 12.2795 6.0755C12.3343 6.19308 12.3885 6.31096 12.442 6.42915C12.4668 6.48253 12.4915 6.53591 12.517 6.5909C12.5383 6.63786 12.5596 6.68482 12.5815 6.73321C12.691 6.9127 12.8162 7.01089 13.0201 7.0668C13.0671 7.07316 13.1141 7.07953 13.1625 7.08609C13.2429 7.09753 13.2429 7.09753 13.3249 7.10921C13.4112 7.12048 13.4112 7.12048 13.4993 7.13198C13.559 7.14042 13.6187 7.14885 13.6802 7.15755C13.871 7.18447 14.0619 7.2105 14.2528 7.23635C14.4429 7.26225 14.6329 7.28837 14.8229 7.31515C14.941 7.33178 15.0592 7.34792 15.1774 7.36348C15.6846 7.4347 16.1508 7.53909 16.489 7.95298C16.7541 8.34774 16.7809 8.79646 16.6991 9.25783C16.5178 9.63991 16.2339 9.91172 15.9268 10.1942C15.834 10.2826 15.7412 10.371 15.6485 10.4596C15.5036 10.5973 15.3582 10.7342 15.211 10.8695C14.6489 11.3496 14.6489 11.3496 14.2995 11.9759C14.3119 12.1775 14.3557 12.3457 14.4139 12.5391C14.4372 12.6623 14.4564 12.7858 14.4757 12.9096C14.5181 13.1777 14.5691 13.4444 14.6185 13.7113C14.8844 15.1571 14.8844 15.1571 14.4945 15.802C14.2034 16.0854 13.8542 16.2764 13.4431 16.2946C12.9456 16.2753 12.4943 16.0149 12.0665 15.7837C12.0081 15.7529 11.9498 15.722 11.8896 15.6903C11.6153 15.5451 11.3428 15.3973 11.0725 15.2447C11.0279 15.2199 10.9833 15.1952 10.9374 15.1696C10.8553 15.1239 10.7737 15.0772 10.6928 15.0295C10.4188 14.8774 10.2628 14.877 9.96082 14.9414C9.76804 15.0205 9.76804 15.0205 9.5779 15.125C9.54271 15.1434 9.50752 15.1619 9.47126 15.1809C9.35947 15.2397 9.24815 15.2993 9.13684 15.3589C9.06382 15.3976 8.99077 15.4362 8.91769 15.4747C8.88158 15.4938 8.84547 15.5128 8.80827 15.5324C8.75417 15.561 8.75417 15.561 8.69899 15.5901C8.64505 15.6186 8.64505 15.6186 8.59003 15.6477C8.33197 15.784 8.07308 15.9185 7.81276 16.0504C7.7475 16.0835 7.68223 16.1167 7.61499 16.1509C7.27242 16.3079 6.97493 16.3213 6.61365 16.214C6.20964 16.0591 5.9046 15.7447 5.72009 15.3589C5.63423 14.9296 5.69418 14.5138 5.77319 14.0879C5.7823 14.0365 5.7914 13.985 5.80078 13.932C5.82961 13.7691 5.85901 13.6064 5.88855 13.4436C5.91807 13.2807 5.94744 13.1177 5.97632 12.9546C5.9942 12.8537 6.01243 12.7528 6.03109 12.652C6.09358 12.2992 6.1506 11.9483 6.03503 11.6016C5.95816 11.5601 5.87984 11.5213 5.80066 11.4844C5.70509 11.4045 5.70509 11.4045 5.61103 11.3118C5.57544 11.2769 5.53985 11.2421 5.50318 11.2062C5.46539 11.1685 5.4276 11.1309 5.38867 11.0921C5.34924 11.0531 5.30981 11.014 5.26919 10.9738C5.1859 10.8911 5.10278 10.8082 5.0198 10.7253C4.89352 10.5992 4.76634 10.4742 4.63908 10.3491C4.55808 10.2685 4.47713 10.1878 4.39624 10.107C4.35845 10.07 4.32067 10.0331 4.28173 9.99503C3.99484 9.70523 3.78374 9.41238 3.71875 9.00331C3.72409 8.46407 3.80464 8.13285 4.18567 7.74538C4.62791 7.39718 5.24888 7.37367 5.7915 7.29906C5.84217 7.29209 5.89283 7.28511 5.94503 7.27793C6.15555 7.24921 6.36608 7.22071 6.57685 7.19392C6.73272 7.17393 6.88832 7.15239 7.04395 7.1306C7.09131 7.12498 7.13868 7.11935 7.18748 7.11355C7.49736 7.06859 7.65201 6.99479 7.85144 6.7383C7.95585 6.5693 7.95585 6.5693 8.04301 6.38376C8.0767 6.31541 8.11039 6.24706 8.1451 6.17664C8.16235 6.14093 8.17959 6.10523 8.19737 6.06844C8.25116 5.95714 8.30571 5.84626 8.36047 5.73544C8.51511 5.42192 8.66759 5.10744 8.81709 4.79143C8.84787 4.72734 8.84787 4.72734 8.87928 4.66196C8.9311 4.55373 8.98184 4.44498 9.03247 4.33619C9.44776 3.65958 10.2086 3.52845 10.8921 3.85164ZM9.84363 4.8633C9.73385 5.05152 9.63855 5.24623 9.54288 5.44191C9.51487 5.49825 9.48687 5.55459 9.45802 5.61263C9.36883 5.79233 9.28029 5.97234 9.19177 6.15236C9.13177 6.27354 9.07173 6.39469 9.01164 6.51583C8.87937 6.78267 8.74751 7.04971 8.61602 7.31694C8.59574 7.35802 8.57546 7.3991 8.55457 7.44143C8.53455 7.48417 8.51454 7.52691 8.49393 7.57094C8.41707 7.71346 8.35372 7.73349 8.203 7.79299C8.13595 7.82109 8.06889 7.84919 7.9998 7.87815C7.70463 7.98832 7.40759 8.02733 7.09636 8.06742C6.97371 8.08445 6.85107 8.1015 6.72843 8.11857C6.53676 8.14461 6.34506 8.17035 6.15329 8.19566C5.96704 8.22046 5.78097 8.24641 5.59489 8.2725C5.53764 8.27971 5.48038 8.28692 5.42139 8.29435C5.00401 8.35104 5.00401 8.35104 4.68738 8.6133C4.64655 8.81296 4.63668 8.94433 4.74979 9.12088C4.8396 9.22426 4.93435 9.31807 5.03391 9.4121C5.08728 9.46481 5.08728 9.46481 5.14173 9.51858C5.25546 9.63042 5.37056 9.74073 5.48572 9.85109C5.56187 9.92569 5.63794 10.0004 5.71391 10.0752C6.1073 10.4625 6.1073 10.4625 6.52234 10.8261C6.66548 10.9453 6.75121 11.0399 6.84436 11.1988C6.8677 11.2376 6.89104 11.2764 6.91508 11.3164C7.25633 11.9663 6.94899 12.9117 6.82239 13.5901C6.79214 13.7527 6.76211 13.9152 6.73281 14.078C6.71472 14.1784 6.6961 14.2788 6.67687 14.3791C6.6296 14.6415 6.61016 14.8542 6.67957 15.1172C6.76284 15.2322 6.82605 15.2796 6.95422 15.3381C7.15958 15.3585 7.30567 15.2629 7.48157 15.1685C7.52102 15.148 7.56048 15.1276 7.60113 15.1065C7.6913 15.0597 7.78129 15.0125 7.87115 14.9651C8.04783 14.872 8.22506 14.78 8.40236 14.6881C8.65852 14.5552 8.91448 14.422 9.17026 14.2884C9.22699 14.259 9.28372 14.2296 9.34218 14.1993C9.45873 14.1385 9.57445 14.0761 9.68982 14.0131C10.0559 13.8518 10.4384 13.8825 10.8077 14.0215C11.0062 14.116 11.1979 14.2225 11.3897 14.3297C11.6782 14.4886 11.9711 14.639 12.2634 14.7905C12.3688 14.8454 12.474 14.9007 12.579 14.9561C12.6445 14.9904 12.71 15.0247 12.7774 15.06C12.8359 15.0908 12.8944 15.1215 12.9546 15.1532C13.1273 15.2355 13.2913 15.303 13.4764 15.3516C13.649 15.2749 13.7429 15.2289 13.828 15.0586C13.8242 14.4332 13.6791 13.8079 13.5648 13.1953C13.2862 11.6929 13.2862 11.6929 13.6522 11.1328C13.8025 10.9559 13.9668 10.7963 14.1345 10.6359C14.1808 10.5905 14.2272 10.545 14.2749 10.4982C14.422 10.3539 14.5699 10.2104 14.7179 10.0672C14.9135 9.87778 15.1083 9.68765 15.3027 9.49701C15.3478 9.45386 15.3929 9.4107 15.4394 9.36623C15.4808 9.32554 15.5223 9.28484 15.565 9.24291C15.6017 9.2075 15.6383 9.17209 15.676 9.13561C15.78 8.99938 15.8044 8.90013 15.8202 8.73049C15.7681 8.56556 15.7681 8.56556 15.6444 8.43752C15.4673 8.36851 15.4673 8.36851 15.2578 8.34047C15.2193 8.33381 15.1807 8.32715 15.141 8.32028C15.016 8.29922 14.8909 8.28024 14.7655 8.26174C14.7241 8.25545 14.6827 8.24916 14.64 8.24268C14.2976 8.19104 13.9547 8.14351 13.6116 8.09754C12.2859 7.91883 12.2859 7.91883 11.8944 7.44143C11.7309 7.16905 11.5947 6.88593 11.4586 6.59914C11.42 6.51965 11.3812 6.44021 11.3424 6.36082C11.2324 6.13555 11.1239 5.90963 11.0155 5.68361C10.9426 5.53261 10.8694 5.38173 10.7955 5.2312C10.7579 5.15456 10.7208 5.07769 10.6842 5.00054C10.5948 4.81727 10.5461 4.74568 10.371 4.62893C10.0987 4.58704 10.0156 4.65689 9.84363 4.8633Z" fill="#1C4942"/>
<path d="M12.3039 20.9181C12.4454 21.0596 12.4385 21.1013 12.4394 21.2953C12.4404 21.3411 12.4414 21.387 12.4424 21.4342C12.4159 21.5941 12.376 21.6443 12.2453 21.7384C11.8473 21.7826 11.8473 21.7826 11.6301 21.6468C11.5089 21.4499 11.5138 21.3212 11.5422 21.0939C11.6204 20.9452 11.6735 20.8809 11.8242 20.8082C12.0052 20.7979 12.1376 20.8494 12.3039 20.9181Z" fill="#1C4942"/>
</g>
<defs>
<clipPath id="clip0_298_353">
<rect width="30" height="30" fill="white"/>
</clipPath>
</defs>
</svg>
