<svg width="24" height="24" viewBox="0 0 24 24" fill="none" xmlns="http://www.w3.org/2000/svg">
<g clip-path="url(#clip0_142_15868)">
<path d="M2.57171 10.2861H4.28599C4.51332 10.2861 4.73134 10.3764 4.89208 10.5372C5.05283 10.6979 5.14314 10.9159 5.14314 11.1433V15.429C5.14314 15.6563 5.05283 15.8743 4.89208 16.0351C4.73134 16.1958 4.51332 16.2861 4.28599 16.2861H2.57171C2.11705 16.2861 1.68102 16.1055 1.35952 15.784C1.03803 15.4625 0.857422 15.0265 0.857422 14.5718V12.0004C0.857422 11.5458 1.03803 11.1097 1.35952 10.7882C1.68102 10.4667 2.11705 10.2861 2.57171 10.2861V10.2861Z" stroke="#24544B" stroke-width="1.5" stroke-linecap="round" stroke-linejoin="round"/>
<path d="M21.4293 16.2861H19.715C19.4877 16.2861 19.2696 16.1958 19.1089 16.0351C18.9481 15.8743 18.8578 15.6563 18.8578 15.429V11.1433C18.8578 10.9159 18.9481 10.6979 19.1089 10.5372C19.2696 10.3764 19.4877 10.2861 19.715 10.2861H21.4293C21.8839 10.2861 22.32 10.4667 22.6415 10.7882C22.9629 11.1097 23.1436 11.5458 23.1436 12.0004V14.5718C23.1436 15.0265 22.9629 15.4625 22.6415 15.784C22.32 16.1055 21.8839 16.2861 21.4293 16.2861V16.2861Z" stroke="#24544B" stroke-width="1.5" stroke-linecap="round" stroke-linejoin="round"/>
<path d="M16.2861 21.0004C17.1954 21.0004 18.0675 20.6392 18.7105 19.9962C19.3535 19.3532 19.7147 18.4812 19.7147 17.5718V16.2861" stroke="#24544B" stroke-width="1.5" stroke-linecap="round" stroke-linejoin="round"/>
<path d="M14.143 18.8574C14.7113 18.8574 15.2564 19.0832 15.6582 19.4851C16.0601 19.8869 16.2859 20.432 16.2859 21.0003C16.2859 21.5686 16.0601 22.1136 15.6582 22.5155C15.2564 22.9174 14.7113 23.1431 14.143 23.1431H11.5716C11.0032 23.1431 10.4582 22.9174 10.0563 22.5155C9.65448 22.1136 9.42871 21.5686 9.42871 21.0003C9.42871 20.432 9.65448 19.8869 10.0563 19.4851C10.4582 19.0832 11.0032 18.8574 11.5716 18.8574H14.143Z" stroke="#24544B" stroke-width="1.5" stroke-linecap="round" stroke-linejoin="round"/>
<path d="M4.28613 10.286V8.57171C4.28613 6.52575 5.09889 4.56359 6.54559 3.11688C7.9923 1.67017 9.95446 0.857422 12.0004 0.857422C14.0464 0.857422 16.0085 1.67017 17.4552 3.11688C18.902 4.56359 19.7147 6.52575 19.7147 8.57171V10.286" stroke="#24544B" stroke-width="1.5" stroke-linecap="round" stroke-linejoin="round"/>
<path d="M9.42871 6.85742V9.42885" stroke="#24544B" stroke-width="1.5" stroke-linecap="round" stroke-linejoin="round"/>
<path d="M14.5713 6.85742V9.42885" stroke="#24544B" stroke-width="1.5" stroke-linecap="round" stroke-linejoin="round"/>
<path d="M9.42871 12.8574C9.42871 15.1374 14.5716 15.1374 14.5716 12.8574" stroke="#24544B" stroke-width="1.5" stroke-linecap="round" stroke-linejoin="round"/>
</g>
<defs>
<clipPath id="clip0_142_15868">
<rect width="24" height="24" fill="white"/>
</clipPath>
</defs>
</svg>
