<svg width="30" height="30" viewBox="0 0 30 30" fill="none" xmlns="http://www.w3.org/2000/svg">
<path d="M20.3576 3.21411H23.5718C24.1402 3.21411 24.6852 3.43988 25.0871 3.84174C25.4889 4.2436 25.7147 4.78865 25.7147 5.35697V26.7855C25.7147 27.3539 25.4889 27.8989 25.0871 28.3008C24.6852 28.7026 24.1402 28.9284 23.5718 28.9284H6.42899C5.86067 28.9284 5.31562 28.7026 4.91376 28.3008C4.5119 27.8989 4.28613 27.3539 4.28613 26.7855V5.35697C4.28613 4.78865 4.5119 4.2436 4.91376 3.84174C5.31562 3.43988 5.86067 3.21411 6.42899 3.21411H9.64328" stroke="#24544B" stroke-width="2" stroke-linecap="round" stroke-linejoin="round"/>
<path d="M18.215 1.07129H11.7864C10.6029 1.07129 9.64355 2.03068 9.64355 3.21415V4.28557C9.64355 5.46904 10.6029 6.42843 11.7864 6.42843H18.215C19.3984 6.42843 20.3578 5.46904 20.3578 4.28557V3.21415C20.3578 2.03068 19.3984 1.07129 18.215 1.07129Z" stroke="#24544B" stroke-width="2" stroke-linecap="round" stroke-linejoin="round"/>
<path d="M9.64355 11.7856H20.3578" stroke="#24544B" stroke-width="2" stroke-linecap="round" stroke-linejoin="round"/>
<path d="M9.64355 17.1426H20.3578" stroke="#24544B" stroke-width="2" stroke-linecap="round" stroke-linejoin="round"/>
<path d="M9.64355 22.5H20.3578" stroke="#24544B" stroke-width="2" stroke-linecap="round" stroke-linejoin="round"/>
</svg>
