<svg width="30" height="30" viewBox="0 0 30 30" fill="none" xmlns="http://www.w3.org/2000/svg">
<g clip-path="url(#clip0_253_261)">
<path d="M7.5003 2.28512C8.02626 2.73275 8.51226 3.22811 9.00108 3.71541C9.05559 3.76966 9.05559 3.76966 9.11119 3.82502C9.30292 4.01587 9.49449 4.20689 9.68591 4.39806C9.88197 4.5938 10.0786 4.78899 10.2753 4.98406C10.4283 5.13593 10.5808 5.2882 10.7333 5.44057C10.8056 5.51269 10.878 5.58465 10.9506 5.65646C11.7658 6.46357 12.3718 7.24317 12.4222 8.43747C12.3549 9.8163 11.3026 10.7401 10.386 11.6528C10.3053 11.7339 10.3053 11.7339 10.2229 11.8167C10.1707 11.8688 10.1185 11.9209 10.0647 11.9746C10.018 12.0212 9.97138 12.0678 9.9233 12.1158C9.78546 12.2461 9.64221 12.3641 9.49249 12.4804C9.52671 12.775 9.66081 13.0027 9.80377 13.2568C9.82956 13.3029 9.85534 13.349 9.88191 13.3964C10.2903 14.1114 10.7795 14.7802 11.3089 15.4101C11.3455 15.4541 11.3455 15.4541 11.3829 15.4989C12.0949 16.3518 12.8455 17.2045 13.6904 17.9285C13.7948 18.018 13.8983 18.1087 14.0012 18.2C14.7831 18.8888 15.6182 19.5213 16.5237 20.039C16.5575 20.0588 16.5912 20.0785 16.6259 20.0988C16.7293 20.1592 16.8333 20.2183 16.9376 20.2771C16.9987 20.3116 17.0598 20.3461 17.1227 20.3817C17.3037 20.4568 17.3426 20.4576 17.5198 20.3906C17.626 20.3086 17.626 20.3086 17.7254 20.2022C17.7645 20.1625 17.8037 20.1227 17.844 20.0818C17.9067 20.0169 17.9068 20.0169 17.9707 19.9507C18.0145 19.9062 18.0583 19.8618 18.1035 19.8159C18.2907 19.6259 18.4769 19.4348 18.6631 19.2437C18.7994 19.1042 18.9362 18.9653 19.073 18.8264C19.1347 18.7626 19.1347 18.7626 19.1976 18.6975C19.5836 18.3059 20.0105 17.9637 20.5264 17.7612C20.583 17.7384 20.6396 17.7156 20.6979 17.6921C21.4413 17.4376 22.229 17.5562 22.9251 17.8894C23.1853 18.0438 23.4051 18.2238 23.6239 18.4311C23.6607 18.4658 23.6975 18.5004 23.7354 18.5361C24.3371 19.107 24.9219 19.6957 25.5083 20.2822C25.6848 20.4588 25.8617 20.6349 26.0387 20.8109C26.177 20.9485 26.3151 21.0864 26.453 21.2244C26.5181 21.2895 26.5833 21.3544 26.6486 21.4192C27.4605 22.226 28.1722 23.0255 28.2022 24.2175C28.1809 25.4823 27.4189 26.3281 26.5662 27.1863C26.5141 27.2389 26.462 27.2915 26.4084 27.3457C26.299 27.4559 26.1895 27.5659 26.0798 27.6758C25.9688 27.7871 25.8583 27.8989 25.7482 28.0111C24.5693 29.2111 24.5693 29.2111 23.9066 29.5312C23.8461 29.5605 23.7857 29.5898 23.7234 29.6199C21.9831 30.4239 19.8536 29.9854 18.1058 29.414C18.0549 29.3974 18.0041 29.3808 17.9517 29.3637C14.4835 28.2096 11.2236 26.0904 8.55499 23.6133C8.48977 23.5534 8.42453 23.4936 8.3593 23.4338C6.86649 22.0592 6.86649 22.0592 6.27533 21.3043C6.13688 21.1328 5.9884 20.9724 5.83771 20.8117C5.48816 20.4358 5.17453 20.0369 4.86359 19.6289C4.83034 19.5857 4.7971 19.5424 4.76285 19.4979C3.41035 17.7381 2.25281 15.8569 1.34796 13.8281C1.32017 13.7673 1.29237 13.7065 1.26373 13.6438C0.281847 11.4373 -0.532393 8.77807 0.307922 6.40133C0.669735 5.52157 1.30694 4.89921 1.97086 4.24143C2.15054 4.06293 2.32719 3.88519 2.49054 3.69137C3.79506 2.15822 5.57511 0.940689 7.5003 2.28512ZM4.6878 4.04294C4.3433 4.3697 4.00724 4.70521 3.6704 5.03983C3.56264 5.14662 3.45457 5.25309 3.34619 5.35924C3.18826 5.51393 3.03135 5.66958 2.8746 5.82547C2.82662 5.87212 2.77864 5.91877 2.7292 5.96684C2.01037 6.68832 1.74214 7.54768 1.74367 8.55013C1.75826 9.50125 1.99647 10.4079 2.28546 11.3086C2.3028 11.3633 2.32013 11.4181 2.33799 11.4746C2.97084 13.4401 3.98156 15.3007 5.15655 16.9922C5.18145 17.0281 5.20635 17.0641 5.232 17.1012C5.79514 17.9114 6.39663 18.6979 7.03156 19.4531C7.06988 19.4989 7.06988 19.4989 7.10897 19.5456C7.9155 20.5071 8.76882 21.471 9.72824 22.2834C9.87386 22.4083 10.0142 22.5385 10.1553 22.6684C10.4723 22.9565 10.7968 23.231 11.1331 23.4961C11.174 23.5285 11.2149 23.561 11.257 23.5944C14.186 25.9089 18.2966 28.5678 22.2073 28.2422C22.9923 28.128 23.6907 27.6507 24.1911 27.0497C24.3913 26.8185 24.6048 26.6036 24.8225 26.3891C24.8579 26.3542 24.8933 26.3193 24.9297 26.2834C25.0775 26.1377 25.2255 25.9922 25.374 25.8473C25.4836 25.7402 25.5925 25.6326 25.7014 25.5249C25.7345 25.4929 25.7676 25.4609 25.8017 25.4279C26.1294 25.1023 26.4044 24.748 26.4444 24.2761C26.4227 23.422 25.3671 22.6603 24.7999 22.0882C24.7656 22.0537 24.7314 22.0191 24.6961 21.9835C24.5156 21.8014 24.3348 21.6195 24.1539 21.4377C24.0056 21.2886 23.8577 21.1391 23.7102 20.9892C23.53 20.8062 23.3491 20.6238 23.1677 20.442C23.0994 20.3733 23.0314 20.3044 22.9636 20.2352C22.376 19.6062 22.376 19.6062 21.5921 19.3267C21.0124 19.3519 20.6479 19.76 20.2689 20.1521C20.1661 20.2566 20.0633 20.361 19.9605 20.4654C19.8003 20.6293 19.6402 20.7934 19.4804 20.9576C19.325 21.1169 19.169 21.2754 19.0128 21.4338C18.9424 21.5069 18.9424 21.5069 18.8705 21.5815C18.5288 21.9275 18.1611 22.2462 17.6826 22.375C17.0814 22.3767 16.6286 22.1376 16.1136 21.8554C16.0462 21.8192 16.0462 21.8192 15.9775 21.7823C14.7348 21.1092 13.6014 20.2456 12.5632 19.2888C12.4446 19.1806 12.3242 19.0756 12.2027 18.9708C11.9416 18.7429 11.6961 18.5013 11.4517 18.2556C11.4098 18.2139 11.3678 18.1721 11.3246 18.1291C11.0533 17.8574 10.7973 17.5763 10.5472 17.2851C10.4929 17.2237 10.4386 17.1624 10.3842 17.1011C7.6076 13.9416 7.6076 13.9416 7.58636 12.2344C7.66764 11.8059 7.9088 11.51 8.21808 11.217C8.2651 11.1708 8.2651 11.1708 8.31306 11.1237C8.483 10.9584 8.65787 10.8005 8.83743 10.6457C9.11893 10.4012 9.38265 10.1401 9.6463 9.87668C9.69434 9.82936 9.74238 9.78204 9.79187 9.73328C10.421 9.12815 10.421 9.12815 10.6644 8.32028C10.5808 7.5546 9.66959 6.90498 9.15306 6.38691C9.1152 6.34889 9.07733 6.31086 9.03832 6.27167C8.83862 6.0711 8.63875 5.87068 8.43873 5.67041C8.23285 5.46421 8.02752 5.25746 7.82231 5.05059C7.66351 4.8907 7.50432 4.7312 7.34502 4.57181C7.26911 4.49573 7.19335 4.41951 7.11775 4.34313C7.01221 4.23658 6.90612 4.13061 6.79988 4.02475C6.7691 3.99343 6.73832 3.96211 6.70661 3.92984C5.99807 3.22919 5.33787 3.43734 4.6878 4.04294Z" fill="#1B4B36"/>
</g>
<defs>
<clipPath id="clip0_253_261">
<rect width="30" height="30" fill="white"/>
</clipPath>
</defs>
</svg>
