<svg width="60" height="60" viewBox="0 0 60 60" fill="none" xmlns="http://www.w3.org/2000/svg">
<g clip-path="url(#clip0_457_19)">
<path d="M14.9986 0.469124C15.0895 0.518824 15.1804 0.568523 15.2741 0.619728C15.9696 1.03725 16.4191 1.56193 16.8736 2.22694C16.9436 2.32845 17.0137 2.42996 17.086 2.53455C17.5757 3.51397 17.5767 4.55117 17.5767 5.62537C23.1454 5.62537 28.7142 5.62537 34.4517 5.62537C34.4517 5.12264 34.4517 4.61991 34.4517 4.10194C34.7393 2.64779 35.36 1.58891 36.5611 0.703499C37.7378 -0.0539203 39.0904 -0.156284 40.4356 0.13221C41.6721 0.471453 42.6921 1.29709 43.336 2.40272C43.7515 3.16285 43.8616 3.88889 43.8413 4.73914C43.8403 4.82487 43.8392 4.9106 43.8381 4.99892C43.8354 5.20776 43.8312 5.41657 43.8267 5.62537C43.9626 5.6284 44.0986 5.63142 44.2387 5.63453C46.4554 5.70564 48.1208 6.34857 49.6861 7.96912C50.6535 9.08148 51.2322 10.5619 51.2186 12.0404C51.2177 12.1748 51.2168 12.3092 51.2159 12.4476C51.2144 12.594 51.2128 12.7403 51.2112 12.8911C51.2101 13.0477 51.2089 13.2042 51.2079 13.3608C51.2062 13.6106 51.2045 13.8605 51.2026 14.1104C51.1979 14.7301 51.1954 15.3497 51.1944 15.9694C51.1943 16.0595 51.1941 16.1496 51.1939 16.2424C51.1934 16.6138 51.1929 16.9853 51.1925 17.3567C51.1911 18.4097 51.1875 19.4626 51.177 20.5156C51.1686 21.3529 51.1652 22.1902 51.1676 23.0276C51.1687 23.4703 51.1673 23.9127 51.1599 24.3554C51.1529 24.7722 51.1526 25.1886 51.1573 25.6054C51.1581 25.8299 51.152 26.0543 51.1456 26.2787C51.1583 26.9053 51.1831 27.2736 51.6294 27.7356C51.9871 28.0041 52.3544 28.2392 52.7329 28.4769C53.1375 28.8142 53.5214 29.1705 53.9048 29.5316C53.9799 29.5991 54.055 29.6667 54.1323 29.7362C56.6146 32.063 58.3207 35.4645 58.9439 38.7894C58.9645 38.8975 58.9851 39.0056 59.0063 39.1169C59.1855 40.1502 59.2203 41.1649 59.2149 42.2098C59.2145 42.3374 59.2145 42.3374 59.2142 42.4675C59.2087 43.7687 59.1483 45.0239 58.8267 46.2894C58.8066 46.3713 58.7865 46.4533 58.7657 46.5377C58.0821 49.254 56.7752 51.7784 54.9595 53.9066C54.8324 54.0584 54.8324 54.0584 54.7027 54.2133C53.3023 55.8412 51.4669 57.1411 49.5689 58.1254C49.4334 58.1962 49.2979 58.2671 49.1583 58.3401C48.3482 58.7482 47.5207 59.0605 46.6538 59.3265C46.5656 59.354 46.4773 59.3814 46.3864 59.4097C44.7546 59.8856 43.1391 60.066 41.4463 60.0516C41.3573 60.0513 41.2683 60.051 41.1767 60.0507C39.7491 60.043 38.4077 59.927 37.0298 59.5316C36.9484 59.5097 36.8669 59.4877 36.783 59.4651C33.8878 58.6802 31.3842 57.2281 29.1879 55.192C29.1016 55.1135 29.1016 55.1135 29.0136 55.0334C28.8267 54.8441 28.8267 54.8441 28.6328 54.5838C28.2472 54.1082 27.9481 53.8288 27.3404 53.693C26.8014 53.6446 26.2628 53.6565 25.7223 53.6664C25.5149 53.6663 25.3074 53.6657 25.1 53.6647C24.6547 53.6636 24.2096 53.6658 23.7643 53.6706C23.0588 53.6781 22.3534 53.6782 21.6479 53.6773C20.5306 53.6768 19.4135 53.6812 18.2962 53.6878C16.299 53.6995 14.3017 53.7044 12.3043 53.705C11.6046 53.7054 10.9049 53.7085 10.2051 53.7139C9.76765 53.7168 9.3302 53.7179 8.89274 53.7184C8.69165 53.7191 8.49056 53.7206 8.28948 53.723C6.0561 53.7488 4.28582 53.2997 2.61421 51.7277C1.57033 50.6451 0.805999 49.1754 0.803136 47.648C0.802614 47.5186 0.802092 47.3892 0.801554 47.2559C0.801576 47.1138 0.801597 46.9717 0.801619 46.8252C0.801188 46.6742 0.800758 46.5232 0.800314 46.3676C0.799141 45.948 0.798704 45.5285 0.798393 45.1089C0.797935 44.6565 0.796813 44.2041 0.79579 43.7517C0.793474 42.6588 0.792294 41.566 0.791252 40.4731C0.790738 39.9582 0.790109 39.4432 0.789495 38.9283C0.787501 37.216 0.785803 35.5037 0.784954 33.7914C0.78473 33.3471 0.784505 32.9027 0.784276 32.4584C0.784219 32.348 0.784163 32.2376 0.784104 32.1238C0.783132 30.3361 0.780164 28.5483 0.776356 26.7606C0.772477 24.9243 0.77037 23.088 0.769996 21.2516C0.769743 20.221 0.768722 19.1903 0.765723 18.1597C0.763174 17.2816 0.762238 16.4036 0.763375 15.5256C0.763906 15.078 0.763694 14.6304 0.761411 14.1829C0.758951 13.6964 0.760168 13.21 0.761708 12.7235C0.760423 12.5837 0.759137 12.444 0.757812 12.2999C0.770435 10.6411 1.33021 8.94198 2.4746 7.70545C3.94614 6.32915 5.62885 5.62294 7.65236 5.61073C7.75629 5.61556 7.86022 5.62039 7.9673 5.62537C7.96458 5.54592 7.96187 5.46646 7.95906 5.38459C7.92693 3.72754 8.30937 2.40642 9.46236 1.17728C10.9058 -0.137884 13.271 -0.53186 14.9986 0.469124ZM11.0215 3.57459C10.7162 4.02989 10.6478 4.44815 10.6493 4.9908C10.6493 5.09634 10.6493 5.20188 10.6493 5.31063C10.6499 5.42356 10.6505 5.53649 10.6512 5.65284C10.6513 5.76923 10.6515 5.88561 10.6517 6.00553C10.6523 6.37686 10.6538 6.74818 10.6553 7.11951C10.6559 7.37144 10.6564 7.62336 10.6569 7.87528C10.6581 8.49251 10.6604 9.10971 10.6626 9.72694C12.0548 9.72694 13.447 9.72694 14.8814 9.72694C14.8895 9.02856 14.8965 8.33034 14.9007 7.63195C14.9024 7.39475 14.9048 7.15755 14.9079 6.92036C14.9122 6.57795 14.9142 6.2356 14.9157 5.89317C14.9175 5.78839 14.9193 5.68361 14.9212 5.57565C14.9214 4.72747 14.8006 3.9699 14.2588 3.29627C13.7123 2.86416 13.2634 2.62254 12.5472 2.6554C11.8982 2.76255 11.4149 3.0489 11.0215 3.57459ZM37.4047 3.66615C37.1537 4.02592 37.1326 4.34025 37.1337 4.76464C37.1337 4.87488 37.1337 4.98512 37.1337 5.09871C37.1343 5.21737 37.1349 5.33603 37.1355 5.45829C37.1357 5.58004 37.1359 5.7018 37.136 5.82724C37.1367 6.2165 37.1382 6.60575 37.1397 6.995C37.1403 7.25875 37.1408 7.5225 37.1413 7.78625C37.1425 8.43315 37.1448 9.08003 37.147 9.72694C38.4618 9.72694 39.7767 9.72694 41.1314 9.72694C41.1421 8.93864 41.1515 8.15061 41.1571 7.3623C41.1595 7.09427 41.1627 6.82625 41.1667 6.55824C41.1724 6.1725 41.1751 5.78684 41.1771 5.40107C41.1808 5.22195 41.1808 5.22195 41.1845 5.03922C41.1847 4.20942 41.0588 3.80663 40.4754 3.20609C39.3448 2.30464 38.2746 2.62502 37.4047 3.66615ZM4.70803 9.43397C4.62343 9.53065 4.53884 9.62733 4.45168 9.72694C4.37192 9.81153 4.29216 9.89613 4.20998 9.98328C2.85636 11.9482 3.51418 13.9309 3.51418 16.4066C18.3642 16.4066 33.2142 16.4066 48.5142 16.4066C48.8304 12.6638 48.8304 12.6638 47.3423 9.49256C46.266 8.51002 45.2521 8.38618 43.8267 8.32069C43.8262 8.41702 43.8257 8.51335 43.8252 8.6126C43.8214 9.05005 43.8131 9.4873 43.8047 9.92469C43.8037 10.1521 43.8037 10.1521 43.8026 10.3841C43.7975 10.6033 43.7975 10.6033 43.7923 10.8269C43.7905 10.9613 43.7887 11.0957 43.7868 11.2342C43.6863 11.7124 43.502 11.8873 43.1236 12.1879C42.7402 12.3206 42.3725 12.3213 41.9692 12.3239C41.762 12.3256 41.762 12.3256 41.5507 12.3274C41.3275 12.3281 41.3275 12.3281 41.0998 12.3289C40.9463 12.3295 40.7929 12.3302 40.6348 12.3309C40.31 12.3321 39.9852 12.3328 39.6604 12.3332C39.2459 12.3339 38.8314 12.3367 38.4169 12.34C38.0197 12.3427 37.6225 12.3429 37.2253 12.3435C37.0772 12.345 36.9291 12.3464 36.7765 12.3479C35.4296 12.3445 35.4296 12.3445 34.8032 11.9535C34.2592 10.8653 34.4967 9.53645 34.4517 8.32069C28.8829 8.32069 23.3142 8.32069 17.5767 8.32069C17.538 9.24881 17.4993 10.1769 17.4595 11.1332C17.1079 11.9535 17.1079 11.9535 16.7751 12.1776C16.111 12.4045 15.3909 12.3551 14.6983 12.3518C14.5453 12.3521 14.3923 12.3524 14.2347 12.3528C13.9121 12.3533 13.5894 12.3525 13.2667 12.3509C12.855 12.3489 12.4433 12.35 12.0315 12.3522C11.6362 12.3537 11.241 12.3526 10.8457 12.3518C10.6987 12.3525 10.5517 12.3532 10.4003 12.3539C8.82381 12.3413 8.82381 12.3413 8.20168 11.7191C8.07083 11.3389 8.06169 10.9634 8.04741 10.5637C8.0425 10.4331 8.03759 10.3024 8.03253 10.1678C8.02793 10.032 8.02332 9.89615 8.01857 9.75623C8.01351 9.61862 8.00845 9.481 8.00324 9.33921C7.99082 8.99972 7.97886 8.66021 7.9673 8.32069C6.70765 8.31188 5.66141 8.58651 4.70803 9.43397ZM3.51418 19.1019C3.50451 23.8368 3.49484 28.5717 3.48488 33.4501C3.48061 34.9455 3.47635 36.4409 3.47195 37.9817C3.47038 39.3214 3.47038 39.3214 3.46944 40.6611C3.469 41.2581 3.46728 41.8551 3.46469 42.4521C3.46139 43.2138 3.46051 43.9754 3.46118 44.7371C3.46104 45.0166 3.46011 45.296 3.4583 45.5755C3.45596 45.9533 3.45653 46.331 3.45781 46.7088C3.45644 46.8179 3.45508 46.9269 3.45367 47.0393C3.46386 48.1586 3.91712 49.1123 4.68605 49.9222C5.9048 50.9386 7.14506 51.0281 8.66863 51.0168C8.85697 51.0167 9.04532 51.0168 9.23366 51.017C9.7423 51.0171 10.2509 51.015 10.7595 51.0126C11.2921 51.0104 11.8246 51.0102 12.3572 51.0098C13.3644 51.0087 14.3716 51.0058 15.3789 51.0023C16.5261 50.9983 17.6733 50.9964 18.8206 50.9946C21.1794 50.991 23.5382 50.9848 25.897 50.9769C25.8668 50.9075 25.8366 50.838 25.8055 50.7665C25.6669 50.4469 25.5288 50.1271 25.3907 49.8074C25.3432 49.6981 25.2957 49.5889 25.2468 49.4764C23.3129 44.989 23.3033 40.0095 25.0794 35.4739C25.8584 33.5718 26.9503 31.8711 28.357 30.3735C28.5999 30.1155 28.5999 30.1155 28.8326 29.815C31.2963 26.7589 35.7779 25.1248 39.5374 24.6574C42.2437 24.3823 44.8555 24.7253 47.4246 25.5789C47.7854 25.6935 48.1502 25.7948 48.5142 25.8988C48.5142 23.6558 48.5142 21.4129 48.5142 19.1019C33.6642 19.1019 18.8142 19.1019 3.51418 19.1019ZM30.145 32.205C27.4354 35.2114 26.203 39.1635 26.3479 43.1665C26.5011 45.8308 27.3902 48.5649 28.9439 50.7426C29.0292 50.8627 29.1146 50.9828 29.2025 51.1065C31.7045 54.5325 35.2696 56.4943 39.396 57.257C43.5502 57.7044 47.5835 56.6684 50.8675 54.0577C53.3066 52.0459 55.1994 49.3686 56.0142 46.2894C56.0484 46.1649 56.0484 46.1649 56.0833 46.0378C56.7124 43.6683 56.7381 41.0503 56.1314 38.6722C56.1021 38.5575 56.1021 38.5575 56.0723 38.4404C55.5928 36.6163 54.7892 34.9178 53.6704 33.3988C53.5666 33.2558 53.5666 33.2558 53.4608 33.11C52.3768 31.6869 51.0938 30.4665 49.5689 29.5316C49.4967 29.4871 49.4245 29.4426 49.3501 29.3967C43.0391 25.5469 35.1407 26.8794 30.145 32.205Z" fill="white"/>
<path d="M41.3392 33.2885C41.789 33.6758 41.9356 34.1592 41.9967 34.7326C41.9959 34.8702 41.9951 35.0079 41.9943 35.1497C41.9944 35.2648 41.9944 35.2648 41.9945 35.3821C41.9942 35.6326 41.9915 35.883 41.9887 36.1335C41.9881 36.3083 41.9876 36.4832 41.9872 36.6581C41.9859 37.116 41.9825 37.5739 41.9786 38.0318C41.9749 38.5 41.9733 38.9682 41.9716 39.4365C41.9678 40.3535 41.9618 41.2704 41.9544 42.1874C42.026 42.1864 42.0976 42.1853 42.1713 42.1842C42.9185 42.1738 43.6656 42.1668 44.4127 42.1616C44.6913 42.1593 44.9699 42.1561 45.2485 42.152C45.6497 42.1463 46.0507 42.1437 46.4519 42.1416C46.5759 42.1392 46.6998 42.1368 46.8275 42.1343C47.5733 42.1341 48.0294 42.2076 48.6341 42.6561C48.8891 43.0774 48.928 43.4592 48.8685 43.9452C48.6182 44.4101 48.4271 44.697 47.931 44.8827C47.5857 44.914 47.5857 44.914 47.1789 44.9168C47.0264 44.9182 46.8738 44.9197 46.7167 44.9213C46.5505 44.9216 46.3842 44.9219 46.218 44.9221C46.047 44.9228 45.8759 44.9236 45.7049 44.9244C45.3465 44.9258 44.9881 44.9263 44.6298 44.9261C44.1716 44.9261 43.7135 44.9293 43.2554 44.9333C42.9021 44.936 42.5488 44.9364 42.1955 44.9363C42.0267 44.9366 41.8578 44.9376 41.689 44.9394C41.4523 44.9417 41.2156 44.9408 40.979 44.9396C40.7773 44.9401 40.7773 44.9401 40.5716 44.9407C40.0389 44.8583 39.6676 44.6374 39.3346 44.2101C39.2194 43.806 39.2236 43.4055 39.2232 42.9888C39.2222 42.8927 39.2212 42.7966 39.2202 42.6976C39.2174 42.3801 39.2164 42.0627 39.2156 41.7452C39.2146 41.5242 39.2135 41.3032 39.2124 41.0823C39.2105 40.6191 39.2096 40.1559 39.2092 39.6927C39.2086 39.0997 39.2042 38.5069 39.1988 37.914C39.1953 37.4575 39.1945 37.0011 39.1944 36.5447C39.1939 36.3261 39.1924 36.1076 39.19 35.889C39.1868 35.5829 39.1874 35.2771 39.1889 34.971C39.1871 34.8812 39.1854 34.7913 39.1836 34.6987C39.1899 34.2388 39.2521 33.9351 39.5345 33.5784C40.0599 33.0755 40.664 33.0276 41.3392 33.2885Z" fill="white"/>
</g>
<defs>
<clipPath id="clip0_457_19">
<rect width="60" height="60" fill="white"/>
</clipPath>
</defs>
</svg>
