<svg width="30" height="31" viewBox="0 0 30 31" fill="none" xmlns="http://www.w3.org/2000/svg">
<path d="M16.0073 14.906C15.6895 15.044 15.3467 15.1152 15.0002 15.1152C14.6537 15.1152 14.3109 15.044 13.993 14.906L1.77873 9.24887C1.58039 9.14883 1.41371 8.9957 1.29726 8.80653C1.1808 8.61736 1.11914 8.39958 1.11914 8.17744C1.11914 7.9553 1.1808 7.73751 1.29726 7.54835C1.41371 7.35918 1.58039 7.20605 1.77873 7.10601L13.993 1.40601C14.3109 1.26799 14.6537 1.19678 15.0002 1.19678C15.3467 1.19678 15.6895 1.26799 16.0073 1.40601L28.2216 7.06315C28.4199 7.16319 28.5866 7.31632 28.7031 7.50549C28.8195 7.69466 28.8812 7.91244 28.8812 8.13458C28.8812 8.35672 28.8195 8.5745 28.7031 8.76367C28.5866 8.95284 28.4199 9.10597 28.2216 9.20601L16.0073 14.906Z" stroke="#24544B" stroke-width="2" stroke-linecap="round" stroke-linejoin="round"/>
<path d="M28.9284 15.8701L15.857 21.8915C15.5778 22.0189 15.2746 22.0848 14.9677 22.0848C14.6609 22.0848 14.3576 22.0189 14.0784 21.8915L1.07129 15.8701" stroke="#24544B" stroke-width="2" stroke-linecap="round" stroke-linejoin="round"/>
<path d="M28.9284 22.8345L15.857 28.8559C15.5778 28.9832 15.2746 29.0491 14.9677 29.0491C14.6609 29.0491 14.3576 28.9832 14.0784 28.8559L1.07129 22.8345" stroke="#24544B" stroke-width="2" stroke-linecap="round" stroke-linejoin="round"/>
</svg>
