<svg width="30" height="30" viewBox="0 0 30 30" fill="none" xmlns="http://www.w3.org/2000/svg">
<g clip-path="url(#clip0_253_269)">
<path d="M2.48196 4.44511C2.52573 4.44496 2.5695 4.4448 2.61459 4.44464C2.76208 4.44419 2.90956 4.44416 3.05705 4.44412C3.16353 4.44389 3.27002 4.44363 3.37651 4.44335C3.66979 4.44265 3.96307 4.44231 4.25635 4.44205C4.57242 4.4417 4.88849 4.44102 5.20456 4.44039C5.96825 4.43895 6.73195 4.4381 7.49565 4.43734C7.71134 4.43712 7.92704 4.43689 8.14273 4.43665C9.48208 4.43517 10.8214 4.43388 12.1608 4.43315C12.4711 4.43298 12.7813 4.43281 13.0916 4.43263C13.1688 4.43259 13.2459 4.43254 13.3253 4.4325C14.5744 4.43176 15.8235 4.42981 17.0726 4.42737C18.3549 4.42488 19.6372 4.4235 20.9196 4.42319C21.6396 4.42299 22.3596 4.42231 23.0796 4.42038C23.6928 4.41873 24.3061 4.41809 24.9193 4.41875C25.2321 4.41905 25.5449 4.41888 25.8577 4.41743C26.1444 4.41611 26.431 4.41616 26.7177 4.41727C26.8211 4.41743 26.9245 4.4171 27.0278 4.41622C27.9524 4.40883 28.6482 4.5979 29.3362 5.24896C29.7256 5.66136 30.0065 6.22589 30.008 6.79601C30.0083 6.8552 30.0086 6.91438 30.0089 6.97536C30.009 7.07273 30.009 7.07273 30.009 7.17207C30.0093 7.24112 30.0095 7.31017 30.0098 7.38132C30.0105 7.57306 30.0108 7.76479 30.0111 7.95653C30.0114 8.16332 30.0121 8.37011 30.0128 8.57689C30.0142 9.07641 30.0151 9.57592 30.0158 10.0754C30.016 10.2166 30.0163 10.3577 30.0165 10.4989C30.018 11.376 30.0193 12.2531 30.02 13.1302C30.0202 13.3334 30.0203 13.5365 30.0205 13.7396C30.0206 13.7901 30.0206 13.8406 30.0207 13.8926C30.0214 14.7097 30.0233 15.5269 30.0258 16.344C30.0283 17.1835 30.0296 18.023 30.03 18.8625C30.0302 19.3336 30.0308 19.8047 30.0328 20.2759C30.0344 20.6772 30.0351 21.0786 30.0344 21.48C30.0341 21.6846 30.0343 21.8891 30.0357 22.0937C30.0371 22.3161 30.0366 22.5385 30.0356 22.761C30.0364 22.8247 30.0373 22.8885 30.0381 22.9541C30.0302 23.7254 29.7262 24.3315 29.2042 24.8831C28.7353 25.3258 28.1536 25.556 27.518 25.5549C27.4743 25.5551 27.4305 25.5552 27.3854 25.5554C27.2379 25.5558 27.0904 25.5559 26.943 25.5559C26.8365 25.5561 26.73 25.5564 26.6235 25.5567C26.3302 25.5574 26.0369 25.5577 25.7437 25.558C25.4276 25.5583 25.1115 25.559 24.7955 25.5596C24.0318 25.5611 23.2681 25.5619 22.5044 25.5627C22.2887 25.5629 22.073 25.5631 21.8573 25.5634C20.5179 25.5649 19.1786 25.5662 17.8392 25.5669C17.5289 25.5671 17.2187 25.5672 16.9084 25.5674C16.7927 25.5675 16.7927 25.5675 16.6747 25.5675C15.4256 25.5683 14.1765 25.5702 12.9275 25.5727C11.6451 25.5752 10.3628 25.5765 9.08046 25.5768C8.36045 25.577 7.64045 25.5777 6.92044 25.5797C6.30719 25.5813 5.69395 25.5819 5.08069 25.5813C4.7679 25.581 4.45513 25.5812 4.14233 25.5826C3.85566 25.5839 3.56902 25.5839 3.28234 25.5828C3.17895 25.5826 3.07555 25.5829 2.97216 25.5838C2.04764 25.5912 1.3518 25.4021 0.663761 24.7511C0.274446 24.3387 -0.00650107 23.7741 -0.00802418 23.204C-0.00832152 23.1448 -0.00861884 23.0857 -0.00892518 23.0247C-0.00895435 22.9598 -0.00898365 22.8948 -0.0090137 22.828C-0.00927047 22.7589 -0.00952721 22.6899 -0.00979176 22.6187C-0.0104397 22.427 -0.0108237 22.2352 -0.0110915 22.0435C-0.0114409 21.8367 -0.012121 21.6299 -0.0127491 21.4231C-0.0141854 20.9236 -0.0150431 20.4241 -0.0157995 19.9246C-0.016017 19.7834 -0.0162499 19.6423 -0.0164881 19.5011C-0.0179671 18.624 -0.0192588 17.7469 -0.0199877 16.8698C-0.0201594 16.6667 -0.020333 16.4636 -0.0205096 16.2604C-0.0205534 16.2099 -0.0205969 16.1595 -0.020642 16.1074C-0.0213828 15.2903 -0.0233288 14.4732 -0.0257715 13.656C-0.0282604 12.8165 -0.0296383 11.977 -0.0299441 11.1375C-0.0301438 10.6664 -0.0308283 10.1953 -0.0327626 9.72418C-0.034408 9.32279 -0.0350458 8.92142 -0.0343919 8.52003C-0.0340891 8.31546 -0.0342493 8.11092 -0.0357082 7.90635C-0.0370416 7.68389 -0.0365498 7.4615 -0.0356212 7.23904C-0.0364346 7.1753 -0.0372479 7.11156 -0.0380859 7.04589C-0.0301977 6.27467 0.273831 5.66854 0.795826 5.1169C1.26473 4.67424 1.84642 4.44402 2.48196 4.44511ZM3.10547 6.21095C3.38159 6.53568 3.38159 6.53568 3.67151 6.84329C3.7104 6.8824 3.74929 6.92152 3.78936 6.96182C3.85182 7.0242 3.85182 7.0242 3.91554 7.08784C3.96061 7.13309 4.00569 7.17834 4.05213 7.22496C4.20245 7.37579 4.35297 7.5264 4.5035 7.67701C4.61161 7.7854 4.71972 7.8938 4.82781 8.00221C5.12085 8.29604 5.4141 8.58965 5.70741 8.88321C5.89061 9.06658 6.07377 9.24999 6.25693 9.4334C6.76435 9.94154 7.27183 10.4496 7.77951 10.9575C7.81194 10.9899 7.84437 11.0224 7.87778 11.0558C7.91028 11.0883 7.94278 11.1208 7.97627 11.1543C8.04213 11.2202 8.10799 11.2861 8.17385 11.352C8.20652 11.3847 8.23918 11.4174 8.27284 11.451C8.80302 11.9814 9.3328 12.5122 9.86242 13.0432C10.4066 13.5888 10.951 14.134 11.4958 14.6788C11.8016 14.9846 12.1072 15.2905 12.4124 15.5968C12.6991 15.8846 12.9864 16.1719 13.2739 16.4589C13.3794 16.5644 13.4849 16.6701 13.5901 16.7759C13.7336 16.9201 13.8775 17.0637 14.0216 17.2072C14.0634 17.2494 14.1051 17.2917 14.1482 17.3352C14.4559 17.6399 14.663 17.7633 15.1078 17.7752C15.5192 17.706 15.7779 17.4108 16.0575 17.1281C16.104 17.0818 16.1505 17.0355 16.1984 16.9878C16.354 16.8326 16.509 16.6768 16.6639 16.521C16.7754 16.4096 16.8868 16.2983 16.9983 16.187C17.2696 15.9161 17.5404 15.6447 17.811 15.3731C18.1261 15.0571 18.4416 14.7415 18.7571 14.4259C19.3197 13.8632 19.882 13.3 20.444 12.7365C20.9898 12.1894 21.5359 11.6425 22.0823 11.0959C22.116 11.0622 22.1497 11.0285 22.1844 10.9937C22.2522 10.9259 22.3201 10.858 22.388 10.7901C22.4214 10.7566 22.4549 10.7231 22.4894 10.6886C22.5228 10.6552 22.5561 10.6218 22.5905 10.5874C23.1108 10.067 23.6308 9.54627 24.1508 9.02555C24.3395 8.83658 24.5282 8.64765 24.717 8.45874C25.0162 8.1593 25.3153 7.85976 25.6141 7.56003C25.7508 7.423 25.8875 7.28604 26.0243 7.14917C26.1722 7.00116 26.3199 6.85297 26.4676 6.70473C26.5113 6.66102 26.5551 6.61731 26.6002 6.57227C26.659 6.51317 26.659 6.51317 26.7189 6.45288C26.7531 6.41864 26.7872 6.38441 26.8224 6.34913C26.9011 6.28021 26.9011 6.28021 26.8945 6.21095C19.0441 6.21095 11.1938 6.21095 3.10547 6.21095ZM1.75782 7.50002C1.75782 12.45 1.75782 17.4 1.75782 22.5C2.0126 22.2816 2.25112 22.0726 2.48645 21.837C2.51576 21.8078 2.54506 21.7785 2.57525 21.7484C2.67209 21.6516 2.76873 21.5547 2.86536 21.4577C2.93526 21.3878 3.00517 21.3179 3.07509 21.248C3.26393 21.0592 3.45258 20.8702 3.64121 20.6812C3.83871 20.4833 4.03639 20.2856 4.23404 20.0879C4.60788 19.7138 4.98157 19.3397 5.35521 18.9654C5.78076 18.5392 6.20649 18.1132 6.63223 17.6872C7.50761 16.8112 8.38278 15.935 9.25782 15.0586C9.16478 14.8326 9.02061 14.6896 8.84888 14.518C8.80392 14.4728 8.80392 14.4728 8.75806 14.4268C8.65762 14.326 8.55677 14.2256 8.45592 14.1253C8.38381 14.0531 8.31173 13.9809 8.23967 13.9087C8.04395 13.7127 7.84786 13.5171 7.6517 13.3215C7.44673 13.117 7.24207 12.9123 7.03736 12.7075C6.6937 12.3639 6.3498 12.0206 6.00576 11.6773C5.60743 11.2799 5.2094 10.8822 4.81155 10.4843C4.42932 10.102 4.04693 9.71993 3.66444 9.33793C3.5014 9.17509 3.3384 9.0122 3.17544 8.84927C2.98383 8.65772 2.79208 8.46632 2.6002 8.27504C2.52959 8.2046 2.45904 8.13412 2.38853 8.06358C2.29273 7.96775 2.19675 7.8721 2.10072 7.7765C2.04692 7.72279 1.99311 7.66908 1.93768 7.61375C1.837 7.49334 1.837 7.49334 1.75782 7.50002ZM27.9813 7.69478C27.9381 7.73821 27.9381 7.73821 27.894 7.78252C27.8636 7.81291 27.8332 7.8433 27.8018 7.8746C27.699 7.9773 27.5964 8.08021 27.4938 8.18312C27.4205 8.25644 27.3472 8.32975 27.2739 8.40306C27.0741 8.60279 26.8746 8.80271 26.675 9.00265C26.4667 9.21132 26.2583 9.41982 26.0498 9.62834C25.6548 10.0235 25.2599 10.4189 24.8651 10.8143C24.4158 11.2643 23.9662 11.7141 23.5167 12.164C22.5917 13.0896 21.6669 14.0154 20.7422 14.9414C20.8352 15.1674 20.9794 15.3104 21.1511 15.482C21.1961 15.5272 21.1961 15.5272 21.2419 15.5733C21.3424 15.674 21.4432 15.7744 21.5441 15.8747C21.6162 15.9469 21.6883 16.0191 21.7603 16.0913C21.9561 16.2873 22.1521 16.483 22.3483 16.6785C22.5533 16.883 22.7579 17.0878 22.9626 17.2925C23.3063 17.6361 23.6502 17.9795 23.9942 18.3227C24.3926 18.7201 24.7906 19.1179 25.1885 19.5157C25.5707 19.898 25.9531 20.2801 26.3356 20.6621C26.4986 20.8249 26.6616 20.9878 26.8246 21.1508C27.0162 21.3423 27.2079 21.5337 27.3998 21.725C27.4704 21.7954 27.541 21.8659 27.6115 21.9365C27.7073 22.0323 27.8033 22.1279 27.8993 22.2235C27.9531 22.2772 28.0069 22.331 28.0623 22.3863C28.163 22.5067 28.163 22.5067 28.2422 22.5C28.2422 17.55 28.2422 12.6 28.2422 7.50002C28.1254 7.50002 28.0592 7.61719 27.9813 7.69478ZM10.3446 16.4836C10.3014 16.5269 10.3014 16.5269 10.2573 16.5712C10.2269 16.6015 10.1965 16.6319 10.1651 16.6631C10.0623 16.7657 9.95972 16.8685 9.85713 16.9712C9.78382 17.0445 9.7105 17.1177 9.63716 17.1909C9.43741 17.3904 9.23783 17.5901 9.0383 17.7898C8.82998 17.9983 8.62152 18.2066 8.41309 18.4149C8.063 18.7649 7.71304 19.115 7.36315 19.4652C6.95796 19.8707 6.55257 20.276 6.14707 20.6811C5.79963 21.0283 5.4523 21.3756 5.10507 21.723C4.89738 21.9308 4.68964 22.1385 4.4818 22.3462C4.28646 22.5413 4.09126 22.7367 3.89618 22.9321C3.82433 23.004 3.75242 23.0759 3.68047 23.1477C3.5827 23.2453 3.48512 23.3431 3.38758 23.4409C3.35867 23.4697 3.32975 23.4985 3.29996 23.5282C3.16396 23.6392 3.16396 23.6392 3.10547 23.7891C10.9559 23.7891 18.8063 23.7891 26.8945 23.7891C26.6762 23.5343 26.4671 23.2958 26.2315 23.0604C26.1877 23.0165 26.1877 23.0165 26.1429 22.9716C26.0461 22.8748 25.9492 22.7782 25.8522 22.6815C25.7823 22.6116 25.7124 22.5417 25.6425 22.4718C25.4537 22.283 25.2647 22.0943 25.0757 21.9057C24.8778 21.7082 24.6801 21.5105 24.4824 21.3129C24.1084 20.939 23.7342 20.5653 23.36 20.1917C22.9337 19.7661 22.5077 19.3404 22.0817 18.9147C21.2057 18.0393 20.3295 17.1641 19.4531 16.2891C19.3882 16.3443 19.3233 16.3996 19.2585 16.4549C19.2223 16.4857 19.1862 16.5165 19.149 16.5482C19 16.6781 18.8602 16.8157 18.7207 16.9556C18.6693 17.0068 18.618 17.058 18.5651 17.1108C18.4395 17.2395 18.321 17.373 18.2034 17.509C17.4397 18.3886 16.6131 19.3179 15.4102 19.5117C14.894 19.5449 14.4318 19.5154 13.9453 19.336C13.8994 19.3201 13.8535 19.3042 13.8062 19.2879C13.2745 19.0658 12.8833 18.6209 12.4805 18.2227C12.4101 18.1539 12.3396 18.085 12.2692 18.0162C11.974 17.7258 11.6879 17.4323 11.4196 17.1165C11.2639 16.9422 11.1 16.7768 10.9351 16.6113C10.9036 16.5796 10.8721 16.5479 10.8397 16.5152C10.593 16.2535 10.593 16.2535 10.3446 16.4836Z" fill="#1B4B36"/>
</g>
<defs>
<clipPath id="clip0_253_269">
<rect width="30" height="30" fill="white"/>
</clipPath>
</defs>
</svg>
