<svg width="30" height="30" viewBox="0 0 30 30" fill="none" xmlns="http://www.w3.org/2000/svg">
<g clip-path="url(#clip0_187_5562)">
<path d="M9.64272 1.07153H3.21415C2.03068 1.07153 1.07129 2.03092 1.07129 3.21439V9.64296C1.07129 10.8264 2.03068 11.7858 3.21415 11.7858H9.64272C10.8262 11.7858 11.7856 10.8264 11.7856 9.64296V3.21439C11.7856 2.03092 10.8262 1.07153 9.64272 1.07153Z" stroke="#24544B" stroke-width="2" stroke-linecap="round" stroke-linejoin="round"/>
<path d="M26.7853 1.07153H20.3567C19.1733 1.07153 18.2139 2.03092 18.2139 3.21439V9.64296C18.2139 10.8264 19.1733 11.7858 20.3567 11.7858H26.7853C27.9688 11.7858 28.9282 10.8264 28.9282 9.64296V3.21439C28.9282 2.03092 27.9688 1.07153 26.7853 1.07153Z" stroke="#24544B" stroke-width="2" stroke-linecap="round" stroke-linejoin="round"/>
<path d="M9.64272 18.2144H3.21415C2.03068 18.2144 1.07129 19.1737 1.07129 20.3572V26.7858C1.07129 27.9693 2.03068 28.9286 3.21415 28.9286H9.64272C10.8262 28.9286 11.7856 27.9693 11.7856 26.7858V20.3572C11.7856 19.1737 10.8262 18.2144 9.64272 18.2144Z" stroke="#24544B" stroke-width="2" stroke-linecap="round" stroke-linejoin="round"/>
<path d="M26.7853 18.2146H20.3567C19.1733 18.2146 18.2139 19.174 18.2139 20.3575V26.786C18.2139 27.9695 19.1733 28.9289 20.3567 28.9289H26.7853C27.9688 28.9289 28.9282 27.9695 28.9282 26.786V20.3575C28.9282 19.174 27.9688 18.2146 26.7853 18.2146Z" stroke="#24544B" stroke-width="2" stroke-linecap="round" stroke-linejoin="round"/>
</g>
<defs>
<clipPath id="clip0_187_5562">
<rect width="30" height="30" fill="white"/>
</clipPath>
</defs>
</svg>
