<svg width="30" height="31" viewBox="0 0 30 31" fill="none" xmlns="http://www.w3.org/2000/svg">
<g clip-path="url(#clip0_197_78)">
<path d="M16.0093 15.4518C15.6914 15.5898 15.3486 15.661 15.0021 15.661C14.6556 15.661 14.3128 15.5898 13.995 15.4518L1.78069 9.79464C1.58235 9.6946 1.41567 9.54147 1.29921 9.3523C1.18276 9.16314 1.12109 8.94535 1.12109 8.72321C1.12109 8.50107 1.18276 8.28329 1.29921 8.09412C1.41567 7.90495 1.58235 7.75182 1.78069 7.65178L13.995 1.95179C14.3128 1.81377 14.6556 1.74255 15.0021 1.74255C15.3486 1.74255 15.6914 1.81377 16.0093 1.95179L28.2235 7.60893C28.4219 7.70897 28.5886 7.8621 28.705 8.05127C28.8215 8.24043 28.8831 8.45822 28.8831 8.68036C28.8831 8.9025 28.8215 9.12028 28.705 9.30945C28.5886 9.49862 28.4219 9.65175 28.2235 9.75178L16.0093 15.4518Z" stroke="#1C4942" stroke-width="2" stroke-linecap="round" stroke-linejoin="round"/>
<path d="M28.9294 16.416L15.858 22.4374C15.5788 22.5648 15.2755 22.6307 14.9687 22.6307C14.6618 22.6307 14.3586 22.5648 14.0794 22.4374L1.07227 16.416" stroke="#1C4942" stroke-width="2" stroke-linecap="round" stroke-linejoin="round"/>
<path d="M28.9294 23.3804L15.858 29.4018C15.5788 29.5291 15.2755 29.595 14.9687 29.595C14.6618 29.595 14.3586 29.5291 14.0794 29.4018L1.07227 23.3804" stroke="#1C4942" stroke-width="2" stroke-linecap="round" stroke-linejoin="round"/>
</g>
<defs>
<clipPath id="clip0_197_78">
<rect width="30" height="30" fill="white" transform="translate(0 0.666016)"/>
</clipPath>
</defs>
</svg>
