<svg width="30" height="31" viewBox="0 0 30 31" fill="none" xmlns="http://www.w3.org/2000/svg">
<g clip-path="url(#clip0_180_5282)">
<path d="M27.8567 14.0483H19.2853C18.6936 14.0483 18.2139 14.528 18.2139 15.1198V27.9769C18.2139 28.5686 18.6936 29.0483 19.2853 29.0483H27.8567C28.4485 29.0483 28.9282 28.5686 28.9282 27.9769V15.1198C28.9282 14.528 28.4485 14.0483 27.8567 14.0483Z" stroke="#24544B" stroke-width="2" stroke-linecap="round" stroke-linejoin="round"/>
<path d="M27.8567 1.19141H19.2853C18.6936 1.19141 18.2139 1.6711 18.2139 2.26283V6.56998C18.2139 7.16171 18.6936 7.64141 19.2853 7.64141H27.8567C28.4485 7.64141 28.9282 7.16171 28.9282 6.56998V2.26283C28.9282 1.6711 28.4485 1.19141 27.8567 1.19141Z" stroke="#24544B" stroke-width="2" stroke-linecap="round" stroke-linejoin="round"/>
<path d="M10.7141 1.19141H2.14272C1.55098 1.19141 1.07129 1.6711 1.07129 2.26283V15.12C1.07129 15.7117 1.55098 16.1914 2.14272 16.1914H10.7141C11.3059 16.1914 11.7856 15.7117 11.7856 15.12V2.26283C11.7856 1.6711 11.3059 1.19141 10.7141 1.19141Z" stroke="#24544B" stroke-width="2" stroke-linecap="round" stroke-linejoin="round"/>
<path d="M10.7141 22.5986H2.14272C1.55098 22.5986 1.07129 23.0783 1.07129 23.6701V27.9772C1.07129 28.5689 1.55098 29.0486 2.14272 29.0486H10.7141C11.3059 29.0486 11.7856 28.5689 11.7856 27.9772V23.6701C11.7856 23.0783 11.3059 22.5986 10.7141 22.5986Z" stroke="#24544B" stroke-width="2" stroke-linecap="round" stroke-linejoin="round"/>
</g>
<defs>
<clipPath id="clip0_180_5282">
<rect width="30" height="30" fill="white" transform="translate(0 0.120117)"/>
</clipPath>
</defs>
</svg>
