<svg width="60" height="61" viewBox="0 0 60 61" fill="none" xmlns="http://www.w3.org/2000/svg">
<path d="M21.428 26.3951C26.7536 26.3951 31.0709 22.0778 31.0709 16.7522C31.0709 11.4266 26.7536 7.10938 21.428 7.10938C16.1024 7.10938 11.7852 11.4266 11.7852 16.7522C11.7852 22.0778 16.1024 26.3951 21.428 26.3951Z" stroke="white" stroke-width="2" stroke-linecap="round" stroke-linejoin="round"/>
<path d="M40.714 58.5363H2.14258V54.2506C2.14258 49.1357 4.17446 44.2303 7.79123 40.6135C11.408 36.9967 16.3134 34.9648 21.4283 34.9648C26.5432 34.9648 31.4486 36.9967 35.0653 40.6135C38.6821 44.2303 40.714 49.1357 40.714 54.2506V58.5363Z" stroke="white" stroke-width="2" stroke-linecap="round" stroke-linejoin="round"/>
<path d="M38.5723 7.10938C41.1297 7.10938 43.5824 8.12532 45.3908 9.9337C47.1992 11.7421 48.2151 14.1948 48.2151 16.7522C48.2151 19.3097 47.1992 21.7624 45.3908 23.5708C43.5824 25.3791 41.1297 26.3951 38.5723 26.3951" stroke="white" stroke-width="2" stroke-linecap="round" stroke-linejoin="round"/>
<path d="M45.4277 35.7812C49.0785 37.17 52.2214 39.6346 54.4408 42.8488C56.6601 46.063 57.8511 49.8753 57.8563 53.7813V58.5384H51.4277" stroke="white" stroke-width="2" stroke-linecap="round" stroke-linejoin="round"/>
</svg>
