<svg width="30" height="30" viewBox="0 0 30 30" fill="none" xmlns="http://www.w3.org/2000/svg">
<g clip-path="url(#clip0_359_4503)">
<path d="M2.48099 4.44511C2.52475 4.44496 2.56852 4.4448 2.61362 4.44464C2.7611 4.44419 2.90859 4.44416 3.05607 4.44412C3.16256 4.44389 3.26904 4.44363 3.37553 4.44335C3.66881 4.44265 3.96209 4.44231 4.25538 4.44205C4.57145 4.4417 4.88751 4.44102 5.20358 4.44039C5.96728 4.43895 6.73097 4.4381 7.49467 4.43734C7.71036 4.43712 7.92606 4.43689 8.14176 4.43665C9.4811 4.43517 10.8205 4.43388 12.1598 4.43315C12.4701 4.43298 12.7804 4.43281 13.0907 4.43263C13.1678 4.43259 13.2449 4.43254 13.3244 4.4325C14.5734 4.43176 15.8225 4.42981 17.0716 4.42737C18.3539 4.42488 19.6362 4.4235 20.9186 4.42319C21.6386 4.42299 22.3586 4.42231 23.0786 4.42038C23.6918 4.41873 24.3051 4.41809 24.9183 4.41875C25.2311 4.41905 25.5439 4.41888 25.8567 4.41743C26.1434 4.41611 26.43 4.41616 26.7167 4.41727C26.8201 4.41743 26.9235 4.4171 27.0269 4.41622C27.9514 4.40883 28.6472 4.5979 29.3353 5.24896C29.7246 5.66136 30.0055 6.22589 30.0071 6.79601C30.0074 6.8552 30.0077 6.91438 30.008 6.97536C30.008 7.07273 30.008 7.07273 30.008 7.17207C30.0083 7.24112 30.0086 7.31017 30.0088 7.38132C30.0095 7.57306 30.0099 7.76479 30.0101 7.95653C30.0105 8.16332 30.0112 8.37011 30.0118 8.57689C30.0132 9.07641 30.0141 9.57592 30.0148 10.0754C30.0151 10.2166 30.0153 10.3577 30.0155 10.4989C30.017 11.376 30.0183 12.2531 30.019 13.1302C30.0192 13.3334 30.0194 13.5365 30.0195 13.7396C30.0196 13.7901 30.0196 13.8406 30.0197 13.8926C30.0204 14.7097 30.0224 15.5269 30.0248 16.344C30.0273 17.1835 30.0287 18.023 30.029 18.8625C30.0292 19.3336 30.0299 19.8047 30.0318 20.2759C30.0334 20.6772 30.0341 21.0786 30.0334 21.48C30.0331 21.6846 30.0333 21.8891 30.0347 22.0937C30.0361 22.3161 30.0356 22.5385 30.0347 22.761C30.0355 22.8247 30.0363 22.8885 30.0371 22.9541C30.0292 23.7254 29.7252 24.3315 29.2032 24.8831C28.7343 25.3258 28.1526 25.556 27.5171 25.5549C27.4733 25.5551 27.4295 25.5552 27.3844 25.5554C27.237 25.5558 27.0895 25.5559 26.942 25.5559C26.8355 25.5561 26.729 25.5564 26.6225 25.5567C26.3292 25.5574 26.036 25.5577 25.7427 25.558C25.4266 25.5583 25.1105 25.559 24.7945 25.5596C24.0308 25.5611 23.2671 25.5619 22.5034 25.5627C22.2877 25.5629 22.072 25.5631 21.8563 25.5634C20.517 25.5649 19.1776 25.5662 17.8383 25.5669C17.528 25.5671 17.2177 25.5672 16.9074 25.5674C16.7917 25.5675 16.7917 25.5675 16.6737 25.5675C15.4246 25.5683 14.1756 25.5702 12.9265 25.5727C11.6441 25.5752 10.3618 25.5765 9.07948 25.5768C8.35947 25.577 7.63947 25.5777 6.91947 25.5797C6.30621 25.5813 5.69297 25.5819 5.07972 25.5813C4.76692 25.581 4.45415 25.5812 4.14136 25.5826C3.85468 25.5839 3.56804 25.5839 3.28136 25.5828C3.17797 25.5826 3.07457 25.5829 2.97118 25.5838C2.04667 25.5912 1.35083 25.4021 0.662785 24.7511C0.27347 24.3387 -0.00747763 23.7741 -0.00900075 23.204C-0.00929808 23.1448 -0.0095954 23.0857 -0.00990175 23.0247C-0.00993091 22.9598 -0.00996021 22.8948 -0.00999026 22.828C-0.010247 22.7589 -0.0105038 22.6899 -0.0107683 22.6187C-0.0114162 22.427 -0.0118002 22.2352 -0.0120681 22.0435C-0.0124174 21.8367 -0.0130976 21.6299 -0.0137257 21.4231C-0.0151619 20.9236 -0.0160196 20.4241 -0.016776 19.9246C-0.0169936 19.7834 -0.0172264 19.6423 -0.0174647 19.5011C-0.0189437 18.624 -0.0202354 17.7469 -0.0209643 16.8698C-0.0211359 16.6667 -0.0213096 16.4636 -0.0214862 16.2604C-0.0215299 16.2099 -0.0215735 16.1595 -0.0216185 16.1074C-0.0223594 15.2903 -0.0243054 14.4732 -0.026748 13.656C-0.0292369 12.8165 -0.0306149 11.977 -0.0309207 11.1375C-0.0311203 10.6664 -0.0318048 10.1953 -0.0337392 9.72418C-0.0353846 9.32279 -0.0360223 8.92142 -0.0353684 8.52003C-0.0350657 8.31546 -0.0352258 8.11092 -0.0366847 7.90635C-0.0380182 7.68389 -0.0375264 7.4615 -0.0365978 7.23904C-0.0374112 7.1753 -0.0382244 7.11156 -0.0390625 7.04589C-0.0311743 6.27467 0.272854 5.66854 0.79485 5.1169C1.26375 4.67424 1.84545 4.44402 2.48099 4.44511ZM3.1045 6.21095C3.38061 6.53568 3.38061 6.53568 3.67053 6.84329C3.70943 6.8824 3.74832 6.92152 3.78839 6.96182C3.85084 7.0242 3.85084 7.0242 3.91456 7.08784C3.95964 7.13309 4.00471 7.17834 4.05116 7.22496C4.20147 7.37579 4.352 7.5264 4.50252 7.67701C4.61064 7.7854 4.71874 7.8938 4.82683 8.00221C5.11987 8.29604 5.41313 8.58965 5.70643 8.88321C5.88964 9.06658 6.0728 9.24999 6.25595 9.4334C6.76337 9.94154 7.27085 10.4496 7.77853 10.9575C7.81096 10.9899 7.84339 11.0224 7.8768 11.0558C7.9093 11.0883 7.94181 11.1208 7.97529 11.1543C8.04115 11.2202 8.10701 11.2861 8.17287 11.352C8.20554 11.3847 8.23821 11.4174 8.27186 11.451C8.80204 11.9814 9.33183 12.5122 9.86144 13.0432C10.4056 13.5888 10.95 14.134 11.4949 14.6788C11.8006 14.9846 12.1062 15.2905 12.4114 15.5968C12.6982 15.8846 12.9854 16.1719 13.2729 16.4589C13.3785 16.5644 13.4839 16.6701 13.5892 16.7759C13.7326 16.9201 13.8765 17.0637 14.0206 17.2072C14.0624 17.2494 14.1042 17.2917 14.1472 17.3352C14.4549 17.6399 14.662 17.7633 15.1068 17.7752C15.5182 17.706 15.7769 17.4108 16.0566 17.1281C16.103 17.0818 16.1495 17.0355 16.1974 16.9878C16.353 16.8326 16.508 16.6768 16.663 16.521C16.7744 16.4096 16.8859 16.2983 16.9974 16.187C17.2686 15.9161 17.5394 15.6447 17.8101 15.3731C18.1251 15.0571 18.4406 14.7415 18.7561 14.4259C19.3188 13.8632 19.881 13.3 20.443 12.7365C20.9889 12.1894 21.5349 11.6425 22.0813 11.0959C22.115 11.0622 22.1487 11.0285 22.1834 10.9937C22.2513 10.9259 22.3191 10.858 22.387 10.7901C22.4204 10.7566 22.4539 10.7231 22.4884 10.6886C22.5218 10.6552 22.5552 10.6218 22.5896 10.5874C23.1098 10.067 23.6298 9.54627 24.1498 9.02555C24.3385 8.83658 24.5273 8.64765 24.716 8.45874C25.0152 8.1593 25.3143 7.85976 25.6132 7.56003C25.7498 7.423 25.8865 7.28604 26.0233 7.14917C26.1712 7.00116 26.3189 6.85297 26.4666 6.70473C26.5104 6.66102 26.5541 6.61731 26.5992 6.57227C26.658 6.51317 26.658 6.51317 26.7179 6.45288C26.7521 6.41864 26.7863 6.38441 26.8215 6.34913C26.9001 6.28021 26.9001 6.28021 26.8936 6.21095C19.0432 6.21095 11.1928 6.21095 3.1045 6.21095ZM1.75684 7.50002C1.75684 12.45 1.75684 17.4 1.75684 22.5C2.01162 22.2816 2.25014 22.0726 2.48548 21.837C2.51478 21.8078 2.54408 21.7785 2.57427 21.7484C2.67112 21.6516 2.76775 21.5547 2.86438 21.4577C2.93428 21.3878 3.00419 21.3179 3.07412 21.248C3.26295 21.0592 3.45161 20.8702 3.64023 20.6812C3.83774 20.4833 4.03541 20.2856 4.23306 20.0879C4.6069 19.7138 4.98059 19.3397 5.35423 18.9654C5.77979 18.5392 6.20551 18.1132 6.63125 17.6872C7.50663 16.8112 8.38181 15.935 9.25684 15.0586C9.1638 14.8326 9.01963 14.6896 8.8479 14.518C8.80295 14.4728 8.80295 14.4728 8.75709 14.4268C8.65665 14.326 8.5558 14.2256 8.45494 14.1253C8.38283 14.0531 8.31075 13.9809 8.2387 13.9087C8.04297 13.7127 7.84689 13.5171 7.65073 13.3215C7.44576 13.117 7.24109 12.9123 7.03639 12.7075C6.69272 12.3639 6.34883 12.0206 6.00479 11.6773C5.60645 11.2799 5.20843 10.8822 4.81057 10.4843C4.42835 10.102 4.04595 9.71993 3.66347 9.33793C3.50042 9.17509 3.33742 9.0122 3.17446 8.84927C2.98285 8.65772 2.7911 8.46632 2.59922 8.27504C2.52862 8.2046 2.45806 8.13412 2.38756 8.06358C2.29175 7.96775 2.19578 7.8721 2.09975 7.7765C2.04594 7.72279 1.99214 7.66908 1.9367 7.61375C1.83602 7.49334 1.83602 7.49334 1.75684 7.50002ZM27.9803 7.69478C27.9371 7.73821 27.9371 7.73821 27.8931 7.78252C27.8626 7.81291 27.8322 7.8433 27.8008 7.8746C27.698 7.9773 27.5955 8.08021 27.4929 8.18312C27.4196 8.25644 27.3462 8.32975 27.2729 8.40306C27.0732 8.60279 26.8736 8.80271 26.674 9.00265C26.4657 9.21132 26.2573 9.41982 26.0488 9.62834C25.6538 10.0235 25.2589 10.4189 24.8641 10.8143C24.4148 11.2643 23.9653 11.7141 23.5157 12.164C22.5907 13.0896 21.6659 14.0154 20.7412 14.9414C20.8343 15.1674 20.9784 15.3104 21.1502 15.482C21.1951 15.5272 21.1951 15.5272 21.241 15.5733C21.3414 15.674 21.4423 15.7744 21.5431 15.8747C21.6152 15.9469 21.6873 16.0191 21.7594 16.0913C21.9551 16.2873 22.1512 16.483 22.3473 16.6785C22.5523 16.883 22.757 17.0878 22.9617 17.2925C23.3053 17.6361 23.6492 17.9795 23.9933 18.3227C24.3916 18.7201 24.7896 19.1179 25.1875 19.5157C25.5697 19.898 25.9521 20.2801 26.3346 20.6621C26.4976 20.8249 26.6606 20.9878 26.8236 21.1508C27.0152 21.3423 27.207 21.5337 27.3988 21.725C27.4694 21.7954 27.54 21.8659 27.6105 21.9365C27.7063 22.0323 27.8023 22.1279 27.8983 22.2235C27.9521 22.2772 28.0059 22.331 28.0614 22.3863C28.162 22.5067 28.162 22.5067 28.2412 22.5C28.2412 17.55 28.2412 12.6 28.2412 7.50002C28.1244 7.50002 28.0582 7.61719 27.9803 7.69478ZM10.3436 16.4836C10.3004 16.5269 10.3004 16.5269 10.2564 16.5712C10.2259 16.6015 10.1955 16.6319 10.1641 16.6631C10.0613 16.7657 9.95874 16.8685 9.85615 16.9712C9.78284 17.0445 9.70952 17.1177 9.63619 17.1909C9.43643 17.3904 9.23686 17.5901 9.03732 17.7898C8.82901 17.9983 8.62055 18.2066 8.41211 18.4149C8.06203 18.7649 7.71206 19.115 7.36217 19.4652C6.95699 19.8707 6.55159 20.276 6.14609 20.6811C5.79865 21.0283 5.45133 21.3756 5.1041 21.723C4.8964 21.9308 4.68866 22.1385 4.48082 22.3462C4.28548 22.5413 4.09029 22.7367 3.8952 22.9321C3.82335 23.004 3.75145 23.0759 3.67949 23.1477C3.58173 23.2453 3.48414 23.3431 3.38661 23.4409C3.35769 23.4697 3.32878 23.4985 3.29899 23.5282C3.16299 23.6392 3.16299 23.6392 3.1045 23.7891C10.9549 23.7891 18.8053 23.7891 26.8936 23.7891C26.6752 23.5343 26.4661 23.2958 26.2306 23.0604C26.1867 23.0165 26.1867 23.0165 26.1419 22.9716C26.0452 22.8748 25.9482 22.7782 25.8513 22.6815C25.7813 22.6116 25.7114 22.5417 25.6416 22.4718C25.4527 22.283 25.2637 22.0943 25.0747 21.9057C24.8768 21.7082 24.6791 21.5105 24.4814 21.3129C24.1074 20.939 23.7332 20.5653 23.359 20.1917C22.9328 19.7661 22.5067 19.3404 22.0807 18.9147C21.2047 18.0393 20.3285 17.1641 19.4522 16.2891C19.3872 16.3443 19.3223 16.3996 19.2575 16.4549C19.2214 16.4857 19.1852 16.5165 19.148 16.5482C18.9991 16.6781 18.8592 16.8157 18.7197 16.9556C18.6684 17.0068 18.617 17.058 18.5641 17.1108C18.4386 17.2395 18.32 17.373 18.2025 17.509C17.4387 18.3886 16.6121 19.3179 15.4092 19.5117C14.893 19.5449 14.4308 19.5154 13.9443 19.336C13.8984 19.3201 13.8525 19.3042 13.8052 19.2879C13.2735 19.0658 12.8823 18.6209 12.4795 18.2227C12.4091 18.1539 12.3387 18.085 12.2682 18.0162C11.973 17.7258 11.6869 17.4323 11.4186 17.1165C11.263 16.9422 11.099 16.7768 10.9341 16.6113C10.9026 16.5796 10.8712 16.5479 10.8387 16.5152C10.592 16.2535 10.592 16.2535 10.3436 16.4836Z" fill="white"/>
</g>
<defs>
<clipPath id="clip0_359_4503">
<rect width="30" height="30" fill="white"/>
</clipPath>
</defs>
</svg>
