<svg width="37" height="38" viewBox="0 0 37 38" fill="none" xmlns="http://www.w3.org/2000/svg">
<g clip-path="url(#clip0_242_107)">
<path d="M20.9354 11.54C21.5233 11.54 21.9998 11.0634 21.9998 10.4756C21.9998 9.88778 21.5233 9.41125 20.9354 9.41125C20.3476 9.41125 19.8711 9.88778 19.8711 10.4756C19.8711 11.0634 20.3476 11.54 20.9354 11.54Z" fill="#1C4942"/>
<path d="M25.1933 11.54C25.7811 11.54 26.2576 11.0634 26.2576 10.4756C26.2576 9.88778 25.7811 9.41125 25.1933 9.41125C24.6054 9.41125 24.1289 9.88778 24.1289 10.4756C24.1289 11.0634 24.6054 11.54 25.1933 11.54Z" fill="#1C4942"/>
<path d="M29.4511 11.54C30.0389 11.54 30.5154 11.0634 30.5154 10.4756C30.5154 9.88778 30.0389 9.41125 29.4511 9.41125C28.8632 9.41125 28.3867 9.88778 28.3867 10.4756C28.3867 11.0634 28.8632 11.54 29.4511 11.54Z" fill="#1C4942"/>
<path d="M24.5702 34.9558C26.3225 34.9558 27.7482 33.5234 27.7482 31.7627V27.5053C27.7482 27.0474 27.4553 26.6409 27.0211 26.4958L20.6501 24.3671C20.3382 24.2629 19.996 24.3087 19.7224 24.491L17.0131 26.2972C14.1054 24.9175 10.6687 21.5113 9.30182 18.6552L11.1074 15.9469C11.2897 15.6734 11.3354 15.331 11.2313 15.0192L9.10257 8.64817C8.95746 8.21391 8.55095 7.92114 8.09307 7.92114H3.83564C2.07499 7.92114 0.642578 9.34674 0.642578 11.0991C0.642578 16.9798 3.31652 23.0153 7.97883 27.6581C12.636 32.2959 18.6834 34.9558 24.5702 34.9558ZM3.83564 10.0499H7.32652L9.04722 15.1996L7.20752 17.9592C7.0131 18.2508 6.97471 18.6194 7.10492 18.9448C7.81271 20.7143 9.22916 22.7044 11.0933 24.5486C12.9451 26.3807 14.945 27.7817 16.7245 28.4934C17.0498 28.6236 17.4186 28.5852 17.7102 28.3908L20.4697 26.5511L25.6195 28.2718V31.7627C25.6195 32.3595 25.1586 32.8271 24.5702 32.8271C13.3652 32.8271 2.77129 22.2677 2.77129 11.0991C2.77129 10.5107 3.23882 10.0499 3.83564 10.0499Z" fill="#1C4942"/>
<path d="M20.5295 22.1025C20.9272 22.2673 21.3851 22.1762 21.6895 21.8718L25.6351 17.9261H29.4517C33.599 17.9261 36.9731 14.5838 36.9731 10.4756C36.9731 6.36744 33.599 3.02515 29.4517 3.02515H20.9368C16.8286 3.02515 13.4863 6.36744 13.4863 10.4756C13.4863 14.2225 16.2666 17.3323 19.8725 17.8503V21.1192C19.8725 21.5497 20.1318 21.9378 20.5295 22.1025ZM15.615 10.4756C15.615 7.54121 18.0024 5.15386 20.9368 5.15386H29.4517C32.4252 5.15386 34.8444 7.54121 34.8444 10.4756C34.8444 13.4101 32.4252 15.7974 29.4517 15.7974H25.1942C24.9119 15.7974 24.6412 15.9095 24.4417 16.1091L22.0012 18.5496V16.8618C22.0012 16.274 21.5246 15.7974 20.9368 15.7974C18.0024 15.7974 15.615 13.4101 15.615 10.4756Z" fill="#1C4942"/>
</g>
<defs>
<clipPath id="clip0_242_107">
<rect width="36.33" height="36.33" fill="white" transform="translate(0.642578 0.825439)"/>
</clipPath>
</defs>
</svg>
