<svg width="30" height="30" viewBox="0 0 30 30" fill="none" xmlns="http://www.w3.org/2000/svg">
<g clip-path="url(#clip0_187_5574)">
<path d="M16.0073 14.7856C15.6895 14.9237 15.3467 14.9949 15.0002 14.9949C14.6537 14.9949 14.3109 14.9237 13.993 14.7856L1.77873 9.12851C1.58039 9.02847 1.41371 8.87534 1.29726 8.68617C1.1808 8.497 1.11914 8.27922 1.11914 8.05708C1.11914 7.83493 1.1808 7.61715 1.29726 7.42798C1.41371 7.23882 1.58039 7.08569 1.77873 6.98565L13.993 1.28565C14.3109 1.14763 14.6537 1.07642 15.0002 1.07642C15.3467 1.07642 15.6895 1.14763 16.0073 1.28565L28.2216 6.94279C28.4199 7.04283 28.5866 7.19596 28.7031 7.38513C28.8195 7.5743 28.8812 7.79208 28.8812 8.01422C28.8812 8.23636 28.8195 8.45414 28.7031 8.64331C28.5866 8.83248 28.4199 8.98561 28.2216 9.08565L16.0073 14.7856Z" stroke="#24544B" stroke-width="2" stroke-linecap="round" stroke-linejoin="round"/>
<path d="M28.9284 15.75L15.857 21.7714C15.5778 21.8988 15.2746 21.9647 14.9677 21.9647C14.6609 21.9647 14.3576 21.8988 14.0784 21.7714L1.07129 15.75" stroke="#24544B" stroke-width="2" stroke-linecap="round" stroke-linejoin="round"/>
<path d="M28.9284 22.7141L15.857 28.7355C15.5778 28.8629 15.2746 28.9288 14.9677 28.9288C14.6609 28.9288 14.3576 28.8629 14.0784 28.7355L1.07129 22.7141" stroke="#24544B" stroke-width="2" stroke-linecap="round" stroke-linejoin="round"/>
</g>
<defs>
<clipPath id="clip0_187_5574">
<rect width="30" height="30" fill="white"/>
</clipPath>
</defs>
</svg>
