<svg width="30" height="30" viewBox="0 0 30 30" fill="none" xmlns="http://www.w3.org/2000/svg">
<g clip-path="url(#clip0_359_4498)">
<path d="M16.9925 0.644541C17.0555 0.696168 17.1179 0.74853 17.1793 0.802012C17.5822 1.13331 17.9599 1.23884 18.4756 1.2378C18.5503 1.23795 18.625 1.2381 18.702 1.23826C18.9178 1.23077 19.1231 1.20527 19.3362 1.17188C20.1965 1.11152 21.0105 1.41439 21.6653 1.9629C22.1115 2.39109 22.3689 2.90745 22.5919 3.47901C22.8962 4.22796 23.4519 4.4561 24.154 4.77265C25.0063 5.17299 25.5203 5.78942 25.8562 6.66276C25.9539 6.9707 25.9663 7.26275 25.9647 7.58424C25.9649 7.62748 25.9651 7.67072 25.9653 7.71527C25.9649 7.96296 25.9442 8.19323 25.8987 8.43751C25.8394 9.08149 26.0503 9.56779 26.4261 10.0781C27.0524 10.935 27.3148 11.7108 27.1606 12.7879C27.0215 13.4207 26.7079 13.8979 26.2991 14.3896C25.9579 14.8398 25.8679 15.326 25.8987 15.8789C25.9082 15.9327 25.9176 15.9865 25.9274 16.0419C26.0732 16.959 25.9178 17.8126 25.3714 18.5742C24.895 19.2262 24.1917 19.6041 23.4378 19.8633C23.3991 19.8633 23.3605 19.8633 23.3206 19.8633C23.5037 20.3695 23.6975 20.869 23.9116 21.3629C23.9321 21.4104 23.9526 21.4579 23.9737 21.5068C24.0581 21.7022 24.1427 21.8974 24.2284 22.0922C24.2921 22.237 24.3546 22.3822 24.417 22.5275C24.4364 22.5708 24.4558 22.6142 24.4758 22.6588C24.6001 22.9516 24.6394 23.1776 24.6097 23.4961C24.4607 23.6714 24.3661 23.7212 24.1409 23.7634C23.8991 23.7181 23.8309 23.6248 23.6722 23.4375C23.5815 23.2701 23.512 23.0964 23.4426 22.9193C23.4225 22.8697 23.4024 22.8201 23.3817 22.769C23.3179 22.6112 23.2551 22.4531 23.1924 22.2949C23.1497 22.1886 23.1068 22.0823 23.0639 21.9761C22.9685 21.7394 22.8738 21.5024 22.7795 21.2652C22.7257 21.1299 22.6717 20.9946 22.6175 20.8594C22.4965 21.0408 22.4127 21.222 22.3209 21.4197C21.9439 22.1913 21.366 22.7062 20.5521 22.9907C20.0821 23.1325 19.629 23.1879 19.1431 23.1159C18.4454 23.0195 17.7916 23.028 17.2102 23.4581C17.1118 23.5333 17.0151 23.6097 16.9201 23.6891C16.7515 23.8292 16.6094 23.9203 16.4038 23.9983C16.0621 24.1612 15.9742 24.5018 15.8463 24.8364C15.8199 24.8995 15.7936 24.9626 15.7665 25.0276C15.541 25.591 15.6329 25.9023 15.8602 26.4459C15.8817 26.4979 15.9032 26.5499 15.9253 26.6035C15.9707 26.7131 16.0162 26.8226 16.062 26.932C16.1316 27.0988 16.2004 27.2659 16.2691 27.4331C16.3134 27.5399 16.3578 27.6466 16.4022 27.7533C16.4226 27.8029 16.443 27.8526 16.464 27.9037C16.6663 28.3847 16.8949 28.7953 17.4026 29.0039C17.5786 29.0291 17.5786 29.0291 17.7689 29.0296C17.832 29.0319 17.8951 29.0342 17.9602 29.0366C18.4359 28.9604 18.7345 28.6271 19.0396 28.2788C19.7551 27.4921 20.6506 26.8818 21.7386 26.7774C22.1185 26.7672 22.498 26.7718 22.8777 26.786C23.3165 26.7979 23.5915 26.7778 23.9651 26.543C24.0232 26.5236 24.0812 26.5043 24.1409 26.4844C24.2065 26.3879 24.2065 26.3879 24.2581 26.25C24.281 26.1989 24.281 26.1989 24.3044 26.1468C24.4487 25.8035 24.4961 25.4992 24.3753 25.1367C24.3423 24.7208 24.3423 24.7208 24.4669 24.5215C24.6638 24.4003 24.7925 24.4052 25.0198 24.4336C25.2752 24.5854 25.3251 24.7456 25.3982 25.023C25.5249 25.7092 25.3965 26.2809 25.0455 26.8762C24.7207 27.3331 24.2226 27.6656 23.6722 27.7734C23.3332 27.7917 22.995 27.7801 22.6559 27.7698C21.6079 27.741 20.7603 27.9725 19.9901 28.7003C19.7912 28.8943 19.6077 29.0985 19.4278 29.3099C19.0596 29.7287 18.6562 29.983 18.0907 30.0224C17.4029 30.0494 16.8634 29.9748 16.326 29.5129C15.8819 29.0993 15.6624 28.6321 15.4395 28.0809C15.3918 27.9631 15.3432 27.8457 15.2945 27.7284C15.0589 27.154 15.0589 27.154 15.0589 26.9531C15.0202 26.9531 14.9816 26.9531 14.9417 26.9531C14.9314 27.0146 14.9314 27.0146 14.9208 27.0772C14.8473 27.4064 14.7053 27.7142 14.5792 28.0261C14.5516 28.0963 14.5241 28.1665 14.4957 28.2389C14.2099 28.9467 13.7982 29.5951 13.0704 29.9121C12.506 30.0902 11.7434 30.1149 11.2041 29.8499C10.8268 29.6046 10.5272 29.2839 10.2299 28.95C9.65271 28.3039 9.01274 27.9156 8.14483 27.7734C8.01042 27.7714 7.87593 27.7725 7.74155 27.776C7.66266 27.7773 7.58377 27.7785 7.50488 27.7797C7.38223 27.7819 7.25963 27.7844 7.13701 27.7879C6.38469 27.8084 5.81159 27.7022 5.22842 27.2033C4.79893 26.7655 4.56951 26.2057 4.54132 25.5982C4.57538 24.6833 5.081 23.7733 5.43121 22.9431C5.4814 22.8235 5.53157 22.704 5.5817 22.5844C5.68178 22.3457 5.78194 22.1071 5.88219 21.8686C5.90715 21.8092 5.9321 21.7498 5.95781 21.6886C6.01122 21.5616 6.06467 21.4346 6.11815 21.3075C6.19977 21.1136 6.28117 20.9195 6.36253 20.7255C6.38765 20.6659 6.41277 20.6064 6.43864 20.5451C6.46178 20.4898 6.48491 20.4345 6.50874 20.3776C6.53934 20.3048 6.53934 20.3048 6.57055 20.2305C6.61715 20.1088 6.65162 19.9904 6.67999 19.8633C6.62886 19.8465 6.57772 19.8298 6.52504 19.8125C5.44984 19.4495 4.75206 18.9207 4.24721 17.9041C4.0818 17.506 4.02495 17.1507 4.03229 16.7212C4.03232 16.6788 4.03236 16.6363 4.0324 16.5926C4.03439 16.3483 4.05761 16.1198 4.10187 15.8789C4.16124 15.2349 3.95029 14.7486 3.57452 14.2383C2.94817 13.3815 2.68581 12.6056 2.84004 11.5286C2.97912 10.8957 3.29269 10.4186 3.70155 9.92684C4.0427 9.47659 4.13273 8.99039 4.10187 8.43751C4.09242 8.38373 4.08298 8.32995 4.07326 8.27455C3.92746 7.35746 4.08284 6.5038 4.62921 5.7422C5.03964 5.18055 5.58856 4.84675 6.22955 4.5923C6.80449 4.36353 7.17452 4.03671 7.43135 3.46728C7.48302 3.34693 7.53391 3.22628 7.58453 3.10548C7.91158 2.32773 8.4151 1.78654 9.18259 1.4232C9.72221 1.2117 10.2813 1.11316 10.8555 1.20118C11.5195 1.28999 12.1584 1.30397 12.7115 0.893565C12.791 0.83028 12.8703 0.766792 12.9495 0.703135C14.1802 -0.233567 15.7288 -0.284368 16.9925 0.644541ZM13.4001 1.57716C12.8224 2.01144 12.2521 2.1791 11.5396 2.1753C11.4901 2.17527 11.4405 2.17525 11.3895 2.17522C11.1137 2.17369 10.8436 2.1611 10.5692 2.13136C9.94986 2.07279 9.46707 2.30181 8.98346 2.67701C8.64388 2.98522 8.45904 3.39298 8.29132 3.81227C7.90479 4.76758 7.26287 5.19091 6.34994 5.60418C5.67349 5.91815 5.32352 6.28225 5.03937 6.97267C4.97251 7.17573 4.97295 7.36757 4.97345 7.58058C4.9733 7.64508 4.97315 7.70958 4.97299 7.77604C4.98053 7.96272 5.00791 8.13642 5.03937 8.32032C5.10563 9.30153 4.83817 10.0616 4.21516 10.8094C3.8195 11.325 3.70464 11.8412 3.7503 12.4805C3.8375 13.01 4.12539 13.3786 4.44588 13.7947C4.84717 14.335 5.04828 14.9382 5.04669 15.6116C5.04692 15.7075 5.04692 15.7075 5.04715 15.8054C5.03956 15.9914 5.01226 16.1645 4.98077 16.3477C4.92566 17.0514 5.04906 17.6186 5.51086 18.1648C5.83093 18.4906 6.20666 18.6602 6.6214 18.8342C7.00036 18.9936 7.31675 19.1667 7.61749 19.4531C7.6721 19.5042 7.6721 19.5042 7.72781 19.5564C8.04397 19.8828 8.20158 20.2708 8.37921 20.6836C8.69592 21.3831 9.04647 21.7717 9.75273 22.0972C9.92038 22.1545 10.0704 22.1747 10.2469 22.1887C10.3047 22.1938 10.3626 22.1989 10.4222 22.2041C10.6264 22.2074 10.814 22.1779 11.0159 22.1484C12.0628 22.076 12.8578 22.2728 13.6819 22.9468C14.2323 23.3785 14.7878 23.4536 15.4691 23.3789C15.9363 23.2667 16.2821 23.0139 16.6483 22.7153C17.0645 22.3825 17.5859 22.1415 18.1259 22.1407C18.1987 22.1405 18.1987 22.1405 18.273 22.1404C18.3242 22.1406 18.3753 22.1409 18.428 22.1411C18.4806 22.1412 18.5331 22.1412 18.5873 22.1412C18.8723 22.1427 19.1515 22.1543 19.4351 22.1851C20.0525 22.244 20.5353 22.0132 21.0172 21.6394C21.3567 21.3312 21.5416 20.9235 21.7093 20.5042C22.0958 19.5488 22.7377 19.1255 23.6507 18.7122C24.3271 18.3983 24.6771 18.0342 24.9612 17.3438C25.0281 17.1407 25.0277 16.9489 25.0272 16.7358C25.0274 16.6391 25.0274 16.6391 25.0276 16.5404C25.0201 16.3537 24.9927 16.18 24.9612 15.9961C24.8948 15.0115 25.1654 14.2499 25.7896 13.4988C26.17 13.0131 26.3139 12.4469 26.2503 11.8359C26.1432 11.3336 25.9325 10.9924 25.6058 10.6055C25.1772 10.0496 24.9523 9.40773 24.9539 8.70484C24.9538 8.64087 24.9536 8.57689 24.9535 8.51098C24.961 8.32506 24.9883 8.15191 25.0198 7.96876C25.0749 7.26499 24.9515 6.69787 24.4897 6.15167C24.1697 5.82584 23.794 5.65623 23.3792 5.48219C23.0003 5.32281 22.6839 5.14969 22.3831 4.86329C22.3467 4.82923 22.3103 4.79516 22.2728 4.76007C21.9566 4.43364 21.799 4.04563 21.6214 3.63282C21.3046 2.93324 20.9542 2.54512 20.2481 2.21925C20.0793 2.16159 19.9278 2.14165 19.7501 2.1277C19.6915 2.12263 19.633 2.11757 19.5727 2.11236C19.3875 2.10926 19.2257 2.13713 19.0433 2.16798C17.9863 2.24464 17.151 2.04918 16.3187 1.36964C15.3404 0.602316 14.3063 0.884482 13.4001 1.57716ZM7.38312 20.7422C6.59566 22.624 6.59566 22.624 5.8194 24.5105C5.79373 24.5735 5.76806 24.6365 5.74162 24.7014C5.536 25.2081 5.4065 25.6178 5.62668 26.1436C5.80553 26.4762 6.15158 26.7184 6.50421 26.8359C6.6271 26.8381 6.75007 26.8367 6.87294 26.8334C8.25855 26.8065 9.54208 26.9256 10.5918 27.9277C10.8518 28.1861 11.0951 28.4607 11.3341 28.7384C11.5996 28.9999 11.8401 29.0882 12.2098 29.0918C12.6635 29.0804 12.8959 28.9437 13.2066 28.6269C13.4244 28.3578 13.5399 28.0358 13.671 27.7185C13.7003 27.6488 13.7296 27.5791 13.7598 27.5073C13.8618 27.2644 13.9623 27.0209 14.0628 26.7774C14.1038 26.6782 14.1449 26.5789 14.1859 26.4797C14.3963 25.9707 14.6058 25.4614 14.8142 24.9516C14.8322 24.9077 14.8502 24.8638 14.8687 24.8186C14.9365 24.6523 15.0021 24.4869 15.0589 24.3164C15.0029 24.3107 14.947 24.3049 14.8893 24.299C14.0837 24.2059 13.54 23.9969 12.8909 23.4961C12.7989 23.4291 12.7062 23.3631 12.6126 23.2983C12.5742 23.2713 12.5359 23.2443 12.4963 23.2164C12.1788 23.0445 11.8701 23.0123 11.514 23.0164C11.4409 23.0167 11.3677 23.0171 11.2924 23.0175C11.0794 23.0271 10.8749 23.0533 10.6644 23.0859C9.84008 23.1438 9.0252 22.866 8.3902 22.3425C7.92277 21.8971 7.66732 21.3379 7.44171 20.7422C7.42237 20.7422 7.40304 20.7422 7.38312 20.7422Z" fill="white"/>
<path d="M20.527 5.95336C20.6804 6.09403 20.829 6.23908 20.9757 6.38666C21.0224 6.43334 21.0691 6.48002 21.1172 6.52811C22.5422 8.0337 23.2737 10.069 23.2755 12.1215C23.2756 12.1622 23.2756 12.2029 23.2756 12.2449C23.2747 12.8687 23.2417 13.4557 23.0851 14.0624C23.0753 14.102 23.0656 14.1416 23.0556 14.1824C22.7428 15.4353 22.1665 16.539 21.3273 17.5195C21.2864 17.5675 21.2455 17.6155 21.2034 17.665C19.886 19.172 18.0895 20.1081 16.1124 20.3906C16.0626 20.3982 16.0129 20.4058 15.9616 20.4137C13.8702 20.68 11.6934 20.0754 10.0187 18.8085C9.75555 18.6037 9.5045 18.3874 9.25696 18.164C9.21081 18.1228 9.16466 18.0815 9.11711 18.039C7.74564 16.7439 6.81811 14.7541 6.72798 12.8688C6.72528 12.6441 6.72297 12.4195 6.72278 12.1948C6.72274 12.1541 6.7227 12.1133 6.72266 12.0714C6.72362 11.4476 6.75662 10.8606 6.91321 10.2538C6.92295 10.2143 6.93269 10.1747 6.94273 10.1339C7.23289 8.97135 7.75131 7.81498 8.55383 6.914C8.74242 6.81971 8.9358 6.82041 9.13977 6.85541C9.28991 6.97626 9.28991 6.97626 9.37414 7.14838C9.36136 7.48382 9.25191 7.6807 9.04822 7.93573C7.88969 9.47849 7.51081 11.4723 7.77882 13.3651C7.81289 13.5613 7.85757 13.7531 7.9093 13.9453C7.92032 13.9867 7.93134 14.0281 7.94269 14.0708C8.22108 15.0763 8.70058 16.0183 9.37414 16.8163C9.42211 16.8738 9.47007 16.9313 9.51948 16.9905C10.7676 18.4412 12.573 19.2984 14.4718 19.4531C15.9271 19.5396 17.3012 19.2158 18.5734 18.5156C18.6526 18.4732 18.6526 18.4732 18.7334 18.43C20.4428 17.4651 21.5708 15.7946 22.0993 13.9317C22.2276 13.3449 22.2861 12.7732 22.2831 12.1728C22.2827 12.1037 22.2824 12.0347 22.2821 11.9635C22.2745 11.4161 22.2303 10.9002 22.089 10.371C22.078 10.3295 22.067 10.288 22.0556 10.2452C21.7772 9.23985 21.2976 8.29793 20.6241 7.49994C20.5762 7.44246 20.5282 7.38498 20.4788 7.32576C19.2305 5.87488 17.4254 5.01817 15.5265 4.86322C13.8176 4.76085 12.0419 5.1958 10.6888 6.27313C10.3487 6.53957 10.3487 6.53957 10.1066 6.55512C9.90149 6.50385 9.90149 6.50385 9.755 6.37933C9.65082 6.17966 9.62553 6.08107 9.66711 5.85932C9.7618 5.73524 9.83925 5.66157 9.96008 5.56635C10.0009 5.53274 10.0418 5.49912 10.0839 5.46449C11.1827 4.61178 12.5176 4.12119 13.8859 3.92572C13.9356 3.91809 13.9854 3.91046 14.0367 3.9026C16.3792 3.60433 18.7738 4.39454 20.527 5.95336Z" fill="white"/>
<path d="M17.5774 7.08985C17.8319 7.30585 17.9639 7.57806 18.0134 7.9049C18.0339 8.43729 17.8861 8.76983 17.5774 9.19922C17.5581 9.21856 17.5387 9.2379 17.5188 9.25782C17.6038 9.2611 17.6038 9.2611 17.6905 9.26445C18.4839 9.30452 19.1434 9.43111 19.7051 10.0378C20.0142 10.4242 20.1617 10.8658 20.165 11.3557C20.1655 11.4241 20.1661 11.4926 20.1667 11.5632C20.1671 11.6739 20.1671 11.6739 20.1674 11.787C20.1678 11.8633 20.1681 11.9396 20.1684 12.0182C20.1691 12.1799 20.1694 12.3415 20.1696 12.5032C20.1699 12.7088 20.1713 12.9145 20.173 13.1201C20.1744 13.3178 20.1745 13.5155 20.1748 13.7132C20.1755 13.7864 20.1762 13.8595 20.1769 13.9349C20.1751 14.6683 20.0285 15.165 19.5218 15.6979C18.9426 16.2489 18.3103 16.2659 17.552 16.2616C17.4532 16.2618 17.3545 16.262 17.2557 16.2623C17.0495 16.2626 16.8433 16.2621 16.6371 16.261C16.3744 16.2597 16.1118 16.2605 15.8491 16.2619C15.6454 16.2627 15.4416 16.2624 15.2379 16.2618C15.1411 16.2617 15.0443 16.2619 14.9476 16.2624C14.4475 16.2646 14.0079 16.2557 13.5457 16.0365C13.4172 15.9829 13.4172 15.9829 13.2873 16.0351C13.207 16.0792 13.1268 16.1234 13.0467 16.1677C12.7286 16.295 12.3697 16.2671 12.0312 16.2642C11.8979 16.2634 11.7649 16.2654 11.6316 16.2677C11.1445 16.2703 10.7152 16.2424 10.3118 15.9375C9.93743 15.5449 9.82537 15.163 9.82601 14.6231C9.82561 14.5747 9.82522 14.5264 9.82481 14.4766C9.8237 14.3174 9.82347 14.1583 9.82335 13.9991C9.82297 13.8879 9.82257 13.7767 9.82216 13.6655C9.82146 13.4326 9.82125 13.1996 9.82131 12.9667C9.82133 12.6692 9.81973 12.3718 9.81771 12.0743C9.8164 11.8446 9.81617 11.6149 9.81623 11.3852C9.81609 11.2756 9.81558 11.166 9.81467 11.0564C9.80588 9.88734 9.80588 9.88734 10.1864 9.41575C10.2412 9.3702 10.2412 9.3702 10.2971 9.32373C10.3331 9.29246 10.369 9.2612 10.4061 9.22898C10.8519 8.94778 11.2577 8.93701 11.7755 8.94193C11.8936 8.94287 12.0115 8.94194 12.1296 8.94082C12.6828 8.94247 13.0662 9.00914 13.5344 9.31641C13.844 9.04963 14.1466 8.77569 14.4472 8.49887C14.6441 8.31781 14.8438 8.14066 15.0464 7.96601C15.1523 7.87179 15.2557 7.77599 15.3586 7.67853C15.3917 7.64737 15.4248 7.61621 15.4589 7.5841C15.5242 7.52246 15.5891 7.4605 15.6538 7.39817C16.2375 6.84823 16.8472 6.6876 17.5774 7.08985ZM16.4312 8.02369C16.3791 8.07195 16.3271 8.12021 16.2735 8.16994C16.2204 8.21957 16.1673 8.26919 16.1126 8.32032C16.0151 8.40843 15.9175 8.49633 15.8196 8.58399C15.7713 8.62749 15.7229 8.671 15.6731 8.71582C15.2337 9.11133 15.2337 9.11133 15.0879 9.24248C14.9878 9.33256 14.8879 9.42274 14.788 9.51302C14.7381 9.55811 14.6882 9.6032 14.6367 9.64966C14.5702 9.70982 14.5702 9.70982 14.5024 9.7712C14.3547 9.90235 14.3547 9.90235 14.2524 9.97506C14.0382 10.1346 13.9543 10.211 13.8933 10.4796C13.8912 10.5656 13.8914 10.6515 13.8934 10.7375C13.8928 10.7847 13.8923 10.8319 13.8918 10.8805C13.8906 11.0357 13.8923 11.1907 13.8942 11.3459C13.8943 11.454 13.8941 11.5621 13.8939 11.6702C13.8938 11.8964 13.8952 12.1225 13.8976 12.3486C13.9006 12.6387 13.9004 12.9286 13.8993 13.2187C13.8987 13.4417 13.8995 13.6647 13.9008 13.8878C13.9013 13.9947 13.9014 14.1017 13.9011 14.2087C13.9009 14.358 13.9026 14.5071 13.9048 14.6564C13.9044 14.7007 13.904 14.745 13.9036 14.7906C13.9037 14.9281 13.9037 14.9281 13.9446 15.1172C14.1574 15.316 14.3648 15.3152 14.6471 15.3157C14.6872 15.316 14.7272 15.3163 14.7685 15.3167C14.9003 15.3174 15.0321 15.3169 15.1638 15.3163C15.2559 15.3164 15.3479 15.3166 15.4399 15.3168C15.6325 15.3171 15.8251 15.3167 16.0178 15.3159C16.2641 15.3149 16.5104 15.3155 16.7568 15.3165C16.9467 15.3172 17.1367 15.317 17.3267 15.3165C17.4175 15.3164 17.5083 15.3165 17.5991 15.3169C17.7262 15.3174 17.8534 15.3167 17.9806 15.3157C18.0889 15.3155 18.0889 15.3155 18.1995 15.3153C18.5102 15.2803 18.7412 15.1604 18.9397 14.9194C18.9678 14.8864 18.9959 14.8533 19.0249 14.8192C19.185 14.5829 19.2328 14.3699 19.2351 14.087C19.2358 14.0229 19.2365 13.9587 19.2373 13.8926C19.2374 13.8238 19.2376 13.755 19.2377 13.6842C19.2381 13.6129 19.2385 13.5416 19.2389 13.4681C19.2395 13.3173 19.2398 13.1666 19.2397 13.0158C19.24 12.7859 19.2421 12.556 19.2444 12.3261C19.2447 12.1794 19.2449 12.0327 19.245 11.8861C19.2459 11.8176 19.2467 11.7492 19.2476 11.6787C19.2452 11.2489 19.2029 10.8994 18.9009 10.5753C18.5833 10.2923 18.2943 10.2371 17.8809 10.2358C17.7919 10.2344 17.7028 10.2329 17.6138 10.2314C17.4743 10.2297 17.3348 10.2283 17.1953 10.2272C17.06 10.2259 16.9248 10.2236 16.7896 10.2212C16.7478 10.2212 16.7061 10.2212 16.6631 10.2212C16.3755 10.2154 16.3755 10.2154 16.2346 10.1163C16.1364 9.96641 16.1201 9.84604 16.1126 9.66797C16.178 9.51943 16.178 9.51943 16.281 9.37134C16.3184 9.31605 16.3558 9.26076 16.3943 9.2038C16.4847 9.07686 16.5757 8.95061 16.6676 8.82477C16.6916 8.79139 16.7156 8.75801 16.7403 8.72362C16.809 8.62844 16.879 8.5342 16.9491 8.44002C17.0616 8.24126 17.0863 8.13472 17.0501 7.91016C16.7569 7.71474 16.6668 7.80241 16.4312 8.02369ZM10.8391 10.1367C10.7498 10.3154 10.7704 10.5021 10.7692 10.6982C10.7687 10.7441 10.7683 10.7899 10.7678 10.8371C10.7663 10.9892 10.7654 11.1412 10.7645 11.2933C10.7642 11.3452 10.7639 11.397 10.7636 11.4505C10.762 11.7251 10.7609 11.9998 10.76 12.2744C10.759 12.5581 10.7564 12.8418 10.7534 13.1256C10.7515 13.3437 10.7508 13.5618 10.7505 13.7799C10.7501 13.8845 10.7492 13.9891 10.7478 14.0937C10.7459 14.2401 10.7459 14.3865 10.7463 14.5329C10.7454 14.5761 10.7444 14.6192 10.7434 14.6637C10.7462 14.8928 10.7738 14.9916 10.918 15.1733C11.109 15.3203 11.2116 15.3307 11.4507 15.3319C11.5225 15.3323 11.5942 15.3326 11.6681 15.333C11.7426 15.3319 11.8171 15.3308 11.8938 15.3296C12.0055 15.3313 12.0055 15.3313 12.1195 15.333C12.1912 15.3327 12.263 15.3323 12.3369 15.3319C12.4023 15.3316 12.4676 15.3312 12.5349 15.3309C12.7767 15.2797 12.8541 15.1925 13.0071 15C13.0358 14.8334 13.0467 14.7019 13.0441 14.5357C13.0445 14.4899 13.0449 14.444 13.0453 14.3967C13.0463 14.2456 13.0452 14.0946 13.0439 13.9435C13.044 13.8382 13.0441 13.7329 13.0444 13.6276C13.0445 13.4071 13.0437 13.1867 13.0421 12.9662C13.0401 12.6839 13.0404 12.4016 13.0415 12.1192C13.0421 11.9019 13.0416 11.6845 13.0407 11.4672C13.0404 11.3631 13.0405 11.259 13.0408 11.1549C13.0411 11.0093 13.04 10.8638 13.0383 10.7182C13.0387 10.6753 13.0391 10.6325 13.0395 10.5883C13.0342 10.3051 12.9739 10.1598 12.7727 9.96094C12.5194 9.83429 12.183 9.88628 11.9048 9.88404C11.8351 9.88234 11.7654 9.88064 11.6937 9.87889C11.6264 9.8784 11.5591 9.87791 11.4898 9.8774C11.4283 9.87655 11.3667 9.87569 11.3033 9.87481C11.0898 9.90915 10.9934 9.98832 10.8391 10.1367Z" fill="white"/>
</g>
<defs>
<clipPath id="clip0_359_4498">
<rect width="30" height="30" fill="white"/>
</clipPath>
</defs>
</svg>
