<svg width="30" height="30" viewBox="0 0 30 30" fill="none" xmlns="http://www.w3.org/2000/svg">
<g clip-path="url(#clip0_197_71)">
<path d="M27.8577 13.9283H19.2863C18.6945 13.9283 18.2148 14.408 18.2148 14.9998V27.8569C18.2148 28.4486 18.6945 28.9283 19.2863 28.9283H27.8577C28.4494 28.9283 28.9291 28.4486 28.9291 27.8569V14.9998C28.9291 14.408 28.4494 13.9283 27.8577 13.9283Z" stroke="#24544B" stroke-width="2" stroke-linecap="round" stroke-linejoin="round"/>
<path d="M27.8577 1.07141H19.2863C18.6945 1.07141 18.2148 1.55111 18.2148 2.14284V6.44998C18.2148 7.04172 18.6945 7.52141 19.2863 7.52141H27.8577C28.4494 7.52141 28.9291 7.04172 28.9291 6.44998V2.14284C28.9291 1.55111 28.4494 1.07141 27.8577 1.07141Z" stroke="#24544B" stroke-width="2" stroke-linecap="round" stroke-linejoin="round"/>
<path d="M10.7151 1.07141H2.14369C1.55196 1.07141 1.07227 1.55111 1.07227 2.14284V15C1.07227 15.5917 1.55196 16.0714 2.14369 16.0714H10.7151C11.3069 16.0714 11.7866 15.5917 11.7866 15V2.14284C11.7866 1.55111 11.3069 1.07141 10.7151 1.07141Z" stroke="#24544B" stroke-width="2" stroke-linecap="round" stroke-linejoin="round"/>
<path d="M10.7151 22.4785H2.14369C1.55196 22.4785 1.07227 22.9582 1.07227 23.5499V27.8571C1.07227 28.4488 1.55196 28.9285 2.14369 28.9285H10.7151C11.3069 28.9285 11.7866 28.4488 11.7866 27.8571V23.5499C11.7866 22.9582 11.3069 22.4785 10.7151 22.4785Z" stroke="#24544B" stroke-width="2" stroke-linecap="round" stroke-linejoin="round"/>
</g>
<defs>
<clipPath id="clip0_197_71">
<rect width="30" height="30" fill="white"/>
</clipPath>
</defs>
</svg>
