<svg width="30" height="31" viewBox="0 0 30 31" fill="none" xmlns="http://www.w3.org/2000/svg">
<g clip-path="url(#clip0_162_496)">
<path d="M9.64272 1.19141H3.21415C2.03068 1.19141 1.07129 2.1508 1.07129 3.33426V9.76283C1.07129 10.9463 2.03068 11.9057 3.21415 11.9057H9.64272C10.8262 11.9057 11.7856 10.9463 11.7856 9.76283V3.33426C11.7856 2.1508 10.8262 1.19141 9.64272 1.19141Z" stroke="white" stroke-width="2" stroke-linecap="round" stroke-linejoin="round"/>
<path d="M26.7853 1.19141H20.3567C19.1733 1.19141 18.2139 2.1508 18.2139 3.33426V9.76283C18.2139 10.9463 19.1733 11.9057 20.3567 11.9057H26.7853C27.9688 11.9057 28.9282 10.9463 28.9282 9.76283V3.33426C28.9282 2.1508 27.9688 1.19141 26.7853 1.19141Z" stroke="white" stroke-width="2" stroke-linecap="round" stroke-linejoin="round"/>
<path d="M9.64272 18.3345H3.21415C2.03068 18.3345 1.07129 19.2939 1.07129 20.4773V26.9059C1.07129 28.0894 2.03068 29.0488 3.21415 29.0488H9.64272C10.8262 29.0488 11.7856 28.0894 11.7856 26.9059V20.4773C11.7856 19.2939 10.8262 18.3345 9.64272 18.3345Z" stroke="white" stroke-width="2" stroke-linecap="round" stroke-linejoin="round"/>
<path d="M26.7853 18.3345H20.3567C19.1733 18.3345 18.2139 19.2939 18.2139 20.4773V26.9059C18.2139 28.0894 19.1733 29.0488 20.3567 29.0488H26.7853C27.9688 29.0488 28.9282 28.0894 28.9282 26.9059V20.4773C28.9282 19.2939 27.9688 18.3345 26.7853 18.3345Z" stroke="white" stroke-width="2" stroke-linecap="round" stroke-linejoin="round"/>
</g>
<defs>
<clipPath id="clip0_162_496">
<rect width="30" height="30" fill="white" transform="translate(0 0.120117)"/>
</clipPath>
</defs>
</svg>
