<svg width="50" height="50" viewBox="0 0 50 50" fill="none" xmlns="http://www.w3.org/2000/svg">
<circle cx="25" cy="25" r="25" fill="#F7F0F2"/>
<path d="M40.5805 22.4007C40.0557 21.8655 39.2231 21.5225 34.8572 23.1826C33.2701 23.7861 31.1958 24.6866 29.5146 25.6196C29.2814 25.0165 29.0769 24.5203 28.9468 24.211C26.5544 18.5312 25.5862 18.5312 25.0079 18.5312C24.4293 18.5312 23.4611 18.5312 21.0689 24.211C20.9386 24.5203 20.734 25.0165 20.5011 25.6196C18.8196 24.6866 16.7457 23.7861 15.1585 23.1826C10.7926 21.5225 9.96036 21.8655 9.43522 22.4007C9.0261 22.8179 8.34169 23.5158 10.5884 29.2573C11.0743 30.4987 12.7742 34.6667 14.2515 36.1731C15.4373 37.3824 17.0192 37.9956 18.6039 37.9956C19.7138 37.9956 20.8249 37.6935 21.8027 37.0859C22.7364 37.6705 23.834 38.0085 25.0079 38.0085C26.1815 38.0085 27.2794 37.6705 28.2131 37.0859C29.1911 37.6938 30.3019 37.9962 31.4121 37.9962C32.9966 37.9962 34.5781 37.383 35.7643 36.1734C37.2415 34.667 38.9417 30.499 39.4274 29.2576C41.674 23.5158 40.9894 22.8176 40.5805 22.4007ZM15.9011 34.4903C14.4928 33.0543 12.0285 26.9424 11.4542 24.4649C13.2845 24.914 17.2199 26.4567 19.6919 27.882C19.2401 29.2742 18.8634 30.7359 18.8634 31.7422C18.8634 33.0859 19.2819 34.3312 19.9906 35.3524C18.6165 35.8975 16.9902 35.601 15.9011 34.4903ZM21.1966 31.7425C21.1966 29.7099 23.6966 23.6019 25.0076 21.4412C26.3185 23.6019 28.8186 29.7096 28.8186 31.7425C28.8186 33.8854 27.109 35.6287 25.0076 35.6287C22.9062 35.6287 21.1966 33.8854 21.1966 31.7425ZM34.1141 34.4903C33.0243 35.6013 31.3987 35.8978 30.0246 35.3527C30.7335 34.3315 31.152 33.0862 31.152 31.7422C31.152 30.7359 30.7753 29.2739 30.3235 27.882C32.7955 26.4567 36.7313 24.914 38.5612 24.4649C37.9867 26.9424 35.5223 33.0543 34.1141 34.4903Z" fill="#24544B"/>
<path d="M25.0099 15.7964C26.038 15.7964 26.8715 14.9466 26.8715 13.8982C26.8715 12.8499 26.038 12 25.0099 12C23.9819 12 23.1484 12.8499 23.1484 13.8982C23.1484 14.9463 23.9819 15.7964 25.0099 15.7964Z" fill="#24544B"/>
<path d="M33.3381 21.2886C34.3661 21.2886 35.1996 20.4388 35.1996 19.3904C35.1996 18.3421 34.3661 17.4922 33.3381 17.4922C32.31 17.4922 31.4766 18.3421 31.4766 19.3904C31.4766 20.4388 32.31 21.2886 33.3381 21.2886Z" fill="#24544B"/>
<path d="M16.6662 21.2886C17.6943 21.2886 18.5277 20.4388 18.5277 19.3904C18.5277 18.3421 17.6943 17.4922 16.6662 17.4922C15.6381 17.4922 14.8047 18.3421 14.8047 19.3904C14.8047 20.4388 15.6381 21.2886 16.6662 21.2886Z" fill="#24544B"/>
</svg>
