<svg width="151" height="50" viewBox="0 0 151 50" fill="none" xmlns="http://www.w3.org/2000/svg">
<circle cx="25" cy="25" r="25" fill="#24544B"/>
<path d="M40.5727 22.3923C40.0479 21.8571 39.2153 21.5141 34.8494 23.1742C33.2623 23.7776 31.188 24.6782 29.5068 25.6112C29.2736 25.008 29.0691 24.5119 28.939 24.2026C26.5465 18.5228 25.5784 18.5228 25.0001 18.5228C24.4214 18.5228 23.4533 18.5228 21.0611 24.2026C20.9308 24.5119 20.7262 25.008 20.4933 25.6112C18.8118 24.6782 16.7378 23.7776 15.1507 23.1742C10.7848 21.5141 9.95254 21.8571 9.42741 22.3923C9.01828 22.8094 8.33388 23.5073 10.5805 29.2488C11.0665 30.4902 12.7664 34.6583 14.2437 36.1647C15.4295 37.3739 17.0114 37.9872 18.5961 37.9872C19.706 37.9872 20.8171 37.685 21.7949 37.0774C22.7286 37.6621 23.8262 38 25.0001 38C26.1737 38 27.2716 37.6621 28.2052 37.0774C29.1833 37.6853 30.2941 37.9878 31.4043 37.9878C32.9888 37.9878 34.5703 37.3745 35.7565 36.165C37.2337 34.6586 38.9339 30.4905 39.4196 29.2491C41.6662 23.5073 40.9815 22.8091 40.5727 22.3923ZM15.8933 34.4819C14.485 33.0458 12.0207 26.934 11.4464 24.4565C13.2767 24.9055 17.2121 26.4483 19.6841 27.8736C19.2323 29.2658 18.8556 30.7274 18.8556 31.7338C18.8556 33.0774 19.2741 34.3228 19.9828 35.344C18.6087 35.889 16.9824 35.5925 15.8933 34.4819ZM21.1888 31.7341C21.1888 29.7015 23.6888 23.5935 24.9998 21.4327C26.3107 23.5935 28.8107 29.7012 28.8107 31.7341C28.8107 33.877 27.1012 35.6202 24.9998 35.6202C22.8983 35.6202 21.1888 33.877 21.1888 31.7341ZM34.1062 34.4819C33.0165 35.5928 31.3908 35.8893 30.0168 35.3443C30.7257 34.3231 31.1442 33.0777 31.1442 31.7338C31.1442 30.7274 30.7675 29.2655 30.3157 27.8736C32.7877 26.4483 36.7235 24.9055 38.5534 24.4565C37.9789 26.934 35.5145 33.0458 34.1062 34.4819Z" fill="#F7F0F2"/>
<path d="M24.9992 15.7964C26.0273 15.7964 26.8607 14.9466 26.8607 13.8982C26.8607 12.8499 26.0273 12 24.9992 12C23.9711 12 23.1377 12.8499 23.1377 13.8982C23.1377 14.9463 23.9711 15.7964 24.9992 15.7964Z" fill="#F7F0F2"/>
<path d="M33.339 21.2935C34.3671 21.2935 35.2006 20.4437 35.2006 19.3953C35.2006 18.347 34.3671 17.4971 33.339 17.4971C32.311 17.4971 31.4775 18.347 31.4775 19.3953C31.4775 20.4437 32.311 21.2935 33.339 21.2935Z" fill="#F7F0F2"/>
<path d="M16.6613 21.2935C17.6894 21.2935 18.5228 20.4437 18.5228 19.3953C18.5228 18.347 17.6894 17.4971 16.6613 17.4971C15.6332 17.4971 14.7998 18.347 14.7998 19.3953C14.7998 20.4437 15.6332 21.2935 16.6613 21.2935Z" fill="#F7F0F2"/>
<path d="M61.656 34V17.2H67.272C69.224 17.2 70.832 17.552 72.096 18.256C73.376 18.944 74.32 19.92 74.928 21.184C75.552 22.432 75.864 23.904 75.864 25.6C75.864 27.296 75.552 28.776 74.928 30.04C74.32 31.288 73.384 32.264 72.12 32.968C70.856 33.656 69.24 34 67.272 34H61.656ZM64.896 31.216H67.104C68.48 31.216 69.56 30.992 70.344 30.544C71.144 30.096 71.712 29.456 72.048 28.624C72.384 27.776 72.552 26.768 72.552 25.6C72.552 24.416 72.384 23.408 72.048 22.576C71.712 21.728 71.144 21.08 70.344 20.632C69.56 20.184 68.48 19.96 67.104 19.96H64.896V31.216ZM84.3608 34.288C83.1448 34.288 82.0648 34.032 81.1208 33.52C80.1928 32.992 79.4648 32.264 78.9368 31.336C78.4248 30.392 78.1688 29.304 78.1688 28.072C78.1688 26.808 78.4248 25.696 78.9368 24.736C79.4488 23.76 80.1688 23 81.0968 22.456C82.0408 21.896 83.1288 21.616 84.3608 21.616C85.5608 21.616 86.6088 21.88 87.5048 22.408C88.4008 22.936 89.0968 23.648 89.5928 24.544C90.0888 25.44 90.3368 26.456 90.3368 27.592C90.3368 27.752 90.3368 27.936 90.3368 28.144C90.3368 28.336 90.3208 28.536 90.2888 28.744H80.4728V26.776H87.0728C87.0248 25.992 86.7448 25.376 86.2328 24.928C85.7368 24.48 85.1128 24.256 84.3608 24.256C83.8168 24.256 83.3128 24.384 82.8488 24.64C82.3848 24.88 82.0168 25.256 81.7448 25.768C81.4888 26.28 81.3608 26.928 81.3608 27.712V28.408C81.3608 29.064 81.4808 29.64 81.7208 30.136C81.9768 30.616 82.3288 30.992 82.7768 31.264C83.2248 31.52 83.7448 31.648 84.3368 31.648C84.9288 31.648 85.4168 31.52 85.8008 31.264C86.2008 31.008 86.4968 30.68 86.6888 30.28H90.0008C89.7768 31.032 89.4008 31.712 88.8728 32.32C88.3448 32.928 87.6968 33.408 86.9288 33.76C86.1608 34.112 85.3048 34.288 84.3608 34.288ZM92.9902 34V21.904H95.8703L96.1823 24.136C96.4703 23.608 96.8303 23.16 97.2623 22.792C97.7103 22.424 98.2143 22.136 98.7743 21.928C99.3503 21.72 99.9823 21.616 100.67 21.616V25.048H99.5663C99.0863 25.048 98.6383 25.104 98.2223 25.216C97.8223 25.328 97.4703 25.512 97.1663 25.768C96.8623 26.008 96.6303 26.344 96.4703 26.776C96.3103 27.208 96.2303 27.752 96.2303 28.408V34H92.9902ZM102.811 34V21.904H105.667L105.931 23.512C106.315 22.936 106.819 22.48 107.443 22.144C108.083 21.792 108.811 21.616 109.627 21.616C110.235 21.616 110.779 21.696 111.259 21.856C111.739 22.016 112.163 22.248 112.531 22.552C112.915 22.856 113.227 23.24 113.467 23.704C113.915 23.048 114.499 22.536 115.219 22.168C115.939 21.8 116.723 21.616 117.571 21.616C118.627 21.616 119.507 21.832 120.211 22.264C120.915 22.68 121.443 23.288 121.795 24.088C122.163 24.888 122.347 25.872 122.347 27.04V34H119.131V27.328C119.131 26.368 118.939 25.632 118.555 25.12C118.187 24.608 117.611 24.352 116.827 24.352C116.315 24.352 115.859 24.48 115.459 24.736C115.059 24.992 114.747 25.36 114.523 25.84C114.315 26.32 114.211 26.896 114.211 27.568V34H110.971V27.328C110.971 26.368 110.779 25.632 110.395 25.12C110.011 24.608 109.419 24.352 108.619 24.352C108.123 24.352 107.675 24.48 107.275 24.736C106.891 24.992 106.587 25.36 106.363 25.84C106.155 26.32 106.051 26.896 106.051 27.568V34H102.811ZM129.484 34.288C128.476 34.288 127.644 34.128 126.988 33.808C126.332 33.472 125.844 33.032 125.524 32.488C125.22 31.928 125.068 31.312 125.068 30.64C125.068 29.904 125.252 29.256 125.62 28.696C126.004 28.136 126.572 27.696 127.324 27.376C128.092 27.056 129.052 26.896 130.204 26.896H133.204C133.204 26.304 133.124 25.816 132.964 25.432C132.804 25.032 132.556 24.736 132.22 24.544C131.884 24.352 131.436 24.256 130.876 24.256C130.268 24.256 129.748 24.392 129.316 24.664C128.9 24.92 128.644 25.32 128.548 25.864H125.404C125.484 25 125.764 24.256 126.244 23.632C126.74 22.992 127.388 22.496 128.188 22.144C129.004 21.792 129.908 21.616 130.9 21.616C132.036 21.616 133.02 21.808 133.852 22.192C134.684 22.576 135.324 23.128 135.772 23.848C136.22 24.568 136.444 25.456 136.444 26.512V34H133.708L133.348 32.152C133.172 32.472 132.964 32.76 132.724 33.016C132.484 33.272 132.204 33.496 131.884 33.688C131.564 33.88 131.204 34.024 130.804 34.12C130.404 34.232 129.964 34.288 129.484 34.288ZM130.252 31.792C130.668 31.792 131.036 31.72 131.356 31.576C131.692 31.416 131.98 31.208 132.22 30.952C132.46 30.68 132.644 30.376 132.772 30.04C132.916 29.688 133.012 29.312 133.06 28.912V28.888H130.588C130.092 28.888 129.684 28.952 129.364 29.08C129.06 29.192 128.836 29.36 128.692 29.584C128.548 29.808 128.476 30.064 128.476 30.352C128.476 30.672 128.548 30.936 128.692 31.144C128.836 31.352 129.044 31.512 129.316 31.624C129.588 31.736 129.9 31.792 130.252 31.792ZM139.467 34V16.72H142.707V34H139.467ZM147.329 34.12C146.721 34.12 146.233 33.944 145.865 33.592C145.497 33.224 145.313 32.776 145.313 32.248C145.313 31.72 145.497 31.28 145.865 30.928C146.233 30.56 146.721 30.376 147.329 30.376C147.905 30.376 148.377 30.56 148.745 30.928C149.113 31.28 149.297 31.72 149.297 32.248C149.297 32.776 149.113 33.224 148.745 33.592C148.377 33.944 147.905 34.12 147.329 34.12Z" fill="#24544B"/>
</svg>
