<?xml version="1.0" encoding="UTF-8"?>
<!DOCTYPE svg PUBLIC "-//W3C//DTD SVG 1.1//EN" "http://www.w3.org/Graphics/SVG/1.1/DTD/svg11.dtd">
<!-- Creator: CorelDRAW X7 -->
<svg xmlns="http://www.w3.org/2000/svg" xml:space="preserve" width="1875px" height="341px" version="1.1" style="shape-rendering:geometricPrecision; text-rendering:geometricPrecision; image-rendering:optimizeQuality; fill-rule:evenodd; clip-rule:evenodd"
viewBox="0 0 2007 365"
 xmlns:xlink="http://www.w3.org/1999/xlink">
 <defs>
  <style type="text/css">
   <![CDATA[
    .fil1 {fill:#DDB43D}
    .fil0 {fill:#DDB43D;fill-rule:nonzero}
   ]]>
  </style>
 </defs>
 <g id="Слой_x0020_1">
  <metadata id="CorelCorpID_0Corel-Layer"/>
  <path class="fil0" d="M533 281l48 -155 45 0 48 155 -39 0 -19 -78c-2,-7 -4,-16 -6,-24 -2,-9 -5,-18 -7,-25l0 0c-2,8 -4,16 -6,25 -2,8 -4,17 -6,24l-20 78 -38 0zm33 -36l0 -29 75 0 0 29 -75 0zm171 39c-10,0 -20,-2 -31,-6 -10,-4 -19,-9 -27,-16l21 -26c6,5 12,8 19,11 6,3 13,5 19,5 7,0 12,-1 15,-4 3,-2 5,-6 5,-10 0,-3 -1,-5 -3,-7 -1,-2 -4,-4 -7,-5 -4,-2 -7,-4 -12,-5l-20 -9c-5,-2 -10,-5 -15,-9 -5,-3 -9,-8 -12,-14 -3,-5 -4,-12 -4,-19 0,-9 2,-17 7,-24 5,-7 12,-13 20,-17 8,-4 18,-6 29,-6 9,0 18,2 27,5 9,3 17,8 24,15l-19 24c-5,-4 -10,-7 -15,-9 -5,-2 -11,-3 -17,-3 -6,0 -10,1 -13,3 -4,2 -5,5 -5,9 0,3 1,6 3,8 2,2 5,3 8,5 4,2 8,3 12,5l20 8c6,2 11,5 16,9 5,4 8,9 11,14 2,6 3,12 3,19 0,9 -2,17 -7,24 -4,8 -11,14 -20,18 -9,5 -19,7 -32,7zm107 -3l0 -124 -42 0 0 -31 122 0 0 31 -43 0 0 124 -37 0zm102 0l0 -155 37 0 0 59 51 0 0 -59 37 0 0 155 -37 0 0 -64 -51 0 0 64 -37 0zm160 0l0 -155 98 0 0 31 -61 0 0 28 52 0 0 32 -52 0 0 33 63 0 0 31 -100 0zm159 0l0 -124 -42 0 0 -31 122 0 0 31 -42 0 0 124 -38 0zm102 0l0 -155 37 0 0 155 -37 0zm71 0l0 -155 38 0 0 61 0 0 44 -61 41 0 -47 62 56 93 -41 0 -36 -64 -17 23 0 41 -38 0zm194 0l0 -155 37 0 0 124 61 0 0 31 -98 0zm100 0l48 -155 45 0 48 155 -39 0 -20 -78c-2,-7 -4,-16 -6,-24 -2,-9 -4,-18 -6,-25l-1 0c-1,8 -3,16 -6,25 -2,8 -4,17 -6,24l-19 78 -38 0zm33 -36l0 -29 75 0 0 29 -75 0zm123 36l0 -155 54 0c11,0 20,1 29,3 9,2 16,6 21,12 5,5 8,13 8,23 0,5 -1,9 -3,14 -2,4 -4,8 -7,12 -3,3 -6,6 -11,8l0 1c8,2 15,6 20,12 5,6 8,14 8,24 0,11 -3,19 -8,26 -6,7 -13,12 -22,15 -9,3 -20,5 -31,5l-58 0zm37 -94l15 0c8,0 14,-1 18,-4 3,-4 5,-8 5,-13 0,-6 -2,-10 -5,-12 -4,-3 -10,-4 -18,-4l-15 0 0 33zm0 65l19 0c9,0 15,-1 20,-5 4,-3 7,-8 7,-14 0,-7 -3,-11 -7,-14 -5,-3 -11,-4 -20,-4l-19 0 0 37z"/>
  <path class="fil1" d="M575 78c10,0 19,9 19,19 0,10 -9,18 -19,18 -10,0 -18,-8 -18,-18 0,-10 8,-19 18,-19z"/>
  <path class="fil1" d="M634 78c10,0 18,9 18,19 0,10 -8,18 -18,18 -11,0 -19,-8 -19,-18 0,-10 8,-19 19,-19z"/>
  <path class="fil1" d="M1 245c7,75 50,120 123,120 44,0 101,-17 140,-36 7,-6 14,-36 16,-73 2,-34 -1,-71 -19,-97 -18,-24 -49,-39 -92,-29 -68,14 -86,89 -57,126 16,22 40,22 61,9 14,-8 27,-22 30,-36 3,-15 -2,-23 -16,-27 -9,-3 -21,-4 -30,3 -12,11 -4,27 -20,29 -15,1 -13,-16 -5,-30 14,-28 45,-34 71,-18 32,18 30,75 -30,101 -79,33 -113,-61 -81,-122 31,-59 119,-74 170,-32 60,50 30,171 28,194l124 0c18,-24 28,-73 28,-106 0,-76 -33,-133 -90,-178 -12,-10 -27,-19 -41,-24 -164,-69 -328,62 -310,226z"/>
 </g>
</svg>
