<svg width="60" height="61" viewBox="0 0 60 61" fill="none" xmlns="http://www.w3.org/2000/svg">
<path d="M48.25 15.8701C50.75 18.6201 52.25 21.6201 52.25 26.6201C52.25 35.3701 46 43.1201 37.25 47.1201L35 43.8701C43.25 39.3701 45 33.6201 45.5 29.8701C44.25 30.6201 42.5 30.8701 40.75 30.6201C36.25 30.1201 32.75 26.6201 32.75 21.8701C32.75 19.6201 33.75 17.3701 35.25 15.6201C37 13.8701 39 13.1201 41.5 13.1201C44.25 13.1201 46.75 14.3701 48.25 15.8701ZM23.25 15.8701C25.75 18.6201 27.25 21.6201 27.25 26.6201C27.25 35.3701 21 43.1201 12.25 47.1201L10 43.8701C18.25 39.3701 20 33.6201 20.5 29.8701C19.25 30.6201 17.5 30.8701 15.75 30.6201C11.25 30.1201 7.75 26.6201 7.75 21.8701C7.75 19.6201 8.75 17.3701 10.25 15.6201C11.75 13.8701 14 13.1201 16.5 13.1201C19.25 13.1201 21.75 14.3701 23.25 15.8701Z" fill="#24544B"/>
</svg>
